M48
; DRILL file {KiCad (5.1.9)-1} date 01/13/21 00:43:25
; FORMAT={-:-/ absolute / metric / decimal}
; #@! TF.CreationDate,2021-01-13T00:43:25+11:00
; #@! TF.GenerationSoftware,Kicad,Pcbnew,(5.1.9)-1
; #@! TF.FileFunction,Plated,1,4,PTH
FMAT,2
METRIC
T1C0.300
T2C0.400
%
G90
G05
T1
X122.174Y-123.698
X124.714Y-123.698
X127.254Y-123.698
X129.794Y-123.698
X132.334Y-123.698
X134.874Y-123.698
X137.414Y-123.698
X139.954Y-123.698
X142.494Y-123.698
X145.034Y-123.698
X147.574Y-123.698
X150.114Y-123.698
X152.654Y-123.698
X155.194Y-123.698
X157.734Y-123.698
X160.274Y-123.698
X162.814Y-123.698
X165.354Y-123.698
X167.894Y-123.698
X170.434Y-123.698
X172.974Y-123.698
X175.514Y-123.698
X178.054Y-123.698
X180.594Y-123.698
X183.134Y-123.698
X185.674Y-123.698
X188.214Y-123.698
X190.754Y-123.698
X193.294Y-123.698
X195.834Y-123.698
T2
X123.19Y-111.76
X124.728Y-118.583
X125.421Y-114.609
X127.286Y-117.637
X128.488Y-122.838
X129.194Y-111.328
X129.688Y-115.248
X129.718Y-118.28
X130.823Y-116.397
X132.133Y-115.646
X132.404Y-111.328
X132.74Y-118.318
X133.414Y-120.082
X134.331Y-117.23
X134.565Y-119.095
X135.179Y-112.266
X135.469Y-117.651
X135.955Y-121.373
X136.692Y-118.623
X137.102Y-114.901
X138.18Y-118.077
X140.192Y-118.736
X143.235Y-115.581
X143.56Y-121.088
X144.995Y-121.68
X145.847Y-119.99
X146.306Y-121.48
X146.955Y-112.315
X149.161Y-115.608
X149.329Y-117.831
X149.923Y-112.748
X152.281Y-118.082
X153.436Y-115.226
X153.699Y-111.651
X155.398Y-118.414
X155.566Y-111.454
X157.595Y-121.134
X158.141Y-114.314
X158.622Y-118.857
X160.265Y-112.813
X160.665Y-122.072
X161.418Y-118.34
X161.421Y-115.429
X162.208Y-116.248
X165.353Y-115.435
X166.225Y-118.79
X167.402Y-121.348
X167.705Y-113.119
X168.927Y-116.873
X169.31Y-121.117
X169.431Y-115.583
X170.18Y-118.143
X173.675Y-121.232
X173.771Y-117.545
X175.172Y-115.704
X176.55Y-118.259
X178.438Y-115.072
X181.059Y-115.276
X182.449Y-121.406
X187.998Y-115.604
X188.529Y-122.037
X190.725Y-122.104
T0
M30
