%TF.GenerationSoftware,KiCad,Pcbnew,(5.1.9)-1*%
%TF.CreationDate,2021-01-13T00:02:16+11:00*%
%TF.ProjectId,1M-30pinsimm,314d2d33-3070-4696-9e73-696d6d2e6b69,rev?*%
%TF.SameCoordinates,Original*%
%TF.FileFunction,Legend,Bot*%
%TF.FilePolarity,Positive*%
%FSLAX46Y46*%
G04 Gerber Fmt 4.6, Leading zero omitted, Abs format (unit mm)*
G04 Created by KiCad (PCBNEW (5.1.9)-1) date 2021-01-13 00:02:16*
%MOMM*%
%LPD*%
G01*
G04 APERTURE LIST*
%ADD10C,0.100000*%
%ADD11C,0.200000*%
G04 APERTURE END LIST*
D10*
G36*
X158750000Y-114300000D02*
G01*
X143510000Y-114300000D01*
X143510000Y-111760000D01*
X158750000Y-111760000D01*
X158750000Y-114300000D01*
G37*
X158750000Y-114300000D02*
X143510000Y-114300000D01*
X143510000Y-111760000D01*
X158750000Y-111760000D01*
X158750000Y-114300000D01*
D11*
X196481904Y-113482380D02*
X196481904Y-112482380D01*
X196053333Y-113482380D02*
X196053333Y-112958571D01*
X196100952Y-112863333D01*
X196196190Y-112815714D01*
X196339047Y-112815714D01*
X196434285Y-112863333D01*
X196481904Y-112910952D01*
X195720000Y-112815714D02*
X195339047Y-112815714D01*
X195577142Y-112482380D02*
X195577142Y-113339523D01*
X195529523Y-113434761D01*
X195434285Y-113482380D01*
X195339047Y-113482380D01*
X195148571Y-112815714D02*
X194767619Y-112815714D01*
X195005714Y-112482380D02*
X195005714Y-113339523D01*
X194958095Y-113434761D01*
X194862857Y-113482380D01*
X194767619Y-113482380D01*
X194434285Y-112815714D02*
X194434285Y-113815714D01*
X194434285Y-112863333D02*
X194339047Y-112815714D01*
X194148571Y-112815714D01*
X194053333Y-112863333D01*
X194005714Y-112910952D01*
X193958095Y-113006190D01*
X193958095Y-113291904D01*
X194005714Y-113387142D01*
X194053333Y-113434761D01*
X194148571Y-113482380D01*
X194339047Y-113482380D01*
X194434285Y-113434761D01*
X193577142Y-113434761D02*
X193481904Y-113482380D01*
X193291428Y-113482380D01*
X193196190Y-113434761D01*
X193148571Y-113339523D01*
X193148571Y-113291904D01*
X193196190Y-113196666D01*
X193291428Y-113149047D01*
X193434285Y-113149047D01*
X193529523Y-113101428D01*
X193577142Y-113006190D01*
X193577142Y-112958571D01*
X193529523Y-112863333D01*
X193434285Y-112815714D01*
X193291428Y-112815714D01*
X193196190Y-112863333D01*
X192720000Y-113387142D02*
X192672380Y-113434761D01*
X192720000Y-113482380D01*
X192767619Y-113434761D01*
X192720000Y-113387142D01*
X192720000Y-113482380D01*
X192720000Y-112863333D02*
X192672380Y-112910952D01*
X192720000Y-112958571D01*
X192767619Y-112910952D01*
X192720000Y-112863333D01*
X192720000Y-112958571D01*
X191529523Y-112434761D02*
X192386666Y-113720476D01*
X190481904Y-112434761D02*
X191339047Y-113720476D01*
X190148571Y-112815714D02*
X190148571Y-113815714D01*
X190148571Y-112863333D02*
X190053333Y-112815714D01*
X189862857Y-112815714D01*
X189767619Y-112863333D01*
X189720000Y-112910952D01*
X189672380Y-113006190D01*
X189672380Y-113291904D01*
X189720000Y-113387142D01*
X189767619Y-113434761D01*
X189862857Y-113482380D01*
X190053333Y-113482380D01*
X190148571Y-113434761D01*
X188815238Y-113434761D02*
X188910476Y-113482380D01*
X189100952Y-113482380D01*
X189196190Y-113434761D01*
X189243809Y-113387142D01*
X189291428Y-113291904D01*
X189291428Y-113006190D01*
X189243809Y-112910952D01*
X189196190Y-112863333D01*
X189100952Y-112815714D01*
X188910476Y-112815714D01*
X188815238Y-112863333D01*
X188386666Y-113482380D02*
X188386666Y-112482380D01*
X188386666Y-112863333D02*
X188291428Y-112815714D01*
X188100952Y-112815714D01*
X188005714Y-112863333D01*
X187958095Y-112910952D01*
X187910476Y-113006190D01*
X187910476Y-113291904D01*
X187958095Y-113387142D01*
X188005714Y-113434761D01*
X188100952Y-113482380D01*
X188291428Y-113482380D01*
X188386666Y-113434761D01*
X187481904Y-113387142D02*
X187434285Y-113434761D01*
X187481904Y-113482380D01*
X187529523Y-113434761D01*
X187481904Y-113387142D01*
X187481904Y-113482380D01*
X187005714Y-113482380D02*
X187005714Y-112482380D01*
X186577142Y-113482380D02*
X186577142Y-112958571D01*
X186624761Y-112863333D01*
X186720000Y-112815714D01*
X186862857Y-112815714D01*
X186958095Y-112863333D01*
X187005714Y-112910952D01*
X185720000Y-113434761D02*
X185815238Y-113482380D01*
X186005714Y-113482380D01*
X186100952Y-113434761D01*
X186148571Y-113339523D01*
X186148571Y-112958571D01*
X186100952Y-112863333D01*
X186005714Y-112815714D01*
X185815238Y-112815714D01*
X185720000Y-112863333D01*
X185672380Y-112958571D01*
X185672380Y-113053809D01*
X186148571Y-113149047D01*
X184815238Y-112815714D02*
X184815238Y-113625238D01*
X184862857Y-113720476D01*
X184910476Y-113768095D01*
X185005714Y-113815714D01*
X185148571Y-113815714D01*
X185243809Y-113768095D01*
X184815238Y-113434761D02*
X184910476Y-113482380D01*
X185100952Y-113482380D01*
X185196190Y-113434761D01*
X185243809Y-113387142D01*
X185291428Y-113291904D01*
X185291428Y-113006190D01*
X185243809Y-112910952D01*
X185196190Y-112863333D01*
X185100952Y-112815714D01*
X184910476Y-112815714D01*
X184815238Y-112863333D01*
X183910476Y-113482380D02*
X183910476Y-112958571D01*
X183958095Y-112863333D01*
X184053333Y-112815714D01*
X184243809Y-112815714D01*
X184339047Y-112863333D01*
X183910476Y-113434761D02*
X184005714Y-113482380D01*
X184243809Y-113482380D01*
X184339047Y-113434761D01*
X184386666Y-113339523D01*
X184386666Y-113244285D01*
X184339047Y-113149047D01*
X184243809Y-113101428D01*
X184005714Y-113101428D01*
X183910476Y-113053809D01*
X183434285Y-113482380D02*
X183434285Y-112815714D01*
X183434285Y-113006190D02*
X183386666Y-112910952D01*
X183339047Y-112863333D01*
X183243809Y-112815714D01*
X183148571Y-112815714D01*
X182862857Y-113434761D02*
X182767619Y-113482380D01*
X182577142Y-113482380D01*
X182481904Y-113434761D01*
X182434285Y-113339523D01*
X182434285Y-113291904D01*
X182481904Y-113196666D01*
X182577142Y-113149047D01*
X182720000Y-113149047D01*
X182815238Y-113101428D01*
X182862857Y-113006190D01*
X182862857Y-112958571D01*
X182815238Y-112863333D01*
X182720000Y-112815714D01*
X182577142Y-112815714D01*
X182481904Y-112863333D01*
X182005714Y-113387142D02*
X181958095Y-113434761D01*
X182005714Y-113482380D01*
X182053333Y-113434761D01*
X182005714Y-113387142D01*
X182005714Y-113482380D01*
X181100952Y-113434761D02*
X181196190Y-113482380D01*
X181386666Y-113482380D01*
X181481904Y-113434761D01*
X181529523Y-113387142D01*
X181577142Y-113291904D01*
X181577142Y-113006190D01*
X181529523Y-112910952D01*
X181481904Y-112863333D01*
X181386666Y-112815714D01*
X181196190Y-112815714D01*
X181100952Y-112863333D01*
X180529523Y-113482380D02*
X180624761Y-113434761D01*
X180672380Y-113387142D01*
X180720000Y-113291904D01*
X180720000Y-113006190D01*
X180672380Y-112910952D01*
X180624761Y-112863333D01*
X180529523Y-112815714D01*
X180386666Y-112815714D01*
X180291428Y-112863333D01*
X180243809Y-112910952D01*
X180196190Y-113006190D01*
X180196190Y-113291904D01*
X180243809Y-113387142D01*
X180291428Y-113434761D01*
X180386666Y-113482380D01*
X180529523Y-113482380D01*
X179767619Y-113482380D02*
X179767619Y-112815714D01*
X179767619Y-112910952D02*
X179720000Y-112863333D01*
X179624761Y-112815714D01*
X179481904Y-112815714D01*
X179386666Y-112863333D01*
X179339047Y-112958571D01*
X179339047Y-113482380D01*
X179339047Y-112958571D02*
X179291428Y-112863333D01*
X179196190Y-112815714D01*
X179053333Y-112815714D01*
X178958095Y-112863333D01*
X178910476Y-112958571D01*
X178910476Y-113482380D01*
X177720000Y-112434761D02*
X178577142Y-113720476D01*
X177243809Y-113387142D02*
X177196190Y-113434761D01*
X177243809Y-113482380D01*
X177291428Y-113434761D01*
X177243809Y-113387142D01*
X177243809Y-113482380D01*
X177434285Y-112530000D02*
X177339047Y-112482380D01*
X177100952Y-112482380D01*
X177005714Y-112530000D01*
X176958095Y-112625238D01*
X176958095Y-112720476D01*
X177005714Y-112815714D01*
X177053333Y-112863333D01*
X177148571Y-112910952D01*
X177196190Y-112958571D01*
X177243809Y-113053809D01*
X177243809Y-113101428D01*
X176577142Y-113434761D02*
X176481904Y-113482380D01*
X176291428Y-113482380D01*
X176196190Y-113434761D01*
X176148571Y-113339523D01*
X176148571Y-113291904D01*
X176196190Y-113196666D01*
X176291428Y-113149047D01*
X176434285Y-113149047D01*
X176529523Y-113101428D01*
X176577142Y-113006190D01*
X176577142Y-112958571D01*
X176529523Y-112863333D01*
X176434285Y-112815714D01*
X176291428Y-112815714D01*
X176196190Y-112863333D01*
X175720000Y-113482380D02*
X175720000Y-112482380D01*
X175624761Y-113101428D02*
X175339047Y-113482380D01*
X175339047Y-112815714D02*
X175720000Y-113196666D01*
X174481904Y-112815714D02*
X174481904Y-113482380D01*
X174910476Y-112815714D02*
X174910476Y-113339523D01*
X174862857Y-113434761D01*
X174767619Y-113482380D01*
X174624761Y-113482380D01*
X174529523Y-113434761D01*
X174481904Y-113387142D01*
X174005714Y-112958571D02*
X173243809Y-112958571D01*
X173243809Y-113244285D02*
X174005714Y-113244285D01*
X172243809Y-113482380D02*
X172815238Y-113482380D01*
X172529523Y-113482380D02*
X172529523Y-112482380D01*
X172624761Y-112625238D01*
X172720000Y-112720476D01*
X172815238Y-112768095D01*
X171815238Y-113482380D02*
X171815238Y-112815714D01*
X171815238Y-112910952D02*
X171767619Y-112863333D01*
X171672380Y-112815714D01*
X171529523Y-112815714D01*
X171434285Y-112863333D01*
X171386666Y-112958571D01*
X171386666Y-113482380D01*
X171386666Y-112958571D02*
X171339047Y-112863333D01*
X171243809Y-112815714D01*
X171100952Y-112815714D01*
X171005714Y-112863333D01*
X170958095Y-112958571D01*
X170958095Y-113482380D01*
X170481904Y-113482380D02*
X170481904Y-112482380D01*
X170481904Y-112863333D02*
X170386666Y-112815714D01*
X170196190Y-112815714D01*
X170100952Y-112863333D01*
X170053333Y-112910952D01*
X170005714Y-113006190D01*
X170005714Y-113291904D01*
X170053333Y-113387142D01*
X170100952Y-113434761D01*
X170196190Y-113482380D01*
X170386666Y-113482380D01*
X170481904Y-113434761D01*
X169720000Y-112815714D02*
X169339047Y-112815714D01*
X169577142Y-113482380D02*
X169577142Y-112625238D01*
X169529523Y-112530000D01*
X169434285Y-112482380D01*
X169339047Y-112482380D01*
X169005714Y-112815714D02*
X169005714Y-113815714D01*
X169005714Y-112863333D02*
X168910476Y-112815714D01*
X168720000Y-112815714D01*
X168624761Y-112863333D01*
X168577142Y-112910952D01*
X168529523Y-113006190D01*
X168529523Y-113291904D01*
X168577142Y-113387142D01*
X168624761Y-113434761D01*
X168720000Y-113482380D01*
X168910476Y-113482380D01*
X169005714Y-113434761D01*
X168100952Y-113482380D02*
X168100952Y-112815714D01*
X168100952Y-112910952D02*
X168053333Y-112863333D01*
X167958095Y-112815714D01*
X167815238Y-112815714D01*
X167720000Y-112863333D01*
X167672380Y-112958571D01*
X167672380Y-113482380D01*
X167672380Y-112958571D02*
X167624761Y-112863333D01*
X167529523Y-112815714D01*
X167386666Y-112815714D01*
X167291428Y-112863333D01*
X167243809Y-112958571D01*
X167243809Y-113482380D01*
X166815238Y-113434761D02*
X166720000Y-113482380D01*
X166529523Y-113482380D01*
X166434285Y-113434761D01*
X166386666Y-113339523D01*
X166386666Y-113291904D01*
X166434285Y-113196666D01*
X166529523Y-113149047D01*
X166672380Y-113149047D01*
X166767619Y-113101428D01*
X166815238Y-113006190D01*
X166815238Y-112958571D01*
X166767619Y-112863333D01*
X166672380Y-112815714D01*
X166529523Y-112815714D01*
X166434285Y-112863333D01*
X165958095Y-113482380D02*
X165958095Y-112815714D01*
X165958095Y-112482380D02*
X166005714Y-112530000D01*
X165958095Y-112577619D01*
X165910476Y-112530000D01*
X165958095Y-112482380D01*
X165958095Y-112577619D01*
X165481904Y-113482380D02*
X165481904Y-112815714D01*
X165481904Y-112910952D02*
X165434285Y-112863333D01*
X165339047Y-112815714D01*
X165196190Y-112815714D01*
X165100952Y-112863333D01*
X165053333Y-112958571D01*
X165053333Y-113482380D01*
X165053333Y-112958571D02*
X165005714Y-112863333D01*
X164910476Y-112815714D01*
X164767619Y-112815714D01*
X164672380Y-112863333D01*
X164624761Y-112958571D01*
X164624761Y-113482380D01*
X164148571Y-113482380D02*
X164148571Y-112815714D01*
X164148571Y-112910952D02*
X164100952Y-112863333D01*
X164005714Y-112815714D01*
X163862857Y-112815714D01*
X163767619Y-112863333D01*
X163720000Y-112958571D01*
X163720000Y-113482380D01*
X163720000Y-112958571D02*
X163672380Y-112863333D01*
X163577142Y-112815714D01*
X163434285Y-112815714D01*
X163339047Y-112863333D01*
X163291428Y-112958571D01*
X163291428Y-113482380D01*
X162672380Y-113387142D02*
X162624761Y-113434761D01*
X162672380Y-113482380D01*
X162720000Y-113434761D01*
X162672380Y-113387142D01*
X162672380Y-113482380D01*
X162862857Y-112530000D02*
X162767619Y-112482380D01*
X162529523Y-112482380D01*
X162434285Y-112530000D01*
X162386666Y-112625238D01*
X162386666Y-112720476D01*
X162434285Y-112815714D01*
X162481904Y-112863333D01*
X162577142Y-112910952D01*
X162624761Y-112958571D01*
X162672380Y-113053809D01*
X162672380Y-113101428D01*
X162005714Y-113434761D02*
X161910476Y-113482380D01*
X161720000Y-113482380D01*
X161624761Y-113434761D01*
X161577142Y-113339523D01*
X161577142Y-113291904D01*
X161624761Y-113196666D01*
X161720000Y-113149047D01*
X161862857Y-113149047D01*
X161958095Y-113101428D01*
X162005714Y-113006190D01*
X162005714Y-112958571D01*
X161958095Y-112863333D01*
X161862857Y-112815714D01*
X161720000Y-112815714D01*
X161624761Y-112863333D01*
X161148571Y-112815714D02*
X161148571Y-113482380D01*
X161148571Y-112910952D02*
X161100952Y-112863333D01*
X161005714Y-112815714D01*
X160862857Y-112815714D01*
X160767619Y-112863333D01*
X160720000Y-112958571D01*
X160720000Y-113482380D01*
X160243809Y-112958571D02*
X159481904Y-112958571D01*
X159481904Y-113244285D02*
X160243809Y-113244285D01*
M02*
