%TF.GenerationSoftware,KiCad,Pcbnew,(5.1.9)-1*%
%TF.CreationDate,2021-01-13T00:13:40+11:00*%
%TF.ProjectId,1M-30pinsimm,314d2d33-3070-4696-9e73-696d6d2e6b69,rev?*%
%TF.SameCoordinates,Original*%
%TF.FileFunction,Copper,L3,Inr*%
%TF.FilePolarity,Positive*%
%FSLAX46Y46*%
G04 Gerber Fmt 4.6, Leading zero omitted, Abs format (unit mm)*
G04 Created by KiCad (PCBNEW (5.1.9)-1) date 2021-01-13 00:13:40*
%MOMM*%
%LPD*%
G01*
G04 APERTURE LIST*
%TA.AperFunction,ComponentPad*%
%ADD10R,1.780000X3.500000*%
%TD*%
%TA.AperFunction,ViaPad*%
%ADD11C,0.800000*%
%TD*%
%TA.AperFunction,Conductor*%
%ADD12C,0.254000*%
%TD*%
%TA.AperFunction,Conductor*%
%ADD13C,0.100000*%
%TD*%
G04 APERTURE END LIST*
D10*
%TO.N,WE*%
%TO.C,B1*%
X172974000Y-125098000D03*
%TO.N,DQ5*%
X170434000Y-125098000D03*
%TO.N,DP*%
X193294000Y-125098000D03*
%TO.N,CASP*%
X190754000Y-125098000D03*
%TO.N,RAS*%
X188214000Y-125098000D03*
%TO.N,Net-(B1-Pad19)*%
X167894000Y-125098000D03*
%TO.N,+5V*%
X195834000Y-125098000D03*
%TO.N,QP*%
X185674000Y-125098000D03*
%TO.N,A8*%
X162814000Y-125098000D03*
%TO.N,DQ7*%
X183134000Y-125098000D03*
%TO.N,GND*%
X175514000Y-125098000D03*
%TO.N,A9*%
X165354000Y-125098000D03*
%TO.N,Net-(B1-Pad24)*%
X180594000Y-125098000D03*
%TO.N,DQ6*%
X178054000Y-125098000D03*
%TO.N,A5*%
X150114000Y-125098000D03*
%TO.N,A4*%
X147574000Y-125098000D03*
%TO.N,DQ2*%
X145034000Y-125098000D03*
%TO.N,DQ4*%
X160274000Y-125098000D03*
%TO.N,DQ3*%
X152654000Y-125098000D03*
%TO.N,GND*%
X142494000Y-125098000D03*
%TO.N,A7*%
X157734000Y-125098000D03*
%TO.N,A6*%
X155194000Y-125098000D03*
%TO.N,A2*%
X137414000Y-125098000D03*
%TO.N,A3*%
X139954000Y-125098000D03*
%TO.N,DQ1*%
X134874000Y-125098000D03*
%TO.N,A1*%
X132334000Y-125098000D03*
%TO.N,A0*%
X129794000Y-125098000D03*
%TO.N,DQ0*%
X127254000Y-125098000D03*
%TO.N,CAS*%
X124714000Y-125098000D03*
%TO.N,+5V*%
X122174000Y-125098000D03*
%TD*%
D11*
%TO.N,GND*%
X123190000Y-111760000D03*
%TO.N,WE*%
X149922800Y-112748300D03*
X160265200Y-112812600D03*
X187997800Y-115603700D03*
%TO.N,DQ5*%
X165353400Y-115435000D03*
%TO.N,CASP*%
X188529500Y-122036800D03*
%TO.N,+5V*%
X124728100Y-118582800D03*
X170180200Y-118142700D03*
X147354500Y-119495400D03*
%TO.N,A8*%
X167402200Y-121348200D03*
X136692400Y-118622800D03*
X157595200Y-121133900D03*
%TO.N,GND*%
X143560500Y-121087900D03*
X190725300Y-122104200D03*
X135955300Y-121373400D03*
X160665000Y-122072300D03*
X166224800Y-118790000D03*
%TO.N,A9*%
X182449000Y-121406200D03*
X173675500Y-121232500D03*
X169309900Y-121117200D03*
X137102500Y-114901400D03*
X153436400Y-115226200D03*
X161421000Y-115429500D03*
%TO.N,A5*%
X173770600Y-117545200D03*
X129718400Y-118279800D03*
X152281400Y-118081800D03*
%TO.N,A4*%
X161418400Y-118339700D03*
X144994700Y-121679700D03*
%TO.N,DQ2*%
X140191700Y-118735600D03*
%TO.N,DQ4*%
X162207700Y-116248500D03*
%TO.N,DQ3*%
X146306300Y-121480400D03*
%TO.N,A7*%
X155398300Y-118414300D03*
X133413800Y-120082000D03*
%TO.N,A6*%
X176549800Y-118258800D03*
X168926600Y-116872700D03*
X132740400Y-118318000D03*
X149329200Y-117830700D03*
%TO.N,A2*%
X175171600Y-115704400D03*
X158141000Y-114314200D03*
X129194000Y-111328500D03*
X128488200Y-122838200D03*
%TO.N,A3*%
X167704900Y-113119300D03*
X146955400Y-112314600D03*
X129687800Y-115247800D03*
X134330500Y-117229600D03*
%TO.N,DQ1*%
X134565300Y-119095300D03*
%TO.N,A1*%
X135178800Y-112265700D03*
X132133300Y-115646500D03*
X153699000Y-111651100D03*
X178437900Y-115071700D03*
%TO.N,A0*%
X132403800Y-111328500D03*
X155565700Y-111454500D03*
X181059300Y-115276100D03*
%TO.N,DQ0*%
X143234900Y-115581100D03*
X130822800Y-116397100D03*
X127286500Y-117637300D03*
%TO.N,CAS*%
X158622000Y-118857300D03*
X135469300Y-117651200D03*
X138180200Y-118077100D03*
%TD*%
D12*
%TO.N,GND*%
X128198774Y-111026602D02*
X128159000Y-111226561D01*
X128159000Y-111430439D01*
X128198774Y-111630398D01*
X128276795Y-111818756D01*
X128390063Y-111988274D01*
X128534226Y-112132437D01*
X128703744Y-112245705D01*
X128892102Y-112323726D01*
X129092061Y-112363500D01*
X129295939Y-112363500D01*
X129495898Y-112323726D01*
X129684256Y-112245705D01*
X129853774Y-112132437D01*
X129997937Y-111988274D01*
X130111205Y-111818756D01*
X130189226Y-111630398D01*
X130229000Y-111430439D01*
X130229000Y-111226561D01*
X130189226Y-111026602D01*
X130187734Y-111023000D01*
X131410066Y-111023000D01*
X131408574Y-111026602D01*
X131368800Y-111226561D01*
X131368800Y-111430439D01*
X131408574Y-111630398D01*
X131486595Y-111818756D01*
X131599863Y-111988274D01*
X131744026Y-112132437D01*
X131913544Y-112245705D01*
X132101902Y-112323726D01*
X132301861Y-112363500D01*
X132505739Y-112363500D01*
X132705698Y-112323726D01*
X132894056Y-112245705D01*
X133016694Y-112163761D01*
X134143800Y-112163761D01*
X134143800Y-112367639D01*
X134183574Y-112567598D01*
X134261595Y-112755956D01*
X134374863Y-112925474D01*
X134519026Y-113069637D01*
X134688544Y-113182905D01*
X134876902Y-113260926D01*
X135076861Y-113300700D01*
X135280739Y-113300700D01*
X135480698Y-113260926D01*
X135669056Y-113182905D01*
X135838574Y-113069637D01*
X135982737Y-112925474D01*
X136096005Y-112755956D01*
X136174026Y-112567598D01*
X136213800Y-112367639D01*
X136213800Y-112212661D01*
X145920400Y-112212661D01*
X145920400Y-112416539D01*
X145960174Y-112616498D01*
X146038195Y-112804856D01*
X146151463Y-112974374D01*
X146295626Y-113118537D01*
X146465144Y-113231805D01*
X146653502Y-113309826D01*
X146853461Y-113349600D01*
X147057339Y-113349600D01*
X147257298Y-113309826D01*
X147445656Y-113231805D01*
X147615174Y-113118537D01*
X147759337Y-112974374D01*
X147872605Y-112804856D01*
X147938256Y-112646361D01*
X148887800Y-112646361D01*
X148887800Y-112850239D01*
X148927574Y-113050198D01*
X149005595Y-113238556D01*
X149118863Y-113408074D01*
X149263026Y-113552237D01*
X149432544Y-113665505D01*
X149620902Y-113743526D01*
X149820861Y-113783300D01*
X150024739Y-113783300D01*
X150224698Y-113743526D01*
X150413056Y-113665505D01*
X150582574Y-113552237D01*
X150726737Y-113408074D01*
X150840005Y-113238556D01*
X150918026Y-113050198D01*
X150957800Y-112850239D01*
X150957800Y-112710661D01*
X159230200Y-112710661D01*
X159230200Y-112914539D01*
X159269974Y-113114498D01*
X159347995Y-113302856D01*
X159461263Y-113472374D01*
X159605426Y-113616537D01*
X159774944Y-113729805D01*
X159963302Y-113807826D01*
X160163261Y-113847600D01*
X160367139Y-113847600D01*
X160567098Y-113807826D01*
X160755456Y-113729805D01*
X160924974Y-113616537D01*
X161069137Y-113472374D01*
X161182405Y-113302856D01*
X161260426Y-113114498D01*
X161279747Y-113017361D01*
X166669900Y-113017361D01*
X166669900Y-113221239D01*
X166709674Y-113421198D01*
X166787695Y-113609556D01*
X166900963Y-113779074D01*
X167045126Y-113923237D01*
X167214644Y-114036505D01*
X167403002Y-114114526D01*
X167602961Y-114154300D01*
X167806839Y-114154300D01*
X168006798Y-114114526D01*
X168195156Y-114036505D01*
X168364674Y-113923237D01*
X168508837Y-113779074D01*
X168622105Y-113609556D01*
X168700126Y-113421198D01*
X168739900Y-113221239D01*
X168739900Y-113017361D01*
X168700126Y-112817402D01*
X168622105Y-112629044D01*
X168508837Y-112459526D01*
X168364674Y-112315363D01*
X168195156Y-112202095D01*
X168006798Y-112124074D01*
X167806839Y-112084300D01*
X167602961Y-112084300D01*
X167403002Y-112124074D01*
X167214644Y-112202095D01*
X167045126Y-112315363D01*
X166900963Y-112459526D01*
X166787695Y-112629044D01*
X166709674Y-112817402D01*
X166669900Y-113017361D01*
X161279747Y-113017361D01*
X161300200Y-112914539D01*
X161300200Y-112710661D01*
X161260426Y-112510702D01*
X161182405Y-112322344D01*
X161069137Y-112152826D01*
X160924974Y-112008663D01*
X160755456Y-111895395D01*
X160567098Y-111817374D01*
X160367139Y-111777600D01*
X160163261Y-111777600D01*
X159963302Y-111817374D01*
X159774944Y-111895395D01*
X159605426Y-112008663D01*
X159461263Y-112152826D01*
X159347995Y-112322344D01*
X159269974Y-112510702D01*
X159230200Y-112710661D01*
X150957800Y-112710661D01*
X150957800Y-112646361D01*
X150918026Y-112446402D01*
X150840005Y-112258044D01*
X150726737Y-112088526D01*
X150582574Y-111944363D01*
X150413056Y-111831095D01*
X150224698Y-111753074D01*
X150024739Y-111713300D01*
X149820861Y-111713300D01*
X149620902Y-111753074D01*
X149432544Y-111831095D01*
X149263026Y-111944363D01*
X149118863Y-112088526D01*
X149005595Y-112258044D01*
X148927574Y-112446402D01*
X148887800Y-112646361D01*
X147938256Y-112646361D01*
X147950626Y-112616498D01*
X147990400Y-112416539D01*
X147990400Y-112212661D01*
X147950626Y-112012702D01*
X147872605Y-111824344D01*
X147759337Y-111654826D01*
X147615174Y-111510663D01*
X147445656Y-111397395D01*
X147257298Y-111319374D01*
X147057339Y-111279600D01*
X146853461Y-111279600D01*
X146653502Y-111319374D01*
X146465144Y-111397395D01*
X146295626Y-111510663D01*
X146151463Y-111654826D01*
X146038195Y-111824344D01*
X145960174Y-112012702D01*
X145920400Y-112212661D01*
X136213800Y-112212661D01*
X136213800Y-112163761D01*
X136174026Y-111963802D01*
X136096005Y-111775444D01*
X135982737Y-111605926D01*
X135838574Y-111461763D01*
X135669056Y-111348495D01*
X135480698Y-111270474D01*
X135280739Y-111230700D01*
X135076861Y-111230700D01*
X134876902Y-111270474D01*
X134688544Y-111348495D01*
X134519026Y-111461763D01*
X134374863Y-111605926D01*
X134261595Y-111775444D01*
X134183574Y-111963802D01*
X134143800Y-112163761D01*
X133016694Y-112163761D01*
X133063574Y-112132437D01*
X133207737Y-111988274D01*
X133321005Y-111818756D01*
X133399026Y-111630398D01*
X133438800Y-111430439D01*
X133438800Y-111226561D01*
X133399026Y-111026602D01*
X133397534Y-111023000D01*
X152873899Y-111023000D01*
X152781795Y-111160844D01*
X152703774Y-111349202D01*
X152664000Y-111549161D01*
X152664000Y-111753039D01*
X152703774Y-111952998D01*
X152781795Y-112141356D01*
X152895063Y-112310874D01*
X153039226Y-112455037D01*
X153208744Y-112568305D01*
X153397102Y-112646326D01*
X153597061Y-112686100D01*
X153800939Y-112686100D01*
X154000898Y-112646326D01*
X154189256Y-112568305D01*
X154358774Y-112455037D01*
X154502937Y-112310874D01*
X154616205Y-112141356D01*
X154678833Y-111990160D01*
X154761763Y-112114274D01*
X154905926Y-112258437D01*
X155075444Y-112371705D01*
X155263802Y-112449726D01*
X155463761Y-112489500D01*
X155667639Y-112489500D01*
X155867598Y-112449726D01*
X156055956Y-112371705D01*
X156225474Y-112258437D01*
X156369637Y-112114274D01*
X156482905Y-111944756D01*
X156560926Y-111756398D01*
X156600700Y-111556439D01*
X156600700Y-111352561D01*
X156560926Y-111152602D01*
X156507243Y-111023000D01*
X202667001Y-111023000D01*
X202667000Y-126340000D01*
X197362072Y-126340000D01*
X197362072Y-123348000D01*
X197349812Y-123223518D01*
X197313502Y-123103820D01*
X197254537Y-122993506D01*
X197175185Y-122896815D01*
X197078494Y-122817463D01*
X196968180Y-122758498D01*
X196848482Y-122722188D01*
X196724000Y-122709928D01*
X194944000Y-122709928D01*
X194819518Y-122722188D01*
X194699820Y-122758498D01*
X194589506Y-122817463D01*
X194564000Y-122838395D01*
X194538494Y-122817463D01*
X194428180Y-122758498D01*
X194308482Y-122722188D01*
X194184000Y-122709928D01*
X192404000Y-122709928D01*
X192279518Y-122722188D01*
X192159820Y-122758498D01*
X192049506Y-122817463D01*
X192024000Y-122838395D01*
X191998494Y-122817463D01*
X191888180Y-122758498D01*
X191768482Y-122722188D01*
X191644000Y-122709928D01*
X189864000Y-122709928D01*
X189739518Y-122722188D01*
X189619820Y-122758498D01*
X189509506Y-122817463D01*
X189484000Y-122838395D01*
X189458494Y-122817463D01*
X189348180Y-122758498D01*
X189289357Y-122740654D01*
X189333437Y-122696574D01*
X189446705Y-122527056D01*
X189524726Y-122338698D01*
X189564500Y-122138739D01*
X189564500Y-121934861D01*
X189524726Y-121734902D01*
X189446705Y-121546544D01*
X189333437Y-121377026D01*
X189189274Y-121232863D01*
X189019756Y-121119595D01*
X188831398Y-121041574D01*
X188631439Y-121001800D01*
X188427561Y-121001800D01*
X188227602Y-121041574D01*
X188039244Y-121119595D01*
X187869726Y-121232863D01*
X187725563Y-121377026D01*
X187612295Y-121546544D01*
X187534274Y-121734902D01*
X187494500Y-121934861D01*
X187494500Y-122138739D01*
X187534274Y-122338698D01*
X187612295Y-122527056D01*
X187725563Y-122696574D01*
X187738917Y-122709928D01*
X187324000Y-122709928D01*
X187199518Y-122722188D01*
X187079820Y-122758498D01*
X186969506Y-122817463D01*
X186944000Y-122838395D01*
X186918494Y-122817463D01*
X186808180Y-122758498D01*
X186688482Y-122722188D01*
X186564000Y-122709928D01*
X184784000Y-122709928D01*
X184659518Y-122722188D01*
X184539820Y-122758498D01*
X184429506Y-122817463D01*
X184404000Y-122838395D01*
X184378494Y-122817463D01*
X184268180Y-122758498D01*
X184148482Y-122722188D01*
X184024000Y-122709928D01*
X182244000Y-122709928D01*
X182119518Y-122722188D01*
X181999820Y-122758498D01*
X181889506Y-122817463D01*
X181864000Y-122838395D01*
X181838494Y-122817463D01*
X181728180Y-122758498D01*
X181608482Y-122722188D01*
X181484000Y-122709928D01*
X179704000Y-122709928D01*
X179579518Y-122722188D01*
X179459820Y-122758498D01*
X179349506Y-122817463D01*
X179324000Y-122838395D01*
X179298494Y-122817463D01*
X179188180Y-122758498D01*
X179068482Y-122722188D01*
X178944000Y-122709928D01*
X177164000Y-122709928D01*
X177039518Y-122722188D01*
X176919820Y-122758498D01*
X176809506Y-122817463D01*
X176784000Y-122838395D01*
X176758494Y-122817463D01*
X176648180Y-122758498D01*
X176528482Y-122722188D01*
X176404000Y-122709928D01*
X175799750Y-122713000D01*
X175641000Y-122871750D01*
X175641000Y-124971000D01*
X175661000Y-124971000D01*
X175661000Y-125225000D01*
X175641000Y-125225000D01*
X175641000Y-125245000D01*
X175387000Y-125245000D01*
X175387000Y-125225000D01*
X175367000Y-125225000D01*
X175367000Y-124971000D01*
X175387000Y-124971000D01*
X175387000Y-122871750D01*
X175228250Y-122713000D01*
X174624000Y-122709928D01*
X174499518Y-122722188D01*
X174379820Y-122758498D01*
X174269506Y-122817463D01*
X174244000Y-122838395D01*
X174218494Y-122817463D01*
X174108180Y-122758498D01*
X173988482Y-122722188D01*
X173864000Y-122709928D01*
X172084000Y-122709928D01*
X171959518Y-122722188D01*
X171839820Y-122758498D01*
X171729506Y-122817463D01*
X171704000Y-122838395D01*
X171678494Y-122817463D01*
X171568180Y-122758498D01*
X171448482Y-122722188D01*
X171324000Y-122709928D01*
X169544000Y-122709928D01*
X169419518Y-122722188D01*
X169299820Y-122758498D01*
X169189506Y-122817463D01*
X169164000Y-122838395D01*
X169138494Y-122817463D01*
X169028180Y-122758498D01*
X168908482Y-122722188D01*
X168784000Y-122709928D01*
X167004000Y-122709928D01*
X166879518Y-122722188D01*
X166759820Y-122758498D01*
X166649506Y-122817463D01*
X166624000Y-122838395D01*
X166598494Y-122817463D01*
X166488180Y-122758498D01*
X166368482Y-122722188D01*
X166244000Y-122709928D01*
X164464000Y-122709928D01*
X164339518Y-122722188D01*
X164219820Y-122758498D01*
X164109506Y-122817463D01*
X164084000Y-122838395D01*
X164058494Y-122817463D01*
X163948180Y-122758498D01*
X163828482Y-122722188D01*
X163704000Y-122709928D01*
X161924000Y-122709928D01*
X161799518Y-122722188D01*
X161679820Y-122758498D01*
X161569506Y-122817463D01*
X161544000Y-122838395D01*
X161518494Y-122817463D01*
X161408180Y-122758498D01*
X161288482Y-122722188D01*
X161164000Y-122709928D01*
X159384000Y-122709928D01*
X159259518Y-122722188D01*
X159139820Y-122758498D01*
X159029506Y-122817463D01*
X159004000Y-122838395D01*
X158978494Y-122817463D01*
X158868180Y-122758498D01*
X158748482Y-122722188D01*
X158624000Y-122709928D01*
X156844000Y-122709928D01*
X156719518Y-122722188D01*
X156599820Y-122758498D01*
X156489506Y-122817463D01*
X156464000Y-122838395D01*
X156438494Y-122817463D01*
X156328180Y-122758498D01*
X156208482Y-122722188D01*
X156084000Y-122709928D01*
X154304000Y-122709928D01*
X154179518Y-122722188D01*
X154059820Y-122758498D01*
X153949506Y-122817463D01*
X153924000Y-122838395D01*
X153898494Y-122817463D01*
X153788180Y-122758498D01*
X153668482Y-122722188D01*
X153544000Y-122709928D01*
X151764000Y-122709928D01*
X151639518Y-122722188D01*
X151519820Y-122758498D01*
X151409506Y-122817463D01*
X151384000Y-122838395D01*
X151358494Y-122817463D01*
X151248180Y-122758498D01*
X151128482Y-122722188D01*
X151004000Y-122709928D01*
X149224000Y-122709928D01*
X149099518Y-122722188D01*
X148979820Y-122758498D01*
X148869506Y-122817463D01*
X148844000Y-122838395D01*
X148818494Y-122817463D01*
X148708180Y-122758498D01*
X148588482Y-122722188D01*
X148464000Y-122709928D01*
X146684000Y-122709928D01*
X146559518Y-122722188D01*
X146439820Y-122758498D01*
X146329506Y-122817463D01*
X146304000Y-122838395D01*
X146278494Y-122817463D01*
X146168180Y-122758498D01*
X146048482Y-122722188D01*
X145924000Y-122709928D01*
X145120630Y-122709928D01*
X145296598Y-122674926D01*
X145484956Y-122596905D01*
X145654474Y-122483637D01*
X145770762Y-122367349D01*
X145816044Y-122397605D01*
X146004402Y-122475626D01*
X146204361Y-122515400D01*
X146408239Y-122515400D01*
X146608198Y-122475626D01*
X146796556Y-122397605D01*
X146966074Y-122284337D01*
X147110237Y-122140174D01*
X147223505Y-121970656D01*
X147301526Y-121782298D01*
X147341300Y-121582339D01*
X147341300Y-121378461D01*
X147301526Y-121178502D01*
X147240827Y-121031961D01*
X156560200Y-121031961D01*
X156560200Y-121235839D01*
X156599974Y-121435798D01*
X156677995Y-121624156D01*
X156791263Y-121793674D01*
X156935426Y-121937837D01*
X157104944Y-122051105D01*
X157293302Y-122129126D01*
X157493261Y-122168900D01*
X157697139Y-122168900D01*
X157897098Y-122129126D01*
X158085456Y-122051105D01*
X158254974Y-121937837D01*
X158399137Y-121793674D01*
X158512405Y-121624156D01*
X158590426Y-121435798D01*
X158628126Y-121246261D01*
X166367200Y-121246261D01*
X166367200Y-121450139D01*
X166406974Y-121650098D01*
X166484995Y-121838456D01*
X166598263Y-122007974D01*
X166742426Y-122152137D01*
X166911944Y-122265405D01*
X167100302Y-122343426D01*
X167300261Y-122383200D01*
X167504139Y-122383200D01*
X167704098Y-122343426D01*
X167892456Y-122265405D01*
X168061974Y-122152137D01*
X168206137Y-122007974D01*
X168319405Y-121838456D01*
X168397426Y-121650098D01*
X168402877Y-121622694D01*
X168505963Y-121776974D01*
X168650126Y-121921137D01*
X168819644Y-122034405D01*
X169008002Y-122112426D01*
X169207961Y-122152200D01*
X169411839Y-122152200D01*
X169611798Y-122112426D01*
X169800156Y-122034405D01*
X169969674Y-121921137D01*
X170113837Y-121776974D01*
X170227105Y-121607456D01*
X170305126Y-121419098D01*
X170344900Y-121219139D01*
X170344900Y-121130561D01*
X172640500Y-121130561D01*
X172640500Y-121334439D01*
X172680274Y-121534398D01*
X172758295Y-121722756D01*
X172871563Y-121892274D01*
X173015726Y-122036437D01*
X173185244Y-122149705D01*
X173373602Y-122227726D01*
X173573561Y-122267500D01*
X173777439Y-122267500D01*
X173977398Y-122227726D01*
X174165756Y-122149705D01*
X174335274Y-122036437D01*
X174479437Y-121892274D01*
X174592705Y-121722756D01*
X174670726Y-121534398D01*
X174710500Y-121334439D01*
X174710500Y-121304261D01*
X181414000Y-121304261D01*
X181414000Y-121508139D01*
X181453774Y-121708098D01*
X181531795Y-121896456D01*
X181645063Y-122065974D01*
X181789226Y-122210137D01*
X181958744Y-122323405D01*
X182147102Y-122401426D01*
X182347061Y-122441200D01*
X182550939Y-122441200D01*
X182750898Y-122401426D01*
X182939256Y-122323405D01*
X183108774Y-122210137D01*
X183252937Y-122065974D01*
X183366205Y-121896456D01*
X183444226Y-121708098D01*
X183484000Y-121508139D01*
X183484000Y-121304261D01*
X183444226Y-121104302D01*
X183366205Y-120915944D01*
X183252937Y-120746426D01*
X183108774Y-120602263D01*
X182939256Y-120488995D01*
X182750898Y-120410974D01*
X182550939Y-120371200D01*
X182347061Y-120371200D01*
X182147102Y-120410974D01*
X181958744Y-120488995D01*
X181789226Y-120602263D01*
X181645063Y-120746426D01*
X181531795Y-120915944D01*
X181453774Y-121104302D01*
X181414000Y-121304261D01*
X174710500Y-121304261D01*
X174710500Y-121130561D01*
X174670726Y-120930602D01*
X174592705Y-120742244D01*
X174479437Y-120572726D01*
X174335274Y-120428563D01*
X174165756Y-120315295D01*
X173977398Y-120237274D01*
X173777439Y-120197500D01*
X173573561Y-120197500D01*
X173373602Y-120237274D01*
X173185244Y-120315295D01*
X173015726Y-120428563D01*
X172871563Y-120572726D01*
X172758295Y-120742244D01*
X172680274Y-120930602D01*
X172640500Y-121130561D01*
X170344900Y-121130561D01*
X170344900Y-121015261D01*
X170305126Y-120815302D01*
X170227105Y-120626944D01*
X170113837Y-120457426D01*
X169969674Y-120313263D01*
X169800156Y-120199995D01*
X169611798Y-120121974D01*
X169411839Y-120082200D01*
X169207961Y-120082200D01*
X169008002Y-120121974D01*
X168819644Y-120199995D01*
X168650126Y-120313263D01*
X168505963Y-120457426D01*
X168392695Y-120626944D01*
X168314674Y-120815302D01*
X168309223Y-120842706D01*
X168206137Y-120688426D01*
X168061974Y-120544263D01*
X167892456Y-120430995D01*
X167704098Y-120352974D01*
X167504139Y-120313200D01*
X167300261Y-120313200D01*
X167100302Y-120352974D01*
X166911944Y-120430995D01*
X166742426Y-120544263D01*
X166598263Y-120688426D01*
X166484995Y-120857944D01*
X166406974Y-121046302D01*
X166367200Y-121246261D01*
X158628126Y-121246261D01*
X158630200Y-121235839D01*
X158630200Y-121031961D01*
X158590426Y-120832002D01*
X158512405Y-120643644D01*
X158399137Y-120474126D01*
X158254974Y-120329963D01*
X158085456Y-120216695D01*
X157897098Y-120138674D01*
X157697139Y-120098900D01*
X157493261Y-120098900D01*
X157293302Y-120138674D01*
X157104944Y-120216695D01*
X156935426Y-120329963D01*
X156791263Y-120474126D01*
X156677995Y-120643644D01*
X156599974Y-120832002D01*
X156560200Y-121031961D01*
X147240827Y-121031961D01*
X147223505Y-120990144D01*
X147110237Y-120820626D01*
X146966074Y-120676463D01*
X146796556Y-120563195D01*
X146608198Y-120485174D01*
X146408239Y-120445400D01*
X146204361Y-120445400D01*
X146004402Y-120485174D01*
X145816044Y-120563195D01*
X145646526Y-120676463D01*
X145530238Y-120792751D01*
X145484956Y-120762495D01*
X145296598Y-120684474D01*
X145096639Y-120644700D01*
X144892761Y-120644700D01*
X144692802Y-120684474D01*
X144504444Y-120762495D01*
X144334926Y-120875763D01*
X144190763Y-121019926D01*
X144077495Y-121189444D01*
X143999474Y-121377802D01*
X143959700Y-121577761D01*
X143959700Y-121781639D01*
X143999474Y-121981598D01*
X144077495Y-122169956D01*
X144190763Y-122339474D01*
X144334926Y-122483637D01*
X144504444Y-122596905D01*
X144692802Y-122674926D01*
X144868770Y-122709928D01*
X144144000Y-122709928D01*
X144019518Y-122722188D01*
X143899820Y-122758498D01*
X143789506Y-122817463D01*
X143764000Y-122838395D01*
X143738494Y-122817463D01*
X143628180Y-122758498D01*
X143508482Y-122722188D01*
X143384000Y-122709928D01*
X142779750Y-122713000D01*
X142621000Y-122871750D01*
X142621000Y-124971000D01*
X142641000Y-124971000D01*
X142641000Y-125225000D01*
X142621000Y-125225000D01*
X142621000Y-125245000D01*
X142367000Y-125245000D01*
X142367000Y-125225000D01*
X142347000Y-125225000D01*
X142347000Y-124971000D01*
X142367000Y-124971000D01*
X142367000Y-122871750D01*
X142208250Y-122713000D01*
X141604000Y-122709928D01*
X141479518Y-122722188D01*
X141359820Y-122758498D01*
X141249506Y-122817463D01*
X141224000Y-122838395D01*
X141198494Y-122817463D01*
X141088180Y-122758498D01*
X140968482Y-122722188D01*
X140844000Y-122709928D01*
X139064000Y-122709928D01*
X138939518Y-122722188D01*
X138819820Y-122758498D01*
X138709506Y-122817463D01*
X138684000Y-122838395D01*
X138658494Y-122817463D01*
X138548180Y-122758498D01*
X138428482Y-122722188D01*
X138304000Y-122709928D01*
X136524000Y-122709928D01*
X136399518Y-122722188D01*
X136279820Y-122758498D01*
X136169506Y-122817463D01*
X136144000Y-122838395D01*
X136118494Y-122817463D01*
X136008180Y-122758498D01*
X135888482Y-122722188D01*
X135764000Y-122709928D01*
X133984000Y-122709928D01*
X133859518Y-122722188D01*
X133739820Y-122758498D01*
X133629506Y-122817463D01*
X133604000Y-122838395D01*
X133578494Y-122817463D01*
X133468180Y-122758498D01*
X133348482Y-122722188D01*
X133224000Y-122709928D01*
X131444000Y-122709928D01*
X131319518Y-122722188D01*
X131199820Y-122758498D01*
X131089506Y-122817463D01*
X131064000Y-122838395D01*
X131038494Y-122817463D01*
X130928180Y-122758498D01*
X130808482Y-122722188D01*
X130684000Y-122709928D01*
X129517962Y-122709928D01*
X129483426Y-122536302D01*
X129405405Y-122347944D01*
X129292137Y-122178426D01*
X129147974Y-122034263D01*
X128978456Y-121920995D01*
X128790098Y-121842974D01*
X128590139Y-121803200D01*
X128386261Y-121803200D01*
X128186302Y-121842974D01*
X127997944Y-121920995D01*
X127828426Y-122034263D01*
X127684263Y-122178426D01*
X127570995Y-122347944D01*
X127492974Y-122536302D01*
X127458438Y-122709928D01*
X126364000Y-122709928D01*
X126239518Y-122722188D01*
X126119820Y-122758498D01*
X126009506Y-122817463D01*
X125984000Y-122838395D01*
X125958494Y-122817463D01*
X125848180Y-122758498D01*
X125728482Y-122722188D01*
X125604000Y-122709928D01*
X123824000Y-122709928D01*
X123699518Y-122722188D01*
X123579820Y-122758498D01*
X123469506Y-122817463D01*
X123444000Y-122838395D01*
X123418494Y-122817463D01*
X123308180Y-122758498D01*
X123188482Y-122722188D01*
X123064000Y-122709928D01*
X121284000Y-122709928D01*
X121159518Y-122722188D01*
X121039820Y-122758498D01*
X120929506Y-122817463D01*
X120832815Y-122896815D01*
X120753463Y-122993506D01*
X120694498Y-123103820D01*
X120658188Y-123223518D01*
X120645928Y-123348000D01*
X120645928Y-126340000D01*
X116992000Y-126340000D01*
X116992000Y-122649581D01*
X116989146Y-122620603D01*
X116989234Y-122607997D01*
X116988334Y-122598826D01*
X116946882Y-122204422D01*
X116934855Y-122145829D01*
X116923645Y-122087065D01*
X116920981Y-122078243D01*
X116803710Y-121699401D01*
X116780526Y-121644250D01*
X116758120Y-121588792D01*
X116753794Y-121580655D01*
X116565172Y-121231807D01*
X116531717Y-121182208D01*
X116498968Y-121132162D01*
X116493144Y-121125021D01*
X116240356Y-120819453D01*
X116197923Y-120777315D01*
X116156057Y-120734562D01*
X116148962Y-120728694D01*
X116148957Y-120728689D01*
X116148952Y-120728685D01*
X115841631Y-120478041D01*
X115791838Y-120444959D01*
X115742449Y-120411141D01*
X115734343Y-120406759D01*
X115384187Y-120220577D01*
X115328867Y-120197776D01*
X115273899Y-120174216D01*
X115265099Y-120171492D01*
X115265093Y-120171490D01*
X114960000Y-120079378D01*
X114960000Y-116619872D01*
X115494000Y-116619872D01*
X115494000Y-117060128D01*
X115579890Y-117491925D01*
X115748369Y-117898669D01*
X115992962Y-118264729D01*
X116304271Y-118576038D01*
X116670331Y-118820631D01*
X117077075Y-118989110D01*
X117508872Y-119075000D01*
X117949128Y-119075000D01*
X118380925Y-118989110D01*
X118787669Y-118820631D01*
X119153729Y-118576038D01*
X119248906Y-118480861D01*
X123693100Y-118480861D01*
X123693100Y-118684739D01*
X123732874Y-118884698D01*
X123810895Y-119073056D01*
X123924163Y-119242574D01*
X124068326Y-119386737D01*
X124237844Y-119500005D01*
X124426202Y-119578026D01*
X124626161Y-119617800D01*
X124830039Y-119617800D01*
X125029998Y-119578026D01*
X125218356Y-119500005D01*
X125387874Y-119386737D01*
X125532037Y-119242574D01*
X125645305Y-119073056D01*
X125723326Y-118884698D01*
X125763100Y-118684739D01*
X125763100Y-118480861D01*
X125723326Y-118280902D01*
X125645305Y-118092544D01*
X125532037Y-117923026D01*
X125387874Y-117778863D01*
X125218356Y-117665595D01*
X125029998Y-117587574D01*
X124830039Y-117547800D01*
X124626161Y-117547800D01*
X124426202Y-117587574D01*
X124237844Y-117665595D01*
X124068326Y-117778863D01*
X123924163Y-117923026D01*
X123810895Y-118092544D01*
X123732874Y-118280902D01*
X123693100Y-118480861D01*
X119248906Y-118480861D01*
X119465038Y-118264729D01*
X119709631Y-117898669D01*
X119860118Y-117535361D01*
X126251500Y-117535361D01*
X126251500Y-117739239D01*
X126291274Y-117939198D01*
X126369295Y-118127556D01*
X126482563Y-118297074D01*
X126626726Y-118441237D01*
X126796244Y-118554505D01*
X126984602Y-118632526D01*
X127184561Y-118672300D01*
X127388439Y-118672300D01*
X127588398Y-118632526D01*
X127776756Y-118554505D01*
X127946274Y-118441237D01*
X128090437Y-118297074D01*
X128170092Y-118177861D01*
X128683400Y-118177861D01*
X128683400Y-118381739D01*
X128723174Y-118581698D01*
X128801195Y-118770056D01*
X128914463Y-118939574D01*
X129058626Y-119083737D01*
X129228144Y-119197005D01*
X129416502Y-119275026D01*
X129616461Y-119314800D01*
X129820339Y-119314800D01*
X130020298Y-119275026D01*
X130208656Y-119197005D01*
X130378174Y-119083737D01*
X130522337Y-118939574D01*
X130635605Y-118770056D01*
X130713626Y-118581698D01*
X130753400Y-118381739D01*
X130753400Y-118216061D01*
X131705400Y-118216061D01*
X131705400Y-118419939D01*
X131745174Y-118619898D01*
X131823195Y-118808256D01*
X131936463Y-118977774D01*
X132080626Y-119121937D01*
X132250144Y-119235205D01*
X132438502Y-119313226D01*
X132638461Y-119353000D01*
X132679089Y-119353000D01*
X132609863Y-119422226D01*
X132496595Y-119591744D01*
X132418574Y-119780102D01*
X132378800Y-119980061D01*
X132378800Y-120183939D01*
X132418574Y-120383898D01*
X132496595Y-120572256D01*
X132609863Y-120741774D01*
X132754026Y-120885937D01*
X132923544Y-120999205D01*
X133111902Y-121077226D01*
X133311861Y-121117000D01*
X133515739Y-121117000D01*
X133715698Y-121077226D01*
X133904056Y-120999205D01*
X134073574Y-120885937D01*
X134217737Y-120741774D01*
X134331005Y-120572256D01*
X134409026Y-120383898D01*
X134448800Y-120183939D01*
X134448800Y-120127404D01*
X134463361Y-120130300D01*
X134667239Y-120130300D01*
X134867198Y-120090526D01*
X135055556Y-120012505D01*
X135225074Y-119899237D01*
X135369237Y-119755074D01*
X135482505Y-119585556D01*
X135560526Y-119397198D01*
X135600300Y-119197239D01*
X135600300Y-118993361D01*
X135560526Y-118793402D01*
X135516121Y-118686200D01*
X135571239Y-118686200D01*
X135657400Y-118669062D01*
X135657400Y-118724739D01*
X135697174Y-118924698D01*
X135775195Y-119113056D01*
X135888463Y-119282574D01*
X136032626Y-119426737D01*
X136202144Y-119540005D01*
X136390502Y-119618026D01*
X136590461Y-119657800D01*
X136794339Y-119657800D01*
X136994298Y-119618026D01*
X137182656Y-119540005D01*
X137352174Y-119426737D01*
X137496337Y-119282574D01*
X137609605Y-119113056D01*
X137665546Y-118978003D01*
X137689944Y-118994305D01*
X137878302Y-119072326D01*
X138078261Y-119112100D01*
X138282139Y-119112100D01*
X138482098Y-119072326D01*
X138670456Y-118994305D01*
X138839974Y-118881037D01*
X138984137Y-118736874D01*
X139053101Y-118633661D01*
X139156700Y-118633661D01*
X139156700Y-118837539D01*
X139196474Y-119037498D01*
X139274495Y-119225856D01*
X139387763Y-119395374D01*
X139531926Y-119539537D01*
X139701444Y-119652805D01*
X139889802Y-119730826D01*
X140089761Y-119770600D01*
X140293639Y-119770600D01*
X140493598Y-119730826D01*
X140681956Y-119652805D01*
X140851474Y-119539537D01*
X140995637Y-119395374D01*
X140996915Y-119393461D01*
X146319500Y-119393461D01*
X146319500Y-119597339D01*
X146359274Y-119797298D01*
X146437295Y-119985656D01*
X146550563Y-120155174D01*
X146694726Y-120299337D01*
X146864244Y-120412605D01*
X147052602Y-120490626D01*
X147252561Y-120530400D01*
X147456439Y-120530400D01*
X147656398Y-120490626D01*
X147844756Y-120412605D01*
X148014274Y-120299337D01*
X148158437Y-120155174D01*
X148271705Y-119985656D01*
X148349726Y-119797298D01*
X148389500Y-119597339D01*
X148389500Y-119393461D01*
X148349726Y-119193502D01*
X148271705Y-119005144D01*
X148158437Y-118835626D01*
X148014274Y-118691463D01*
X147844756Y-118578195D01*
X147656398Y-118500174D01*
X147456439Y-118460400D01*
X147252561Y-118460400D01*
X147052602Y-118500174D01*
X146864244Y-118578195D01*
X146694726Y-118691463D01*
X146550563Y-118835626D01*
X146437295Y-119005144D01*
X146359274Y-119193502D01*
X146319500Y-119393461D01*
X140996915Y-119393461D01*
X141108905Y-119225856D01*
X141186926Y-119037498D01*
X141226700Y-118837539D01*
X141226700Y-118633661D01*
X141186926Y-118433702D01*
X141108905Y-118245344D01*
X140995637Y-118075826D01*
X140851474Y-117931663D01*
X140681956Y-117818395D01*
X140493598Y-117740374D01*
X140435216Y-117728761D01*
X148294200Y-117728761D01*
X148294200Y-117932639D01*
X148333974Y-118132598D01*
X148411995Y-118320956D01*
X148525263Y-118490474D01*
X148669426Y-118634637D01*
X148838944Y-118747905D01*
X149027302Y-118825926D01*
X149227261Y-118865700D01*
X149431139Y-118865700D01*
X149631098Y-118825926D01*
X149819456Y-118747905D01*
X149988974Y-118634637D01*
X150133137Y-118490474D01*
X150246405Y-118320956D01*
X150324426Y-118132598D01*
X150354807Y-117979861D01*
X151246400Y-117979861D01*
X151246400Y-118183739D01*
X151286174Y-118383698D01*
X151364195Y-118572056D01*
X151477463Y-118741574D01*
X151621626Y-118885737D01*
X151791144Y-118999005D01*
X151979502Y-119077026D01*
X152179461Y-119116800D01*
X152383339Y-119116800D01*
X152583298Y-119077026D01*
X152771656Y-118999005D01*
X152941174Y-118885737D01*
X153085337Y-118741574D01*
X153198605Y-118572056D01*
X153276626Y-118383698D01*
X153290815Y-118312361D01*
X154363300Y-118312361D01*
X154363300Y-118516239D01*
X154403074Y-118716198D01*
X154481095Y-118904556D01*
X154594363Y-119074074D01*
X154738526Y-119218237D01*
X154908044Y-119331505D01*
X155096402Y-119409526D01*
X155296361Y-119449300D01*
X155500239Y-119449300D01*
X155700198Y-119409526D01*
X155888556Y-119331505D01*
X156058074Y-119218237D01*
X156202237Y-119074074D01*
X156315505Y-118904556D01*
X156377304Y-118755361D01*
X157587000Y-118755361D01*
X157587000Y-118959239D01*
X157626774Y-119159198D01*
X157704795Y-119347556D01*
X157818063Y-119517074D01*
X157962226Y-119661237D01*
X158131744Y-119774505D01*
X158320102Y-119852526D01*
X158520061Y-119892300D01*
X158723939Y-119892300D01*
X158923898Y-119852526D01*
X159112256Y-119774505D01*
X159281774Y-119661237D01*
X159425937Y-119517074D01*
X159539205Y-119347556D01*
X159617226Y-119159198D01*
X159657000Y-118959239D01*
X159657000Y-118755361D01*
X159617226Y-118555402D01*
X159539205Y-118367044D01*
X159452822Y-118237761D01*
X160383400Y-118237761D01*
X160383400Y-118441639D01*
X160423174Y-118641598D01*
X160501195Y-118829956D01*
X160614463Y-118999474D01*
X160758626Y-119143637D01*
X160928144Y-119256905D01*
X161116502Y-119334926D01*
X161316461Y-119374700D01*
X161520339Y-119374700D01*
X161720298Y-119334926D01*
X161908656Y-119256905D01*
X162078174Y-119143637D01*
X162222337Y-118999474D01*
X162335605Y-118829956D01*
X162413626Y-118641598D01*
X162453400Y-118441639D01*
X162453400Y-118237761D01*
X162413626Y-118037802D01*
X162335605Y-117849444D01*
X162222337Y-117679926D01*
X162078174Y-117535763D01*
X161908656Y-117422495D01*
X161720298Y-117344474D01*
X161520339Y-117304700D01*
X161316461Y-117304700D01*
X161116502Y-117344474D01*
X160928144Y-117422495D01*
X160758626Y-117535763D01*
X160614463Y-117679926D01*
X160501195Y-117849444D01*
X160423174Y-118037802D01*
X160383400Y-118237761D01*
X159452822Y-118237761D01*
X159425937Y-118197526D01*
X159281774Y-118053363D01*
X159112256Y-117940095D01*
X158923898Y-117862074D01*
X158723939Y-117822300D01*
X158520061Y-117822300D01*
X158320102Y-117862074D01*
X158131744Y-117940095D01*
X157962226Y-118053363D01*
X157818063Y-118197526D01*
X157704795Y-118367044D01*
X157626774Y-118555402D01*
X157587000Y-118755361D01*
X156377304Y-118755361D01*
X156393526Y-118716198D01*
X156433300Y-118516239D01*
X156433300Y-118312361D01*
X156393526Y-118112402D01*
X156315505Y-117924044D01*
X156202237Y-117754526D01*
X156058074Y-117610363D01*
X155888556Y-117497095D01*
X155700198Y-117419074D01*
X155500239Y-117379300D01*
X155296361Y-117379300D01*
X155096402Y-117419074D01*
X154908044Y-117497095D01*
X154738526Y-117610363D01*
X154594363Y-117754526D01*
X154481095Y-117924044D01*
X154403074Y-118112402D01*
X154363300Y-118312361D01*
X153290815Y-118312361D01*
X153316400Y-118183739D01*
X153316400Y-117979861D01*
X153276626Y-117779902D01*
X153198605Y-117591544D01*
X153085337Y-117422026D01*
X152941174Y-117277863D01*
X152771656Y-117164595D01*
X152583298Y-117086574D01*
X152383339Y-117046800D01*
X152179461Y-117046800D01*
X151979502Y-117086574D01*
X151791144Y-117164595D01*
X151621626Y-117277863D01*
X151477463Y-117422026D01*
X151364195Y-117591544D01*
X151286174Y-117779902D01*
X151246400Y-117979861D01*
X150354807Y-117979861D01*
X150364200Y-117932639D01*
X150364200Y-117728761D01*
X150324426Y-117528802D01*
X150246405Y-117340444D01*
X150133137Y-117170926D01*
X149988974Y-117026763D01*
X149819456Y-116913495D01*
X149631098Y-116835474D01*
X149431139Y-116795700D01*
X149227261Y-116795700D01*
X149027302Y-116835474D01*
X148838944Y-116913495D01*
X148669426Y-117026763D01*
X148525263Y-117170926D01*
X148411995Y-117340444D01*
X148333974Y-117528802D01*
X148294200Y-117728761D01*
X140435216Y-117728761D01*
X140293639Y-117700600D01*
X140089761Y-117700600D01*
X139889802Y-117740374D01*
X139701444Y-117818395D01*
X139531926Y-117931663D01*
X139387763Y-118075826D01*
X139274495Y-118245344D01*
X139196474Y-118433702D01*
X139156700Y-118633661D01*
X139053101Y-118633661D01*
X139097405Y-118567356D01*
X139175426Y-118378998D01*
X139215200Y-118179039D01*
X139215200Y-117975161D01*
X139175426Y-117775202D01*
X139097405Y-117586844D01*
X138984137Y-117417326D01*
X138839974Y-117273163D01*
X138670456Y-117159895D01*
X138482098Y-117081874D01*
X138282139Y-117042100D01*
X138078261Y-117042100D01*
X137878302Y-117081874D01*
X137689944Y-117159895D01*
X137520426Y-117273163D01*
X137376263Y-117417326D01*
X137262995Y-117586844D01*
X137207054Y-117721897D01*
X137182656Y-117705595D01*
X136994298Y-117627574D01*
X136794339Y-117587800D01*
X136590461Y-117587800D01*
X136504300Y-117604938D01*
X136504300Y-117549261D01*
X136464526Y-117349302D01*
X136386505Y-117160944D01*
X136273237Y-116991426D01*
X136129074Y-116847263D01*
X135959556Y-116733995D01*
X135771198Y-116655974D01*
X135571239Y-116616200D01*
X135367361Y-116616200D01*
X135189113Y-116651655D01*
X135134437Y-116569826D01*
X134990274Y-116425663D01*
X134820756Y-116312395D01*
X134632398Y-116234374D01*
X134432439Y-116194600D01*
X134228561Y-116194600D01*
X134028602Y-116234374D01*
X133840244Y-116312395D01*
X133670726Y-116425663D01*
X133526563Y-116569826D01*
X133413295Y-116739344D01*
X133335274Y-116927702D01*
X133295500Y-117127661D01*
X133295500Y-117331539D01*
X133321327Y-117461379D01*
X133230656Y-117400795D01*
X133042298Y-117322774D01*
X132842339Y-117283000D01*
X132638461Y-117283000D01*
X132438502Y-117322774D01*
X132250144Y-117400795D01*
X132080626Y-117514063D01*
X131936463Y-117658226D01*
X131823195Y-117827744D01*
X131745174Y-118016102D01*
X131705400Y-118216061D01*
X130753400Y-118216061D01*
X130753400Y-118177861D01*
X130713626Y-117977902D01*
X130635605Y-117789544D01*
X130522337Y-117620026D01*
X130378174Y-117475863D01*
X130208656Y-117362595D01*
X130020298Y-117284574D01*
X129820339Y-117244800D01*
X129616461Y-117244800D01*
X129416502Y-117284574D01*
X129228144Y-117362595D01*
X129058626Y-117475863D01*
X128914463Y-117620026D01*
X128801195Y-117789544D01*
X128723174Y-117977902D01*
X128683400Y-118177861D01*
X128170092Y-118177861D01*
X128203705Y-118127556D01*
X128281726Y-117939198D01*
X128321500Y-117739239D01*
X128321500Y-117535361D01*
X128281726Y-117335402D01*
X128203705Y-117147044D01*
X128090437Y-116977526D01*
X127946274Y-116833363D01*
X127776756Y-116720095D01*
X127588398Y-116642074D01*
X127388439Y-116602300D01*
X127184561Y-116602300D01*
X126984602Y-116642074D01*
X126796244Y-116720095D01*
X126626726Y-116833363D01*
X126482563Y-116977526D01*
X126369295Y-117147044D01*
X126291274Y-117335402D01*
X126251500Y-117535361D01*
X119860118Y-117535361D01*
X119878110Y-117491925D01*
X119964000Y-117060128D01*
X119964000Y-116619872D01*
X119878110Y-116188075D01*
X119709631Y-115781331D01*
X119465038Y-115415271D01*
X119195628Y-115145861D01*
X128652800Y-115145861D01*
X128652800Y-115349739D01*
X128692574Y-115549698D01*
X128770595Y-115738056D01*
X128883863Y-115907574D01*
X129028026Y-116051737D01*
X129197544Y-116165005D01*
X129385902Y-116243026D01*
X129585861Y-116282800D01*
X129789739Y-116282800D01*
X129790280Y-116282692D01*
X129787800Y-116295161D01*
X129787800Y-116499039D01*
X129827574Y-116698998D01*
X129905595Y-116887356D01*
X130018863Y-117056874D01*
X130163026Y-117201037D01*
X130332544Y-117314305D01*
X130520902Y-117392326D01*
X130720861Y-117432100D01*
X130924739Y-117432100D01*
X131124698Y-117392326D01*
X131313056Y-117314305D01*
X131482574Y-117201037D01*
X131626737Y-117056874D01*
X131740005Y-116887356D01*
X131818026Y-116698998D01*
X131829569Y-116640967D01*
X131831402Y-116641726D01*
X132031361Y-116681500D01*
X132235239Y-116681500D01*
X132435198Y-116641726D01*
X132623556Y-116563705D01*
X132793074Y-116450437D01*
X132937237Y-116306274D01*
X133050505Y-116136756D01*
X133128526Y-115948398D01*
X133168300Y-115748439D01*
X133168300Y-115544561D01*
X133128526Y-115344602D01*
X133050505Y-115156244D01*
X132937237Y-114986726D01*
X132793074Y-114842563D01*
X132728568Y-114799461D01*
X136067500Y-114799461D01*
X136067500Y-115003339D01*
X136107274Y-115203298D01*
X136185295Y-115391656D01*
X136298563Y-115561174D01*
X136442726Y-115705337D01*
X136612244Y-115818605D01*
X136800602Y-115896626D01*
X137000561Y-115936400D01*
X137204439Y-115936400D01*
X137404398Y-115896626D01*
X137592756Y-115818605D01*
X137762274Y-115705337D01*
X137906437Y-115561174D01*
X137961236Y-115479161D01*
X142199900Y-115479161D01*
X142199900Y-115683039D01*
X142239674Y-115882998D01*
X142317695Y-116071356D01*
X142430963Y-116240874D01*
X142575126Y-116385037D01*
X142744644Y-116498305D01*
X142933002Y-116576326D01*
X143132961Y-116616100D01*
X143336839Y-116616100D01*
X143536798Y-116576326D01*
X143725156Y-116498305D01*
X143894674Y-116385037D01*
X144038837Y-116240874D01*
X144152105Y-116071356D01*
X144230126Y-115882998D01*
X144269900Y-115683039D01*
X144269900Y-115479161D01*
X144230126Y-115279202D01*
X144165947Y-115124261D01*
X152401400Y-115124261D01*
X152401400Y-115328139D01*
X152441174Y-115528098D01*
X152519195Y-115716456D01*
X152632463Y-115885974D01*
X152776626Y-116030137D01*
X152946144Y-116143405D01*
X153134502Y-116221426D01*
X153334461Y-116261200D01*
X153538339Y-116261200D01*
X153738298Y-116221426D01*
X153926656Y-116143405D01*
X154096174Y-116030137D01*
X154240337Y-115885974D01*
X154353605Y-115716456D01*
X154431626Y-115528098D01*
X154471400Y-115328139D01*
X154471400Y-115124261D01*
X154431626Y-114924302D01*
X154353605Y-114735944D01*
X154240337Y-114566426D01*
X154096174Y-114422263D01*
X153926656Y-114308995D01*
X153738298Y-114230974D01*
X153644221Y-114212261D01*
X157106000Y-114212261D01*
X157106000Y-114416139D01*
X157145774Y-114616098D01*
X157223795Y-114804456D01*
X157337063Y-114973974D01*
X157481226Y-115118137D01*
X157650744Y-115231405D01*
X157839102Y-115309426D01*
X158039061Y-115349200D01*
X158242939Y-115349200D01*
X158351726Y-115327561D01*
X160386000Y-115327561D01*
X160386000Y-115531439D01*
X160425774Y-115731398D01*
X160503795Y-115919756D01*
X160617063Y-116089274D01*
X160761226Y-116233437D01*
X160930744Y-116346705D01*
X161119102Y-116424726D01*
X161190293Y-116438887D01*
X161212474Y-116550398D01*
X161290495Y-116738756D01*
X161403763Y-116908274D01*
X161547926Y-117052437D01*
X161717444Y-117165705D01*
X161905802Y-117243726D01*
X162105761Y-117283500D01*
X162309639Y-117283500D01*
X162509598Y-117243726D01*
X162697956Y-117165705D01*
X162867474Y-117052437D01*
X163011637Y-116908274D01*
X163103520Y-116770761D01*
X167891600Y-116770761D01*
X167891600Y-116974639D01*
X167931374Y-117174598D01*
X168009395Y-117362956D01*
X168122663Y-117532474D01*
X168266826Y-117676637D01*
X168436344Y-117789905D01*
X168624702Y-117867926D01*
X168824661Y-117907700D01*
X169028539Y-117907700D01*
X169177563Y-117878057D01*
X169145200Y-118040761D01*
X169145200Y-118244639D01*
X169184974Y-118444598D01*
X169262995Y-118632956D01*
X169376263Y-118802474D01*
X169520426Y-118946637D01*
X169689944Y-119059905D01*
X169878302Y-119137926D01*
X170078261Y-119177700D01*
X170282139Y-119177700D01*
X170482098Y-119137926D01*
X170670456Y-119059905D01*
X170839974Y-118946637D01*
X170984137Y-118802474D01*
X171097405Y-118632956D01*
X171175426Y-118444598D01*
X171215200Y-118244639D01*
X171215200Y-118040761D01*
X171175426Y-117840802D01*
X171097405Y-117652444D01*
X170984137Y-117482926D01*
X170944472Y-117443261D01*
X172735600Y-117443261D01*
X172735600Y-117647139D01*
X172775374Y-117847098D01*
X172853395Y-118035456D01*
X172966663Y-118204974D01*
X173110826Y-118349137D01*
X173280344Y-118462405D01*
X173468702Y-118540426D01*
X173668661Y-118580200D01*
X173872539Y-118580200D01*
X174072498Y-118540426D01*
X174260856Y-118462405D01*
X174430374Y-118349137D01*
X174574537Y-118204974D01*
X174606684Y-118156861D01*
X175514800Y-118156861D01*
X175514800Y-118360739D01*
X175554574Y-118560698D01*
X175632595Y-118749056D01*
X175745863Y-118918574D01*
X175890026Y-119062737D01*
X176059544Y-119176005D01*
X176247902Y-119254026D01*
X176447861Y-119293800D01*
X176651739Y-119293800D01*
X176851698Y-119254026D01*
X177040056Y-119176005D01*
X177209574Y-119062737D01*
X177353737Y-118918574D01*
X177467005Y-118749056D01*
X177545026Y-118560698D01*
X177584800Y-118360739D01*
X177584800Y-118156861D01*
X177545026Y-117956902D01*
X177467005Y-117768544D01*
X177353737Y-117599026D01*
X177209574Y-117454863D01*
X177040056Y-117341595D01*
X176851698Y-117263574D01*
X176651739Y-117223800D01*
X176447861Y-117223800D01*
X176247902Y-117263574D01*
X176059544Y-117341595D01*
X175890026Y-117454863D01*
X175745863Y-117599026D01*
X175632595Y-117768544D01*
X175554574Y-117956902D01*
X175514800Y-118156861D01*
X174606684Y-118156861D01*
X174687805Y-118035456D01*
X174765826Y-117847098D01*
X174805600Y-117647139D01*
X174805600Y-117443261D01*
X174765826Y-117243302D01*
X174687805Y-117054944D01*
X174574537Y-116885426D01*
X174430374Y-116741263D01*
X174260856Y-116627995D01*
X174072498Y-116549974D01*
X173872539Y-116510200D01*
X173668661Y-116510200D01*
X173468702Y-116549974D01*
X173280344Y-116627995D01*
X173110826Y-116741263D01*
X172966663Y-116885426D01*
X172853395Y-117054944D01*
X172775374Y-117243302D01*
X172735600Y-117443261D01*
X170944472Y-117443261D01*
X170839974Y-117338763D01*
X170670456Y-117225495D01*
X170482098Y-117147474D01*
X170282139Y-117107700D01*
X170078261Y-117107700D01*
X169929237Y-117137343D01*
X169961600Y-116974639D01*
X169961600Y-116770761D01*
X169921826Y-116570802D01*
X169843805Y-116382444D01*
X169730537Y-116212926D01*
X169586374Y-116068763D01*
X169416856Y-115955495D01*
X169228498Y-115877474D01*
X169028539Y-115837700D01*
X168824661Y-115837700D01*
X168624702Y-115877474D01*
X168436344Y-115955495D01*
X168266826Y-116068763D01*
X168122663Y-116212926D01*
X168009395Y-116382444D01*
X167931374Y-116570802D01*
X167891600Y-116770761D01*
X163103520Y-116770761D01*
X163124905Y-116738756D01*
X163202926Y-116550398D01*
X163242700Y-116350439D01*
X163242700Y-116146561D01*
X163202926Y-115946602D01*
X163124905Y-115758244D01*
X163011637Y-115588726D01*
X162867474Y-115444563D01*
X162700600Y-115333061D01*
X164318400Y-115333061D01*
X164318400Y-115536939D01*
X164358174Y-115736898D01*
X164436195Y-115925256D01*
X164549463Y-116094774D01*
X164693626Y-116238937D01*
X164863144Y-116352205D01*
X165051502Y-116430226D01*
X165251461Y-116470000D01*
X165455339Y-116470000D01*
X165655298Y-116430226D01*
X165843656Y-116352205D01*
X166013174Y-116238937D01*
X166157337Y-116094774D01*
X166270605Y-115925256D01*
X166348626Y-115736898D01*
X166375366Y-115602461D01*
X174136600Y-115602461D01*
X174136600Y-115806339D01*
X174176374Y-116006298D01*
X174254395Y-116194656D01*
X174367663Y-116364174D01*
X174511826Y-116508337D01*
X174681344Y-116621605D01*
X174869702Y-116699626D01*
X175069661Y-116739400D01*
X175273539Y-116739400D01*
X175473498Y-116699626D01*
X175661856Y-116621605D01*
X175831374Y-116508337D01*
X175975537Y-116364174D01*
X176088805Y-116194656D01*
X176166826Y-116006298D01*
X176206600Y-115806339D01*
X176206600Y-115602461D01*
X176166826Y-115402502D01*
X176088805Y-115214144D01*
X175975537Y-115044626D01*
X175900672Y-114969761D01*
X177402900Y-114969761D01*
X177402900Y-115173639D01*
X177442674Y-115373598D01*
X177520695Y-115561956D01*
X177633963Y-115731474D01*
X177778126Y-115875637D01*
X177947644Y-115988905D01*
X178136002Y-116066926D01*
X178335961Y-116106700D01*
X178539839Y-116106700D01*
X178739798Y-116066926D01*
X178928156Y-115988905D01*
X179097674Y-115875637D01*
X179241837Y-115731474D01*
X179355105Y-115561956D01*
X179433126Y-115373598D01*
X179472796Y-115174161D01*
X180024300Y-115174161D01*
X180024300Y-115378039D01*
X180064074Y-115577998D01*
X180142095Y-115766356D01*
X180255363Y-115935874D01*
X180399526Y-116080037D01*
X180569044Y-116193305D01*
X180757402Y-116271326D01*
X180957361Y-116311100D01*
X181161239Y-116311100D01*
X181361198Y-116271326D01*
X181549556Y-116193305D01*
X181719074Y-116080037D01*
X181863237Y-115935874D01*
X181976505Y-115766356D01*
X182054526Y-115577998D01*
X182069690Y-115501761D01*
X186962800Y-115501761D01*
X186962800Y-115705639D01*
X187002574Y-115905598D01*
X187080595Y-116093956D01*
X187193863Y-116263474D01*
X187338026Y-116407637D01*
X187507544Y-116520905D01*
X187695902Y-116598926D01*
X187895861Y-116638700D01*
X188099739Y-116638700D01*
X188194394Y-116619872D01*
X197663000Y-116619872D01*
X197663000Y-117060128D01*
X197748890Y-117491925D01*
X197917369Y-117898669D01*
X198161962Y-118264729D01*
X198473271Y-118576038D01*
X198839331Y-118820631D01*
X199246075Y-118989110D01*
X199677872Y-119075000D01*
X200118128Y-119075000D01*
X200549925Y-118989110D01*
X200956669Y-118820631D01*
X201322729Y-118576038D01*
X201634038Y-118264729D01*
X201878631Y-117898669D01*
X202047110Y-117491925D01*
X202133000Y-117060128D01*
X202133000Y-116619872D01*
X202047110Y-116188075D01*
X201878631Y-115781331D01*
X201634038Y-115415271D01*
X201322729Y-115103962D01*
X200956669Y-114859369D01*
X200549925Y-114690890D01*
X200118128Y-114605000D01*
X199677872Y-114605000D01*
X199246075Y-114690890D01*
X198839331Y-114859369D01*
X198473271Y-115103962D01*
X198161962Y-115415271D01*
X197917369Y-115781331D01*
X197748890Y-116188075D01*
X197663000Y-116619872D01*
X188194394Y-116619872D01*
X188299698Y-116598926D01*
X188488056Y-116520905D01*
X188657574Y-116407637D01*
X188801737Y-116263474D01*
X188915005Y-116093956D01*
X188993026Y-115905598D01*
X189032800Y-115705639D01*
X189032800Y-115501761D01*
X188993026Y-115301802D01*
X188915005Y-115113444D01*
X188801737Y-114943926D01*
X188657574Y-114799763D01*
X188488056Y-114686495D01*
X188299698Y-114608474D01*
X188099739Y-114568700D01*
X187895861Y-114568700D01*
X187695902Y-114608474D01*
X187507544Y-114686495D01*
X187338026Y-114799763D01*
X187193863Y-114943926D01*
X187080595Y-115113444D01*
X187002574Y-115301802D01*
X186962800Y-115501761D01*
X182069690Y-115501761D01*
X182094300Y-115378039D01*
X182094300Y-115174161D01*
X182054526Y-114974202D01*
X181976505Y-114785844D01*
X181863237Y-114616326D01*
X181719074Y-114472163D01*
X181549556Y-114358895D01*
X181361198Y-114280874D01*
X181161239Y-114241100D01*
X180957361Y-114241100D01*
X180757402Y-114280874D01*
X180569044Y-114358895D01*
X180399526Y-114472163D01*
X180255363Y-114616326D01*
X180142095Y-114785844D01*
X180064074Y-114974202D01*
X180024300Y-115174161D01*
X179472796Y-115174161D01*
X179472900Y-115173639D01*
X179472900Y-114969761D01*
X179433126Y-114769802D01*
X179355105Y-114581444D01*
X179241837Y-114411926D01*
X179097674Y-114267763D01*
X178928156Y-114154495D01*
X178739798Y-114076474D01*
X178539839Y-114036700D01*
X178335961Y-114036700D01*
X178136002Y-114076474D01*
X177947644Y-114154495D01*
X177778126Y-114267763D01*
X177633963Y-114411926D01*
X177520695Y-114581444D01*
X177442674Y-114769802D01*
X177402900Y-114969761D01*
X175900672Y-114969761D01*
X175831374Y-114900463D01*
X175661856Y-114787195D01*
X175473498Y-114709174D01*
X175273539Y-114669400D01*
X175069661Y-114669400D01*
X174869702Y-114709174D01*
X174681344Y-114787195D01*
X174511826Y-114900463D01*
X174367663Y-115044626D01*
X174254395Y-115214144D01*
X174176374Y-115402502D01*
X174136600Y-115602461D01*
X166375366Y-115602461D01*
X166388400Y-115536939D01*
X166388400Y-115333061D01*
X166348626Y-115133102D01*
X166270605Y-114944744D01*
X166157337Y-114775226D01*
X166013174Y-114631063D01*
X165843656Y-114517795D01*
X165655298Y-114439774D01*
X165455339Y-114400000D01*
X165251461Y-114400000D01*
X165051502Y-114439774D01*
X164863144Y-114517795D01*
X164693626Y-114631063D01*
X164549463Y-114775226D01*
X164436195Y-114944744D01*
X164358174Y-115133102D01*
X164318400Y-115333061D01*
X162700600Y-115333061D01*
X162697956Y-115331295D01*
X162509598Y-115253274D01*
X162438407Y-115239113D01*
X162416226Y-115127602D01*
X162338205Y-114939244D01*
X162224937Y-114769726D01*
X162080774Y-114625563D01*
X161911256Y-114512295D01*
X161722898Y-114434274D01*
X161522939Y-114394500D01*
X161319061Y-114394500D01*
X161119102Y-114434274D01*
X160930744Y-114512295D01*
X160761226Y-114625563D01*
X160617063Y-114769726D01*
X160503795Y-114939244D01*
X160425774Y-115127602D01*
X160386000Y-115327561D01*
X158351726Y-115327561D01*
X158442898Y-115309426D01*
X158631256Y-115231405D01*
X158800774Y-115118137D01*
X158944937Y-114973974D01*
X159058205Y-114804456D01*
X159136226Y-114616098D01*
X159176000Y-114416139D01*
X159176000Y-114212261D01*
X159136226Y-114012302D01*
X159058205Y-113823944D01*
X158944937Y-113654426D01*
X158800774Y-113510263D01*
X158631256Y-113396995D01*
X158442898Y-113318974D01*
X158242939Y-113279200D01*
X158039061Y-113279200D01*
X157839102Y-113318974D01*
X157650744Y-113396995D01*
X157481226Y-113510263D01*
X157337063Y-113654426D01*
X157223795Y-113823944D01*
X157145774Y-114012302D01*
X157106000Y-114212261D01*
X153644221Y-114212261D01*
X153538339Y-114191200D01*
X153334461Y-114191200D01*
X153134502Y-114230974D01*
X152946144Y-114308995D01*
X152776626Y-114422263D01*
X152632463Y-114566426D01*
X152519195Y-114735944D01*
X152441174Y-114924302D01*
X152401400Y-115124261D01*
X144165947Y-115124261D01*
X144152105Y-115090844D01*
X144038837Y-114921326D01*
X143894674Y-114777163D01*
X143725156Y-114663895D01*
X143536798Y-114585874D01*
X143336839Y-114546100D01*
X143132961Y-114546100D01*
X142933002Y-114585874D01*
X142744644Y-114663895D01*
X142575126Y-114777163D01*
X142430963Y-114921326D01*
X142317695Y-115090844D01*
X142239674Y-115279202D01*
X142199900Y-115479161D01*
X137961236Y-115479161D01*
X138019705Y-115391656D01*
X138097726Y-115203298D01*
X138137500Y-115003339D01*
X138137500Y-114799461D01*
X138097726Y-114599502D01*
X138019705Y-114411144D01*
X137906437Y-114241626D01*
X137762274Y-114097463D01*
X137592756Y-113984195D01*
X137404398Y-113906174D01*
X137204439Y-113866400D01*
X137000561Y-113866400D01*
X136800602Y-113906174D01*
X136612244Y-113984195D01*
X136442726Y-114097463D01*
X136298563Y-114241626D01*
X136185295Y-114411144D01*
X136107274Y-114599502D01*
X136067500Y-114799461D01*
X132728568Y-114799461D01*
X132623556Y-114729295D01*
X132435198Y-114651274D01*
X132235239Y-114611500D01*
X132031361Y-114611500D01*
X131831402Y-114651274D01*
X131643044Y-114729295D01*
X131473526Y-114842563D01*
X131329363Y-114986726D01*
X131216095Y-115156244D01*
X131138074Y-115344602D01*
X131126531Y-115402633D01*
X131124698Y-115401874D01*
X130924739Y-115362100D01*
X130720861Y-115362100D01*
X130720320Y-115362208D01*
X130722800Y-115349739D01*
X130722800Y-115145861D01*
X130683026Y-114945902D01*
X130605005Y-114757544D01*
X130491737Y-114588026D01*
X130347574Y-114443863D01*
X130178056Y-114330595D01*
X129989698Y-114252574D01*
X129789739Y-114212800D01*
X129585861Y-114212800D01*
X129385902Y-114252574D01*
X129197544Y-114330595D01*
X129028026Y-114443863D01*
X128883863Y-114588026D01*
X128770595Y-114757544D01*
X128692574Y-114945902D01*
X128652800Y-115145861D01*
X119195628Y-115145861D01*
X119153729Y-115103962D01*
X118787669Y-114859369D01*
X118380925Y-114690890D01*
X117949128Y-114605000D01*
X117508872Y-114605000D01*
X117077075Y-114690890D01*
X116670331Y-114859369D01*
X116304271Y-115103962D01*
X115992962Y-115415271D01*
X115748369Y-115781331D01*
X115579890Y-116188075D01*
X115494000Y-116619872D01*
X114960000Y-116619872D01*
X114960000Y-111023000D01*
X128200266Y-111023000D01*
X128198774Y-111026602D01*
%TA.AperFunction,Conductor*%
D13*
G36*
X128198774Y-111026602D02*
G01*
X128159000Y-111226561D01*
X128159000Y-111430439D01*
X128198774Y-111630398D01*
X128276795Y-111818756D01*
X128390063Y-111988274D01*
X128534226Y-112132437D01*
X128703744Y-112245705D01*
X128892102Y-112323726D01*
X129092061Y-112363500D01*
X129295939Y-112363500D01*
X129495898Y-112323726D01*
X129684256Y-112245705D01*
X129853774Y-112132437D01*
X129997937Y-111988274D01*
X130111205Y-111818756D01*
X130189226Y-111630398D01*
X130229000Y-111430439D01*
X130229000Y-111226561D01*
X130189226Y-111026602D01*
X130187734Y-111023000D01*
X131410066Y-111023000D01*
X131408574Y-111026602D01*
X131368800Y-111226561D01*
X131368800Y-111430439D01*
X131408574Y-111630398D01*
X131486595Y-111818756D01*
X131599863Y-111988274D01*
X131744026Y-112132437D01*
X131913544Y-112245705D01*
X132101902Y-112323726D01*
X132301861Y-112363500D01*
X132505739Y-112363500D01*
X132705698Y-112323726D01*
X132894056Y-112245705D01*
X133016694Y-112163761D01*
X134143800Y-112163761D01*
X134143800Y-112367639D01*
X134183574Y-112567598D01*
X134261595Y-112755956D01*
X134374863Y-112925474D01*
X134519026Y-113069637D01*
X134688544Y-113182905D01*
X134876902Y-113260926D01*
X135076861Y-113300700D01*
X135280739Y-113300700D01*
X135480698Y-113260926D01*
X135669056Y-113182905D01*
X135838574Y-113069637D01*
X135982737Y-112925474D01*
X136096005Y-112755956D01*
X136174026Y-112567598D01*
X136213800Y-112367639D01*
X136213800Y-112212661D01*
X145920400Y-112212661D01*
X145920400Y-112416539D01*
X145960174Y-112616498D01*
X146038195Y-112804856D01*
X146151463Y-112974374D01*
X146295626Y-113118537D01*
X146465144Y-113231805D01*
X146653502Y-113309826D01*
X146853461Y-113349600D01*
X147057339Y-113349600D01*
X147257298Y-113309826D01*
X147445656Y-113231805D01*
X147615174Y-113118537D01*
X147759337Y-112974374D01*
X147872605Y-112804856D01*
X147938256Y-112646361D01*
X148887800Y-112646361D01*
X148887800Y-112850239D01*
X148927574Y-113050198D01*
X149005595Y-113238556D01*
X149118863Y-113408074D01*
X149263026Y-113552237D01*
X149432544Y-113665505D01*
X149620902Y-113743526D01*
X149820861Y-113783300D01*
X150024739Y-113783300D01*
X150224698Y-113743526D01*
X150413056Y-113665505D01*
X150582574Y-113552237D01*
X150726737Y-113408074D01*
X150840005Y-113238556D01*
X150918026Y-113050198D01*
X150957800Y-112850239D01*
X150957800Y-112710661D01*
X159230200Y-112710661D01*
X159230200Y-112914539D01*
X159269974Y-113114498D01*
X159347995Y-113302856D01*
X159461263Y-113472374D01*
X159605426Y-113616537D01*
X159774944Y-113729805D01*
X159963302Y-113807826D01*
X160163261Y-113847600D01*
X160367139Y-113847600D01*
X160567098Y-113807826D01*
X160755456Y-113729805D01*
X160924974Y-113616537D01*
X161069137Y-113472374D01*
X161182405Y-113302856D01*
X161260426Y-113114498D01*
X161279747Y-113017361D01*
X166669900Y-113017361D01*
X166669900Y-113221239D01*
X166709674Y-113421198D01*
X166787695Y-113609556D01*
X166900963Y-113779074D01*
X167045126Y-113923237D01*
X167214644Y-114036505D01*
X167403002Y-114114526D01*
X167602961Y-114154300D01*
X167806839Y-114154300D01*
X168006798Y-114114526D01*
X168195156Y-114036505D01*
X168364674Y-113923237D01*
X168508837Y-113779074D01*
X168622105Y-113609556D01*
X168700126Y-113421198D01*
X168739900Y-113221239D01*
X168739900Y-113017361D01*
X168700126Y-112817402D01*
X168622105Y-112629044D01*
X168508837Y-112459526D01*
X168364674Y-112315363D01*
X168195156Y-112202095D01*
X168006798Y-112124074D01*
X167806839Y-112084300D01*
X167602961Y-112084300D01*
X167403002Y-112124074D01*
X167214644Y-112202095D01*
X167045126Y-112315363D01*
X166900963Y-112459526D01*
X166787695Y-112629044D01*
X166709674Y-112817402D01*
X166669900Y-113017361D01*
X161279747Y-113017361D01*
X161300200Y-112914539D01*
X161300200Y-112710661D01*
X161260426Y-112510702D01*
X161182405Y-112322344D01*
X161069137Y-112152826D01*
X160924974Y-112008663D01*
X160755456Y-111895395D01*
X160567098Y-111817374D01*
X160367139Y-111777600D01*
X160163261Y-111777600D01*
X159963302Y-111817374D01*
X159774944Y-111895395D01*
X159605426Y-112008663D01*
X159461263Y-112152826D01*
X159347995Y-112322344D01*
X159269974Y-112510702D01*
X159230200Y-112710661D01*
X150957800Y-112710661D01*
X150957800Y-112646361D01*
X150918026Y-112446402D01*
X150840005Y-112258044D01*
X150726737Y-112088526D01*
X150582574Y-111944363D01*
X150413056Y-111831095D01*
X150224698Y-111753074D01*
X150024739Y-111713300D01*
X149820861Y-111713300D01*
X149620902Y-111753074D01*
X149432544Y-111831095D01*
X149263026Y-111944363D01*
X149118863Y-112088526D01*
X149005595Y-112258044D01*
X148927574Y-112446402D01*
X148887800Y-112646361D01*
X147938256Y-112646361D01*
X147950626Y-112616498D01*
X147990400Y-112416539D01*
X147990400Y-112212661D01*
X147950626Y-112012702D01*
X147872605Y-111824344D01*
X147759337Y-111654826D01*
X147615174Y-111510663D01*
X147445656Y-111397395D01*
X147257298Y-111319374D01*
X147057339Y-111279600D01*
X146853461Y-111279600D01*
X146653502Y-111319374D01*
X146465144Y-111397395D01*
X146295626Y-111510663D01*
X146151463Y-111654826D01*
X146038195Y-111824344D01*
X145960174Y-112012702D01*
X145920400Y-112212661D01*
X136213800Y-112212661D01*
X136213800Y-112163761D01*
X136174026Y-111963802D01*
X136096005Y-111775444D01*
X135982737Y-111605926D01*
X135838574Y-111461763D01*
X135669056Y-111348495D01*
X135480698Y-111270474D01*
X135280739Y-111230700D01*
X135076861Y-111230700D01*
X134876902Y-111270474D01*
X134688544Y-111348495D01*
X134519026Y-111461763D01*
X134374863Y-111605926D01*
X134261595Y-111775444D01*
X134183574Y-111963802D01*
X134143800Y-112163761D01*
X133016694Y-112163761D01*
X133063574Y-112132437D01*
X133207737Y-111988274D01*
X133321005Y-111818756D01*
X133399026Y-111630398D01*
X133438800Y-111430439D01*
X133438800Y-111226561D01*
X133399026Y-111026602D01*
X133397534Y-111023000D01*
X152873899Y-111023000D01*
X152781795Y-111160844D01*
X152703774Y-111349202D01*
X152664000Y-111549161D01*
X152664000Y-111753039D01*
X152703774Y-111952998D01*
X152781795Y-112141356D01*
X152895063Y-112310874D01*
X153039226Y-112455037D01*
X153208744Y-112568305D01*
X153397102Y-112646326D01*
X153597061Y-112686100D01*
X153800939Y-112686100D01*
X154000898Y-112646326D01*
X154189256Y-112568305D01*
X154358774Y-112455037D01*
X154502937Y-112310874D01*
X154616205Y-112141356D01*
X154678833Y-111990160D01*
X154761763Y-112114274D01*
X154905926Y-112258437D01*
X155075444Y-112371705D01*
X155263802Y-112449726D01*
X155463761Y-112489500D01*
X155667639Y-112489500D01*
X155867598Y-112449726D01*
X156055956Y-112371705D01*
X156225474Y-112258437D01*
X156369637Y-112114274D01*
X156482905Y-111944756D01*
X156560926Y-111756398D01*
X156600700Y-111556439D01*
X156600700Y-111352561D01*
X156560926Y-111152602D01*
X156507243Y-111023000D01*
X202667001Y-111023000D01*
X202667000Y-126340000D01*
X197362072Y-126340000D01*
X197362072Y-123348000D01*
X197349812Y-123223518D01*
X197313502Y-123103820D01*
X197254537Y-122993506D01*
X197175185Y-122896815D01*
X197078494Y-122817463D01*
X196968180Y-122758498D01*
X196848482Y-122722188D01*
X196724000Y-122709928D01*
X194944000Y-122709928D01*
X194819518Y-122722188D01*
X194699820Y-122758498D01*
X194589506Y-122817463D01*
X194564000Y-122838395D01*
X194538494Y-122817463D01*
X194428180Y-122758498D01*
X194308482Y-122722188D01*
X194184000Y-122709928D01*
X192404000Y-122709928D01*
X192279518Y-122722188D01*
X192159820Y-122758498D01*
X192049506Y-122817463D01*
X192024000Y-122838395D01*
X191998494Y-122817463D01*
X191888180Y-122758498D01*
X191768482Y-122722188D01*
X191644000Y-122709928D01*
X189864000Y-122709928D01*
X189739518Y-122722188D01*
X189619820Y-122758498D01*
X189509506Y-122817463D01*
X189484000Y-122838395D01*
X189458494Y-122817463D01*
X189348180Y-122758498D01*
X189289357Y-122740654D01*
X189333437Y-122696574D01*
X189446705Y-122527056D01*
X189524726Y-122338698D01*
X189564500Y-122138739D01*
X189564500Y-121934861D01*
X189524726Y-121734902D01*
X189446705Y-121546544D01*
X189333437Y-121377026D01*
X189189274Y-121232863D01*
X189019756Y-121119595D01*
X188831398Y-121041574D01*
X188631439Y-121001800D01*
X188427561Y-121001800D01*
X188227602Y-121041574D01*
X188039244Y-121119595D01*
X187869726Y-121232863D01*
X187725563Y-121377026D01*
X187612295Y-121546544D01*
X187534274Y-121734902D01*
X187494500Y-121934861D01*
X187494500Y-122138739D01*
X187534274Y-122338698D01*
X187612295Y-122527056D01*
X187725563Y-122696574D01*
X187738917Y-122709928D01*
X187324000Y-122709928D01*
X187199518Y-122722188D01*
X187079820Y-122758498D01*
X186969506Y-122817463D01*
X186944000Y-122838395D01*
X186918494Y-122817463D01*
X186808180Y-122758498D01*
X186688482Y-122722188D01*
X186564000Y-122709928D01*
X184784000Y-122709928D01*
X184659518Y-122722188D01*
X184539820Y-122758498D01*
X184429506Y-122817463D01*
X184404000Y-122838395D01*
X184378494Y-122817463D01*
X184268180Y-122758498D01*
X184148482Y-122722188D01*
X184024000Y-122709928D01*
X182244000Y-122709928D01*
X182119518Y-122722188D01*
X181999820Y-122758498D01*
X181889506Y-122817463D01*
X181864000Y-122838395D01*
X181838494Y-122817463D01*
X181728180Y-122758498D01*
X181608482Y-122722188D01*
X181484000Y-122709928D01*
X179704000Y-122709928D01*
X179579518Y-122722188D01*
X179459820Y-122758498D01*
X179349506Y-122817463D01*
X179324000Y-122838395D01*
X179298494Y-122817463D01*
X179188180Y-122758498D01*
X179068482Y-122722188D01*
X178944000Y-122709928D01*
X177164000Y-122709928D01*
X177039518Y-122722188D01*
X176919820Y-122758498D01*
X176809506Y-122817463D01*
X176784000Y-122838395D01*
X176758494Y-122817463D01*
X176648180Y-122758498D01*
X176528482Y-122722188D01*
X176404000Y-122709928D01*
X175799750Y-122713000D01*
X175641000Y-122871750D01*
X175641000Y-124971000D01*
X175661000Y-124971000D01*
X175661000Y-125225000D01*
X175641000Y-125225000D01*
X175641000Y-125245000D01*
X175387000Y-125245000D01*
X175387000Y-125225000D01*
X175367000Y-125225000D01*
X175367000Y-124971000D01*
X175387000Y-124971000D01*
X175387000Y-122871750D01*
X175228250Y-122713000D01*
X174624000Y-122709928D01*
X174499518Y-122722188D01*
X174379820Y-122758498D01*
X174269506Y-122817463D01*
X174244000Y-122838395D01*
X174218494Y-122817463D01*
X174108180Y-122758498D01*
X173988482Y-122722188D01*
X173864000Y-122709928D01*
X172084000Y-122709928D01*
X171959518Y-122722188D01*
X171839820Y-122758498D01*
X171729506Y-122817463D01*
X171704000Y-122838395D01*
X171678494Y-122817463D01*
X171568180Y-122758498D01*
X171448482Y-122722188D01*
X171324000Y-122709928D01*
X169544000Y-122709928D01*
X169419518Y-122722188D01*
X169299820Y-122758498D01*
X169189506Y-122817463D01*
X169164000Y-122838395D01*
X169138494Y-122817463D01*
X169028180Y-122758498D01*
X168908482Y-122722188D01*
X168784000Y-122709928D01*
X167004000Y-122709928D01*
X166879518Y-122722188D01*
X166759820Y-122758498D01*
X166649506Y-122817463D01*
X166624000Y-122838395D01*
X166598494Y-122817463D01*
X166488180Y-122758498D01*
X166368482Y-122722188D01*
X166244000Y-122709928D01*
X164464000Y-122709928D01*
X164339518Y-122722188D01*
X164219820Y-122758498D01*
X164109506Y-122817463D01*
X164084000Y-122838395D01*
X164058494Y-122817463D01*
X163948180Y-122758498D01*
X163828482Y-122722188D01*
X163704000Y-122709928D01*
X161924000Y-122709928D01*
X161799518Y-122722188D01*
X161679820Y-122758498D01*
X161569506Y-122817463D01*
X161544000Y-122838395D01*
X161518494Y-122817463D01*
X161408180Y-122758498D01*
X161288482Y-122722188D01*
X161164000Y-122709928D01*
X159384000Y-122709928D01*
X159259518Y-122722188D01*
X159139820Y-122758498D01*
X159029506Y-122817463D01*
X159004000Y-122838395D01*
X158978494Y-122817463D01*
X158868180Y-122758498D01*
X158748482Y-122722188D01*
X158624000Y-122709928D01*
X156844000Y-122709928D01*
X156719518Y-122722188D01*
X156599820Y-122758498D01*
X156489506Y-122817463D01*
X156464000Y-122838395D01*
X156438494Y-122817463D01*
X156328180Y-122758498D01*
X156208482Y-122722188D01*
X156084000Y-122709928D01*
X154304000Y-122709928D01*
X154179518Y-122722188D01*
X154059820Y-122758498D01*
X153949506Y-122817463D01*
X153924000Y-122838395D01*
X153898494Y-122817463D01*
X153788180Y-122758498D01*
X153668482Y-122722188D01*
X153544000Y-122709928D01*
X151764000Y-122709928D01*
X151639518Y-122722188D01*
X151519820Y-122758498D01*
X151409506Y-122817463D01*
X151384000Y-122838395D01*
X151358494Y-122817463D01*
X151248180Y-122758498D01*
X151128482Y-122722188D01*
X151004000Y-122709928D01*
X149224000Y-122709928D01*
X149099518Y-122722188D01*
X148979820Y-122758498D01*
X148869506Y-122817463D01*
X148844000Y-122838395D01*
X148818494Y-122817463D01*
X148708180Y-122758498D01*
X148588482Y-122722188D01*
X148464000Y-122709928D01*
X146684000Y-122709928D01*
X146559518Y-122722188D01*
X146439820Y-122758498D01*
X146329506Y-122817463D01*
X146304000Y-122838395D01*
X146278494Y-122817463D01*
X146168180Y-122758498D01*
X146048482Y-122722188D01*
X145924000Y-122709928D01*
X145120630Y-122709928D01*
X145296598Y-122674926D01*
X145484956Y-122596905D01*
X145654474Y-122483637D01*
X145770762Y-122367349D01*
X145816044Y-122397605D01*
X146004402Y-122475626D01*
X146204361Y-122515400D01*
X146408239Y-122515400D01*
X146608198Y-122475626D01*
X146796556Y-122397605D01*
X146966074Y-122284337D01*
X147110237Y-122140174D01*
X147223505Y-121970656D01*
X147301526Y-121782298D01*
X147341300Y-121582339D01*
X147341300Y-121378461D01*
X147301526Y-121178502D01*
X147240827Y-121031961D01*
X156560200Y-121031961D01*
X156560200Y-121235839D01*
X156599974Y-121435798D01*
X156677995Y-121624156D01*
X156791263Y-121793674D01*
X156935426Y-121937837D01*
X157104944Y-122051105D01*
X157293302Y-122129126D01*
X157493261Y-122168900D01*
X157697139Y-122168900D01*
X157897098Y-122129126D01*
X158085456Y-122051105D01*
X158254974Y-121937837D01*
X158399137Y-121793674D01*
X158512405Y-121624156D01*
X158590426Y-121435798D01*
X158628126Y-121246261D01*
X166367200Y-121246261D01*
X166367200Y-121450139D01*
X166406974Y-121650098D01*
X166484995Y-121838456D01*
X166598263Y-122007974D01*
X166742426Y-122152137D01*
X166911944Y-122265405D01*
X167100302Y-122343426D01*
X167300261Y-122383200D01*
X167504139Y-122383200D01*
X167704098Y-122343426D01*
X167892456Y-122265405D01*
X168061974Y-122152137D01*
X168206137Y-122007974D01*
X168319405Y-121838456D01*
X168397426Y-121650098D01*
X168402877Y-121622694D01*
X168505963Y-121776974D01*
X168650126Y-121921137D01*
X168819644Y-122034405D01*
X169008002Y-122112426D01*
X169207961Y-122152200D01*
X169411839Y-122152200D01*
X169611798Y-122112426D01*
X169800156Y-122034405D01*
X169969674Y-121921137D01*
X170113837Y-121776974D01*
X170227105Y-121607456D01*
X170305126Y-121419098D01*
X170344900Y-121219139D01*
X170344900Y-121130561D01*
X172640500Y-121130561D01*
X172640500Y-121334439D01*
X172680274Y-121534398D01*
X172758295Y-121722756D01*
X172871563Y-121892274D01*
X173015726Y-122036437D01*
X173185244Y-122149705D01*
X173373602Y-122227726D01*
X173573561Y-122267500D01*
X173777439Y-122267500D01*
X173977398Y-122227726D01*
X174165756Y-122149705D01*
X174335274Y-122036437D01*
X174479437Y-121892274D01*
X174592705Y-121722756D01*
X174670726Y-121534398D01*
X174710500Y-121334439D01*
X174710500Y-121304261D01*
X181414000Y-121304261D01*
X181414000Y-121508139D01*
X181453774Y-121708098D01*
X181531795Y-121896456D01*
X181645063Y-122065974D01*
X181789226Y-122210137D01*
X181958744Y-122323405D01*
X182147102Y-122401426D01*
X182347061Y-122441200D01*
X182550939Y-122441200D01*
X182750898Y-122401426D01*
X182939256Y-122323405D01*
X183108774Y-122210137D01*
X183252937Y-122065974D01*
X183366205Y-121896456D01*
X183444226Y-121708098D01*
X183484000Y-121508139D01*
X183484000Y-121304261D01*
X183444226Y-121104302D01*
X183366205Y-120915944D01*
X183252937Y-120746426D01*
X183108774Y-120602263D01*
X182939256Y-120488995D01*
X182750898Y-120410974D01*
X182550939Y-120371200D01*
X182347061Y-120371200D01*
X182147102Y-120410974D01*
X181958744Y-120488995D01*
X181789226Y-120602263D01*
X181645063Y-120746426D01*
X181531795Y-120915944D01*
X181453774Y-121104302D01*
X181414000Y-121304261D01*
X174710500Y-121304261D01*
X174710500Y-121130561D01*
X174670726Y-120930602D01*
X174592705Y-120742244D01*
X174479437Y-120572726D01*
X174335274Y-120428563D01*
X174165756Y-120315295D01*
X173977398Y-120237274D01*
X173777439Y-120197500D01*
X173573561Y-120197500D01*
X173373602Y-120237274D01*
X173185244Y-120315295D01*
X173015726Y-120428563D01*
X172871563Y-120572726D01*
X172758295Y-120742244D01*
X172680274Y-120930602D01*
X172640500Y-121130561D01*
X170344900Y-121130561D01*
X170344900Y-121015261D01*
X170305126Y-120815302D01*
X170227105Y-120626944D01*
X170113837Y-120457426D01*
X169969674Y-120313263D01*
X169800156Y-120199995D01*
X169611798Y-120121974D01*
X169411839Y-120082200D01*
X169207961Y-120082200D01*
X169008002Y-120121974D01*
X168819644Y-120199995D01*
X168650126Y-120313263D01*
X168505963Y-120457426D01*
X168392695Y-120626944D01*
X168314674Y-120815302D01*
X168309223Y-120842706D01*
X168206137Y-120688426D01*
X168061974Y-120544263D01*
X167892456Y-120430995D01*
X167704098Y-120352974D01*
X167504139Y-120313200D01*
X167300261Y-120313200D01*
X167100302Y-120352974D01*
X166911944Y-120430995D01*
X166742426Y-120544263D01*
X166598263Y-120688426D01*
X166484995Y-120857944D01*
X166406974Y-121046302D01*
X166367200Y-121246261D01*
X158628126Y-121246261D01*
X158630200Y-121235839D01*
X158630200Y-121031961D01*
X158590426Y-120832002D01*
X158512405Y-120643644D01*
X158399137Y-120474126D01*
X158254974Y-120329963D01*
X158085456Y-120216695D01*
X157897098Y-120138674D01*
X157697139Y-120098900D01*
X157493261Y-120098900D01*
X157293302Y-120138674D01*
X157104944Y-120216695D01*
X156935426Y-120329963D01*
X156791263Y-120474126D01*
X156677995Y-120643644D01*
X156599974Y-120832002D01*
X156560200Y-121031961D01*
X147240827Y-121031961D01*
X147223505Y-120990144D01*
X147110237Y-120820626D01*
X146966074Y-120676463D01*
X146796556Y-120563195D01*
X146608198Y-120485174D01*
X146408239Y-120445400D01*
X146204361Y-120445400D01*
X146004402Y-120485174D01*
X145816044Y-120563195D01*
X145646526Y-120676463D01*
X145530238Y-120792751D01*
X145484956Y-120762495D01*
X145296598Y-120684474D01*
X145096639Y-120644700D01*
X144892761Y-120644700D01*
X144692802Y-120684474D01*
X144504444Y-120762495D01*
X144334926Y-120875763D01*
X144190763Y-121019926D01*
X144077495Y-121189444D01*
X143999474Y-121377802D01*
X143959700Y-121577761D01*
X143959700Y-121781639D01*
X143999474Y-121981598D01*
X144077495Y-122169956D01*
X144190763Y-122339474D01*
X144334926Y-122483637D01*
X144504444Y-122596905D01*
X144692802Y-122674926D01*
X144868770Y-122709928D01*
X144144000Y-122709928D01*
X144019518Y-122722188D01*
X143899820Y-122758498D01*
X143789506Y-122817463D01*
X143764000Y-122838395D01*
X143738494Y-122817463D01*
X143628180Y-122758498D01*
X143508482Y-122722188D01*
X143384000Y-122709928D01*
X142779750Y-122713000D01*
X142621000Y-122871750D01*
X142621000Y-124971000D01*
X142641000Y-124971000D01*
X142641000Y-125225000D01*
X142621000Y-125225000D01*
X142621000Y-125245000D01*
X142367000Y-125245000D01*
X142367000Y-125225000D01*
X142347000Y-125225000D01*
X142347000Y-124971000D01*
X142367000Y-124971000D01*
X142367000Y-122871750D01*
X142208250Y-122713000D01*
X141604000Y-122709928D01*
X141479518Y-122722188D01*
X141359820Y-122758498D01*
X141249506Y-122817463D01*
X141224000Y-122838395D01*
X141198494Y-122817463D01*
X141088180Y-122758498D01*
X140968482Y-122722188D01*
X140844000Y-122709928D01*
X139064000Y-122709928D01*
X138939518Y-122722188D01*
X138819820Y-122758498D01*
X138709506Y-122817463D01*
X138684000Y-122838395D01*
X138658494Y-122817463D01*
X138548180Y-122758498D01*
X138428482Y-122722188D01*
X138304000Y-122709928D01*
X136524000Y-122709928D01*
X136399518Y-122722188D01*
X136279820Y-122758498D01*
X136169506Y-122817463D01*
X136144000Y-122838395D01*
X136118494Y-122817463D01*
X136008180Y-122758498D01*
X135888482Y-122722188D01*
X135764000Y-122709928D01*
X133984000Y-122709928D01*
X133859518Y-122722188D01*
X133739820Y-122758498D01*
X133629506Y-122817463D01*
X133604000Y-122838395D01*
X133578494Y-122817463D01*
X133468180Y-122758498D01*
X133348482Y-122722188D01*
X133224000Y-122709928D01*
X131444000Y-122709928D01*
X131319518Y-122722188D01*
X131199820Y-122758498D01*
X131089506Y-122817463D01*
X131064000Y-122838395D01*
X131038494Y-122817463D01*
X130928180Y-122758498D01*
X130808482Y-122722188D01*
X130684000Y-122709928D01*
X129517962Y-122709928D01*
X129483426Y-122536302D01*
X129405405Y-122347944D01*
X129292137Y-122178426D01*
X129147974Y-122034263D01*
X128978456Y-121920995D01*
X128790098Y-121842974D01*
X128590139Y-121803200D01*
X128386261Y-121803200D01*
X128186302Y-121842974D01*
X127997944Y-121920995D01*
X127828426Y-122034263D01*
X127684263Y-122178426D01*
X127570995Y-122347944D01*
X127492974Y-122536302D01*
X127458438Y-122709928D01*
X126364000Y-122709928D01*
X126239518Y-122722188D01*
X126119820Y-122758498D01*
X126009506Y-122817463D01*
X125984000Y-122838395D01*
X125958494Y-122817463D01*
X125848180Y-122758498D01*
X125728482Y-122722188D01*
X125604000Y-122709928D01*
X123824000Y-122709928D01*
X123699518Y-122722188D01*
X123579820Y-122758498D01*
X123469506Y-122817463D01*
X123444000Y-122838395D01*
X123418494Y-122817463D01*
X123308180Y-122758498D01*
X123188482Y-122722188D01*
X123064000Y-122709928D01*
X121284000Y-122709928D01*
X121159518Y-122722188D01*
X121039820Y-122758498D01*
X120929506Y-122817463D01*
X120832815Y-122896815D01*
X120753463Y-122993506D01*
X120694498Y-123103820D01*
X120658188Y-123223518D01*
X120645928Y-123348000D01*
X120645928Y-126340000D01*
X116992000Y-126340000D01*
X116992000Y-122649581D01*
X116989146Y-122620603D01*
X116989234Y-122607997D01*
X116988334Y-122598826D01*
X116946882Y-122204422D01*
X116934855Y-122145829D01*
X116923645Y-122087065D01*
X116920981Y-122078243D01*
X116803710Y-121699401D01*
X116780526Y-121644250D01*
X116758120Y-121588792D01*
X116753794Y-121580655D01*
X116565172Y-121231807D01*
X116531717Y-121182208D01*
X116498968Y-121132162D01*
X116493144Y-121125021D01*
X116240356Y-120819453D01*
X116197923Y-120777315D01*
X116156057Y-120734562D01*
X116148962Y-120728694D01*
X116148957Y-120728689D01*
X116148952Y-120728685D01*
X115841631Y-120478041D01*
X115791838Y-120444959D01*
X115742449Y-120411141D01*
X115734343Y-120406759D01*
X115384187Y-120220577D01*
X115328867Y-120197776D01*
X115273899Y-120174216D01*
X115265099Y-120171492D01*
X115265093Y-120171490D01*
X114960000Y-120079378D01*
X114960000Y-116619872D01*
X115494000Y-116619872D01*
X115494000Y-117060128D01*
X115579890Y-117491925D01*
X115748369Y-117898669D01*
X115992962Y-118264729D01*
X116304271Y-118576038D01*
X116670331Y-118820631D01*
X117077075Y-118989110D01*
X117508872Y-119075000D01*
X117949128Y-119075000D01*
X118380925Y-118989110D01*
X118787669Y-118820631D01*
X119153729Y-118576038D01*
X119248906Y-118480861D01*
X123693100Y-118480861D01*
X123693100Y-118684739D01*
X123732874Y-118884698D01*
X123810895Y-119073056D01*
X123924163Y-119242574D01*
X124068326Y-119386737D01*
X124237844Y-119500005D01*
X124426202Y-119578026D01*
X124626161Y-119617800D01*
X124830039Y-119617800D01*
X125029998Y-119578026D01*
X125218356Y-119500005D01*
X125387874Y-119386737D01*
X125532037Y-119242574D01*
X125645305Y-119073056D01*
X125723326Y-118884698D01*
X125763100Y-118684739D01*
X125763100Y-118480861D01*
X125723326Y-118280902D01*
X125645305Y-118092544D01*
X125532037Y-117923026D01*
X125387874Y-117778863D01*
X125218356Y-117665595D01*
X125029998Y-117587574D01*
X124830039Y-117547800D01*
X124626161Y-117547800D01*
X124426202Y-117587574D01*
X124237844Y-117665595D01*
X124068326Y-117778863D01*
X123924163Y-117923026D01*
X123810895Y-118092544D01*
X123732874Y-118280902D01*
X123693100Y-118480861D01*
X119248906Y-118480861D01*
X119465038Y-118264729D01*
X119709631Y-117898669D01*
X119860118Y-117535361D01*
X126251500Y-117535361D01*
X126251500Y-117739239D01*
X126291274Y-117939198D01*
X126369295Y-118127556D01*
X126482563Y-118297074D01*
X126626726Y-118441237D01*
X126796244Y-118554505D01*
X126984602Y-118632526D01*
X127184561Y-118672300D01*
X127388439Y-118672300D01*
X127588398Y-118632526D01*
X127776756Y-118554505D01*
X127946274Y-118441237D01*
X128090437Y-118297074D01*
X128170092Y-118177861D01*
X128683400Y-118177861D01*
X128683400Y-118381739D01*
X128723174Y-118581698D01*
X128801195Y-118770056D01*
X128914463Y-118939574D01*
X129058626Y-119083737D01*
X129228144Y-119197005D01*
X129416502Y-119275026D01*
X129616461Y-119314800D01*
X129820339Y-119314800D01*
X130020298Y-119275026D01*
X130208656Y-119197005D01*
X130378174Y-119083737D01*
X130522337Y-118939574D01*
X130635605Y-118770056D01*
X130713626Y-118581698D01*
X130753400Y-118381739D01*
X130753400Y-118216061D01*
X131705400Y-118216061D01*
X131705400Y-118419939D01*
X131745174Y-118619898D01*
X131823195Y-118808256D01*
X131936463Y-118977774D01*
X132080626Y-119121937D01*
X132250144Y-119235205D01*
X132438502Y-119313226D01*
X132638461Y-119353000D01*
X132679089Y-119353000D01*
X132609863Y-119422226D01*
X132496595Y-119591744D01*
X132418574Y-119780102D01*
X132378800Y-119980061D01*
X132378800Y-120183939D01*
X132418574Y-120383898D01*
X132496595Y-120572256D01*
X132609863Y-120741774D01*
X132754026Y-120885937D01*
X132923544Y-120999205D01*
X133111902Y-121077226D01*
X133311861Y-121117000D01*
X133515739Y-121117000D01*
X133715698Y-121077226D01*
X133904056Y-120999205D01*
X134073574Y-120885937D01*
X134217737Y-120741774D01*
X134331005Y-120572256D01*
X134409026Y-120383898D01*
X134448800Y-120183939D01*
X134448800Y-120127404D01*
X134463361Y-120130300D01*
X134667239Y-120130300D01*
X134867198Y-120090526D01*
X135055556Y-120012505D01*
X135225074Y-119899237D01*
X135369237Y-119755074D01*
X135482505Y-119585556D01*
X135560526Y-119397198D01*
X135600300Y-119197239D01*
X135600300Y-118993361D01*
X135560526Y-118793402D01*
X135516121Y-118686200D01*
X135571239Y-118686200D01*
X135657400Y-118669062D01*
X135657400Y-118724739D01*
X135697174Y-118924698D01*
X135775195Y-119113056D01*
X135888463Y-119282574D01*
X136032626Y-119426737D01*
X136202144Y-119540005D01*
X136390502Y-119618026D01*
X136590461Y-119657800D01*
X136794339Y-119657800D01*
X136994298Y-119618026D01*
X137182656Y-119540005D01*
X137352174Y-119426737D01*
X137496337Y-119282574D01*
X137609605Y-119113056D01*
X137665546Y-118978003D01*
X137689944Y-118994305D01*
X137878302Y-119072326D01*
X138078261Y-119112100D01*
X138282139Y-119112100D01*
X138482098Y-119072326D01*
X138670456Y-118994305D01*
X138839974Y-118881037D01*
X138984137Y-118736874D01*
X139053101Y-118633661D01*
X139156700Y-118633661D01*
X139156700Y-118837539D01*
X139196474Y-119037498D01*
X139274495Y-119225856D01*
X139387763Y-119395374D01*
X139531926Y-119539537D01*
X139701444Y-119652805D01*
X139889802Y-119730826D01*
X140089761Y-119770600D01*
X140293639Y-119770600D01*
X140493598Y-119730826D01*
X140681956Y-119652805D01*
X140851474Y-119539537D01*
X140995637Y-119395374D01*
X140996915Y-119393461D01*
X146319500Y-119393461D01*
X146319500Y-119597339D01*
X146359274Y-119797298D01*
X146437295Y-119985656D01*
X146550563Y-120155174D01*
X146694726Y-120299337D01*
X146864244Y-120412605D01*
X147052602Y-120490626D01*
X147252561Y-120530400D01*
X147456439Y-120530400D01*
X147656398Y-120490626D01*
X147844756Y-120412605D01*
X148014274Y-120299337D01*
X148158437Y-120155174D01*
X148271705Y-119985656D01*
X148349726Y-119797298D01*
X148389500Y-119597339D01*
X148389500Y-119393461D01*
X148349726Y-119193502D01*
X148271705Y-119005144D01*
X148158437Y-118835626D01*
X148014274Y-118691463D01*
X147844756Y-118578195D01*
X147656398Y-118500174D01*
X147456439Y-118460400D01*
X147252561Y-118460400D01*
X147052602Y-118500174D01*
X146864244Y-118578195D01*
X146694726Y-118691463D01*
X146550563Y-118835626D01*
X146437295Y-119005144D01*
X146359274Y-119193502D01*
X146319500Y-119393461D01*
X140996915Y-119393461D01*
X141108905Y-119225856D01*
X141186926Y-119037498D01*
X141226700Y-118837539D01*
X141226700Y-118633661D01*
X141186926Y-118433702D01*
X141108905Y-118245344D01*
X140995637Y-118075826D01*
X140851474Y-117931663D01*
X140681956Y-117818395D01*
X140493598Y-117740374D01*
X140435216Y-117728761D01*
X148294200Y-117728761D01*
X148294200Y-117932639D01*
X148333974Y-118132598D01*
X148411995Y-118320956D01*
X148525263Y-118490474D01*
X148669426Y-118634637D01*
X148838944Y-118747905D01*
X149027302Y-118825926D01*
X149227261Y-118865700D01*
X149431139Y-118865700D01*
X149631098Y-118825926D01*
X149819456Y-118747905D01*
X149988974Y-118634637D01*
X150133137Y-118490474D01*
X150246405Y-118320956D01*
X150324426Y-118132598D01*
X150354807Y-117979861D01*
X151246400Y-117979861D01*
X151246400Y-118183739D01*
X151286174Y-118383698D01*
X151364195Y-118572056D01*
X151477463Y-118741574D01*
X151621626Y-118885737D01*
X151791144Y-118999005D01*
X151979502Y-119077026D01*
X152179461Y-119116800D01*
X152383339Y-119116800D01*
X152583298Y-119077026D01*
X152771656Y-118999005D01*
X152941174Y-118885737D01*
X153085337Y-118741574D01*
X153198605Y-118572056D01*
X153276626Y-118383698D01*
X153290815Y-118312361D01*
X154363300Y-118312361D01*
X154363300Y-118516239D01*
X154403074Y-118716198D01*
X154481095Y-118904556D01*
X154594363Y-119074074D01*
X154738526Y-119218237D01*
X154908044Y-119331505D01*
X155096402Y-119409526D01*
X155296361Y-119449300D01*
X155500239Y-119449300D01*
X155700198Y-119409526D01*
X155888556Y-119331505D01*
X156058074Y-119218237D01*
X156202237Y-119074074D01*
X156315505Y-118904556D01*
X156377304Y-118755361D01*
X157587000Y-118755361D01*
X157587000Y-118959239D01*
X157626774Y-119159198D01*
X157704795Y-119347556D01*
X157818063Y-119517074D01*
X157962226Y-119661237D01*
X158131744Y-119774505D01*
X158320102Y-119852526D01*
X158520061Y-119892300D01*
X158723939Y-119892300D01*
X158923898Y-119852526D01*
X159112256Y-119774505D01*
X159281774Y-119661237D01*
X159425937Y-119517074D01*
X159539205Y-119347556D01*
X159617226Y-119159198D01*
X159657000Y-118959239D01*
X159657000Y-118755361D01*
X159617226Y-118555402D01*
X159539205Y-118367044D01*
X159452822Y-118237761D01*
X160383400Y-118237761D01*
X160383400Y-118441639D01*
X160423174Y-118641598D01*
X160501195Y-118829956D01*
X160614463Y-118999474D01*
X160758626Y-119143637D01*
X160928144Y-119256905D01*
X161116502Y-119334926D01*
X161316461Y-119374700D01*
X161520339Y-119374700D01*
X161720298Y-119334926D01*
X161908656Y-119256905D01*
X162078174Y-119143637D01*
X162222337Y-118999474D01*
X162335605Y-118829956D01*
X162413626Y-118641598D01*
X162453400Y-118441639D01*
X162453400Y-118237761D01*
X162413626Y-118037802D01*
X162335605Y-117849444D01*
X162222337Y-117679926D01*
X162078174Y-117535763D01*
X161908656Y-117422495D01*
X161720298Y-117344474D01*
X161520339Y-117304700D01*
X161316461Y-117304700D01*
X161116502Y-117344474D01*
X160928144Y-117422495D01*
X160758626Y-117535763D01*
X160614463Y-117679926D01*
X160501195Y-117849444D01*
X160423174Y-118037802D01*
X160383400Y-118237761D01*
X159452822Y-118237761D01*
X159425937Y-118197526D01*
X159281774Y-118053363D01*
X159112256Y-117940095D01*
X158923898Y-117862074D01*
X158723939Y-117822300D01*
X158520061Y-117822300D01*
X158320102Y-117862074D01*
X158131744Y-117940095D01*
X157962226Y-118053363D01*
X157818063Y-118197526D01*
X157704795Y-118367044D01*
X157626774Y-118555402D01*
X157587000Y-118755361D01*
X156377304Y-118755361D01*
X156393526Y-118716198D01*
X156433300Y-118516239D01*
X156433300Y-118312361D01*
X156393526Y-118112402D01*
X156315505Y-117924044D01*
X156202237Y-117754526D01*
X156058074Y-117610363D01*
X155888556Y-117497095D01*
X155700198Y-117419074D01*
X155500239Y-117379300D01*
X155296361Y-117379300D01*
X155096402Y-117419074D01*
X154908044Y-117497095D01*
X154738526Y-117610363D01*
X154594363Y-117754526D01*
X154481095Y-117924044D01*
X154403074Y-118112402D01*
X154363300Y-118312361D01*
X153290815Y-118312361D01*
X153316400Y-118183739D01*
X153316400Y-117979861D01*
X153276626Y-117779902D01*
X153198605Y-117591544D01*
X153085337Y-117422026D01*
X152941174Y-117277863D01*
X152771656Y-117164595D01*
X152583298Y-117086574D01*
X152383339Y-117046800D01*
X152179461Y-117046800D01*
X151979502Y-117086574D01*
X151791144Y-117164595D01*
X151621626Y-117277863D01*
X151477463Y-117422026D01*
X151364195Y-117591544D01*
X151286174Y-117779902D01*
X151246400Y-117979861D01*
X150354807Y-117979861D01*
X150364200Y-117932639D01*
X150364200Y-117728761D01*
X150324426Y-117528802D01*
X150246405Y-117340444D01*
X150133137Y-117170926D01*
X149988974Y-117026763D01*
X149819456Y-116913495D01*
X149631098Y-116835474D01*
X149431139Y-116795700D01*
X149227261Y-116795700D01*
X149027302Y-116835474D01*
X148838944Y-116913495D01*
X148669426Y-117026763D01*
X148525263Y-117170926D01*
X148411995Y-117340444D01*
X148333974Y-117528802D01*
X148294200Y-117728761D01*
X140435216Y-117728761D01*
X140293639Y-117700600D01*
X140089761Y-117700600D01*
X139889802Y-117740374D01*
X139701444Y-117818395D01*
X139531926Y-117931663D01*
X139387763Y-118075826D01*
X139274495Y-118245344D01*
X139196474Y-118433702D01*
X139156700Y-118633661D01*
X139053101Y-118633661D01*
X139097405Y-118567356D01*
X139175426Y-118378998D01*
X139215200Y-118179039D01*
X139215200Y-117975161D01*
X139175426Y-117775202D01*
X139097405Y-117586844D01*
X138984137Y-117417326D01*
X138839974Y-117273163D01*
X138670456Y-117159895D01*
X138482098Y-117081874D01*
X138282139Y-117042100D01*
X138078261Y-117042100D01*
X137878302Y-117081874D01*
X137689944Y-117159895D01*
X137520426Y-117273163D01*
X137376263Y-117417326D01*
X137262995Y-117586844D01*
X137207054Y-117721897D01*
X137182656Y-117705595D01*
X136994298Y-117627574D01*
X136794339Y-117587800D01*
X136590461Y-117587800D01*
X136504300Y-117604938D01*
X136504300Y-117549261D01*
X136464526Y-117349302D01*
X136386505Y-117160944D01*
X136273237Y-116991426D01*
X136129074Y-116847263D01*
X135959556Y-116733995D01*
X135771198Y-116655974D01*
X135571239Y-116616200D01*
X135367361Y-116616200D01*
X135189113Y-116651655D01*
X135134437Y-116569826D01*
X134990274Y-116425663D01*
X134820756Y-116312395D01*
X134632398Y-116234374D01*
X134432439Y-116194600D01*
X134228561Y-116194600D01*
X134028602Y-116234374D01*
X133840244Y-116312395D01*
X133670726Y-116425663D01*
X133526563Y-116569826D01*
X133413295Y-116739344D01*
X133335274Y-116927702D01*
X133295500Y-117127661D01*
X133295500Y-117331539D01*
X133321327Y-117461379D01*
X133230656Y-117400795D01*
X133042298Y-117322774D01*
X132842339Y-117283000D01*
X132638461Y-117283000D01*
X132438502Y-117322774D01*
X132250144Y-117400795D01*
X132080626Y-117514063D01*
X131936463Y-117658226D01*
X131823195Y-117827744D01*
X131745174Y-118016102D01*
X131705400Y-118216061D01*
X130753400Y-118216061D01*
X130753400Y-118177861D01*
X130713626Y-117977902D01*
X130635605Y-117789544D01*
X130522337Y-117620026D01*
X130378174Y-117475863D01*
X130208656Y-117362595D01*
X130020298Y-117284574D01*
X129820339Y-117244800D01*
X129616461Y-117244800D01*
X129416502Y-117284574D01*
X129228144Y-117362595D01*
X129058626Y-117475863D01*
X128914463Y-117620026D01*
X128801195Y-117789544D01*
X128723174Y-117977902D01*
X128683400Y-118177861D01*
X128170092Y-118177861D01*
X128203705Y-118127556D01*
X128281726Y-117939198D01*
X128321500Y-117739239D01*
X128321500Y-117535361D01*
X128281726Y-117335402D01*
X128203705Y-117147044D01*
X128090437Y-116977526D01*
X127946274Y-116833363D01*
X127776756Y-116720095D01*
X127588398Y-116642074D01*
X127388439Y-116602300D01*
X127184561Y-116602300D01*
X126984602Y-116642074D01*
X126796244Y-116720095D01*
X126626726Y-116833363D01*
X126482563Y-116977526D01*
X126369295Y-117147044D01*
X126291274Y-117335402D01*
X126251500Y-117535361D01*
X119860118Y-117535361D01*
X119878110Y-117491925D01*
X119964000Y-117060128D01*
X119964000Y-116619872D01*
X119878110Y-116188075D01*
X119709631Y-115781331D01*
X119465038Y-115415271D01*
X119195628Y-115145861D01*
X128652800Y-115145861D01*
X128652800Y-115349739D01*
X128692574Y-115549698D01*
X128770595Y-115738056D01*
X128883863Y-115907574D01*
X129028026Y-116051737D01*
X129197544Y-116165005D01*
X129385902Y-116243026D01*
X129585861Y-116282800D01*
X129789739Y-116282800D01*
X129790280Y-116282692D01*
X129787800Y-116295161D01*
X129787800Y-116499039D01*
X129827574Y-116698998D01*
X129905595Y-116887356D01*
X130018863Y-117056874D01*
X130163026Y-117201037D01*
X130332544Y-117314305D01*
X130520902Y-117392326D01*
X130720861Y-117432100D01*
X130924739Y-117432100D01*
X131124698Y-117392326D01*
X131313056Y-117314305D01*
X131482574Y-117201037D01*
X131626737Y-117056874D01*
X131740005Y-116887356D01*
X131818026Y-116698998D01*
X131829569Y-116640967D01*
X131831402Y-116641726D01*
X132031361Y-116681500D01*
X132235239Y-116681500D01*
X132435198Y-116641726D01*
X132623556Y-116563705D01*
X132793074Y-116450437D01*
X132937237Y-116306274D01*
X133050505Y-116136756D01*
X133128526Y-115948398D01*
X133168300Y-115748439D01*
X133168300Y-115544561D01*
X133128526Y-115344602D01*
X133050505Y-115156244D01*
X132937237Y-114986726D01*
X132793074Y-114842563D01*
X132728568Y-114799461D01*
X136067500Y-114799461D01*
X136067500Y-115003339D01*
X136107274Y-115203298D01*
X136185295Y-115391656D01*
X136298563Y-115561174D01*
X136442726Y-115705337D01*
X136612244Y-115818605D01*
X136800602Y-115896626D01*
X137000561Y-115936400D01*
X137204439Y-115936400D01*
X137404398Y-115896626D01*
X137592756Y-115818605D01*
X137762274Y-115705337D01*
X137906437Y-115561174D01*
X137961236Y-115479161D01*
X142199900Y-115479161D01*
X142199900Y-115683039D01*
X142239674Y-115882998D01*
X142317695Y-116071356D01*
X142430963Y-116240874D01*
X142575126Y-116385037D01*
X142744644Y-116498305D01*
X142933002Y-116576326D01*
X143132961Y-116616100D01*
X143336839Y-116616100D01*
X143536798Y-116576326D01*
X143725156Y-116498305D01*
X143894674Y-116385037D01*
X144038837Y-116240874D01*
X144152105Y-116071356D01*
X144230126Y-115882998D01*
X144269900Y-115683039D01*
X144269900Y-115479161D01*
X144230126Y-115279202D01*
X144165947Y-115124261D01*
X152401400Y-115124261D01*
X152401400Y-115328139D01*
X152441174Y-115528098D01*
X152519195Y-115716456D01*
X152632463Y-115885974D01*
X152776626Y-116030137D01*
X152946144Y-116143405D01*
X153134502Y-116221426D01*
X153334461Y-116261200D01*
X153538339Y-116261200D01*
X153738298Y-116221426D01*
X153926656Y-116143405D01*
X154096174Y-116030137D01*
X154240337Y-115885974D01*
X154353605Y-115716456D01*
X154431626Y-115528098D01*
X154471400Y-115328139D01*
X154471400Y-115124261D01*
X154431626Y-114924302D01*
X154353605Y-114735944D01*
X154240337Y-114566426D01*
X154096174Y-114422263D01*
X153926656Y-114308995D01*
X153738298Y-114230974D01*
X153644221Y-114212261D01*
X157106000Y-114212261D01*
X157106000Y-114416139D01*
X157145774Y-114616098D01*
X157223795Y-114804456D01*
X157337063Y-114973974D01*
X157481226Y-115118137D01*
X157650744Y-115231405D01*
X157839102Y-115309426D01*
X158039061Y-115349200D01*
X158242939Y-115349200D01*
X158351726Y-115327561D01*
X160386000Y-115327561D01*
X160386000Y-115531439D01*
X160425774Y-115731398D01*
X160503795Y-115919756D01*
X160617063Y-116089274D01*
X160761226Y-116233437D01*
X160930744Y-116346705D01*
X161119102Y-116424726D01*
X161190293Y-116438887D01*
X161212474Y-116550398D01*
X161290495Y-116738756D01*
X161403763Y-116908274D01*
X161547926Y-117052437D01*
X161717444Y-117165705D01*
X161905802Y-117243726D01*
X162105761Y-117283500D01*
X162309639Y-117283500D01*
X162509598Y-117243726D01*
X162697956Y-117165705D01*
X162867474Y-117052437D01*
X163011637Y-116908274D01*
X163103520Y-116770761D01*
X167891600Y-116770761D01*
X167891600Y-116974639D01*
X167931374Y-117174598D01*
X168009395Y-117362956D01*
X168122663Y-117532474D01*
X168266826Y-117676637D01*
X168436344Y-117789905D01*
X168624702Y-117867926D01*
X168824661Y-117907700D01*
X169028539Y-117907700D01*
X169177563Y-117878057D01*
X169145200Y-118040761D01*
X169145200Y-118244639D01*
X169184974Y-118444598D01*
X169262995Y-118632956D01*
X169376263Y-118802474D01*
X169520426Y-118946637D01*
X169689944Y-119059905D01*
X169878302Y-119137926D01*
X170078261Y-119177700D01*
X170282139Y-119177700D01*
X170482098Y-119137926D01*
X170670456Y-119059905D01*
X170839974Y-118946637D01*
X170984137Y-118802474D01*
X171097405Y-118632956D01*
X171175426Y-118444598D01*
X171215200Y-118244639D01*
X171215200Y-118040761D01*
X171175426Y-117840802D01*
X171097405Y-117652444D01*
X170984137Y-117482926D01*
X170944472Y-117443261D01*
X172735600Y-117443261D01*
X172735600Y-117647139D01*
X172775374Y-117847098D01*
X172853395Y-118035456D01*
X172966663Y-118204974D01*
X173110826Y-118349137D01*
X173280344Y-118462405D01*
X173468702Y-118540426D01*
X173668661Y-118580200D01*
X173872539Y-118580200D01*
X174072498Y-118540426D01*
X174260856Y-118462405D01*
X174430374Y-118349137D01*
X174574537Y-118204974D01*
X174606684Y-118156861D01*
X175514800Y-118156861D01*
X175514800Y-118360739D01*
X175554574Y-118560698D01*
X175632595Y-118749056D01*
X175745863Y-118918574D01*
X175890026Y-119062737D01*
X176059544Y-119176005D01*
X176247902Y-119254026D01*
X176447861Y-119293800D01*
X176651739Y-119293800D01*
X176851698Y-119254026D01*
X177040056Y-119176005D01*
X177209574Y-119062737D01*
X177353737Y-118918574D01*
X177467005Y-118749056D01*
X177545026Y-118560698D01*
X177584800Y-118360739D01*
X177584800Y-118156861D01*
X177545026Y-117956902D01*
X177467005Y-117768544D01*
X177353737Y-117599026D01*
X177209574Y-117454863D01*
X177040056Y-117341595D01*
X176851698Y-117263574D01*
X176651739Y-117223800D01*
X176447861Y-117223800D01*
X176247902Y-117263574D01*
X176059544Y-117341595D01*
X175890026Y-117454863D01*
X175745863Y-117599026D01*
X175632595Y-117768544D01*
X175554574Y-117956902D01*
X175514800Y-118156861D01*
X174606684Y-118156861D01*
X174687805Y-118035456D01*
X174765826Y-117847098D01*
X174805600Y-117647139D01*
X174805600Y-117443261D01*
X174765826Y-117243302D01*
X174687805Y-117054944D01*
X174574537Y-116885426D01*
X174430374Y-116741263D01*
X174260856Y-116627995D01*
X174072498Y-116549974D01*
X173872539Y-116510200D01*
X173668661Y-116510200D01*
X173468702Y-116549974D01*
X173280344Y-116627995D01*
X173110826Y-116741263D01*
X172966663Y-116885426D01*
X172853395Y-117054944D01*
X172775374Y-117243302D01*
X172735600Y-117443261D01*
X170944472Y-117443261D01*
X170839974Y-117338763D01*
X170670456Y-117225495D01*
X170482098Y-117147474D01*
X170282139Y-117107700D01*
X170078261Y-117107700D01*
X169929237Y-117137343D01*
X169961600Y-116974639D01*
X169961600Y-116770761D01*
X169921826Y-116570802D01*
X169843805Y-116382444D01*
X169730537Y-116212926D01*
X169586374Y-116068763D01*
X169416856Y-115955495D01*
X169228498Y-115877474D01*
X169028539Y-115837700D01*
X168824661Y-115837700D01*
X168624702Y-115877474D01*
X168436344Y-115955495D01*
X168266826Y-116068763D01*
X168122663Y-116212926D01*
X168009395Y-116382444D01*
X167931374Y-116570802D01*
X167891600Y-116770761D01*
X163103520Y-116770761D01*
X163124905Y-116738756D01*
X163202926Y-116550398D01*
X163242700Y-116350439D01*
X163242700Y-116146561D01*
X163202926Y-115946602D01*
X163124905Y-115758244D01*
X163011637Y-115588726D01*
X162867474Y-115444563D01*
X162700600Y-115333061D01*
X164318400Y-115333061D01*
X164318400Y-115536939D01*
X164358174Y-115736898D01*
X164436195Y-115925256D01*
X164549463Y-116094774D01*
X164693626Y-116238937D01*
X164863144Y-116352205D01*
X165051502Y-116430226D01*
X165251461Y-116470000D01*
X165455339Y-116470000D01*
X165655298Y-116430226D01*
X165843656Y-116352205D01*
X166013174Y-116238937D01*
X166157337Y-116094774D01*
X166270605Y-115925256D01*
X166348626Y-115736898D01*
X166375366Y-115602461D01*
X174136600Y-115602461D01*
X174136600Y-115806339D01*
X174176374Y-116006298D01*
X174254395Y-116194656D01*
X174367663Y-116364174D01*
X174511826Y-116508337D01*
X174681344Y-116621605D01*
X174869702Y-116699626D01*
X175069661Y-116739400D01*
X175273539Y-116739400D01*
X175473498Y-116699626D01*
X175661856Y-116621605D01*
X175831374Y-116508337D01*
X175975537Y-116364174D01*
X176088805Y-116194656D01*
X176166826Y-116006298D01*
X176206600Y-115806339D01*
X176206600Y-115602461D01*
X176166826Y-115402502D01*
X176088805Y-115214144D01*
X175975537Y-115044626D01*
X175900672Y-114969761D01*
X177402900Y-114969761D01*
X177402900Y-115173639D01*
X177442674Y-115373598D01*
X177520695Y-115561956D01*
X177633963Y-115731474D01*
X177778126Y-115875637D01*
X177947644Y-115988905D01*
X178136002Y-116066926D01*
X178335961Y-116106700D01*
X178539839Y-116106700D01*
X178739798Y-116066926D01*
X178928156Y-115988905D01*
X179097674Y-115875637D01*
X179241837Y-115731474D01*
X179355105Y-115561956D01*
X179433126Y-115373598D01*
X179472796Y-115174161D01*
X180024300Y-115174161D01*
X180024300Y-115378039D01*
X180064074Y-115577998D01*
X180142095Y-115766356D01*
X180255363Y-115935874D01*
X180399526Y-116080037D01*
X180569044Y-116193305D01*
X180757402Y-116271326D01*
X180957361Y-116311100D01*
X181161239Y-116311100D01*
X181361198Y-116271326D01*
X181549556Y-116193305D01*
X181719074Y-116080037D01*
X181863237Y-115935874D01*
X181976505Y-115766356D01*
X182054526Y-115577998D01*
X182069690Y-115501761D01*
X186962800Y-115501761D01*
X186962800Y-115705639D01*
X187002574Y-115905598D01*
X187080595Y-116093956D01*
X187193863Y-116263474D01*
X187338026Y-116407637D01*
X187507544Y-116520905D01*
X187695902Y-116598926D01*
X187895861Y-116638700D01*
X188099739Y-116638700D01*
X188194394Y-116619872D01*
X197663000Y-116619872D01*
X197663000Y-117060128D01*
X197748890Y-117491925D01*
X197917369Y-117898669D01*
X198161962Y-118264729D01*
X198473271Y-118576038D01*
X198839331Y-118820631D01*
X199246075Y-118989110D01*
X199677872Y-119075000D01*
X200118128Y-119075000D01*
X200549925Y-118989110D01*
X200956669Y-118820631D01*
X201322729Y-118576038D01*
X201634038Y-118264729D01*
X201878631Y-117898669D01*
X202047110Y-117491925D01*
X202133000Y-117060128D01*
X202133000Y-116619872D01*
X202047110Y-116188075D01*
X201878631Y-115781331D01*
X201634038Y-115415271D01*
X201322729Y-115103962D01*
X200956669Y-114859369D01*
X200549925Y-114690890D01*
X200118128Y-114605000D01*
X199677872Y-114605000D01*
X199246075Y-114690890D01*
X198839331Y-114859369D01*
X198473271Y-115103962D01*
X198161962Y-115415271D01*
X197917369Y-115781331D01*
X197748890Y-116188075D01*
X197663000Y-116619872D01*
X188194394Y-116619872D01*
X188299698Y-116598926D01*
X188488056Y-116520905D01*
X188657574Y-116407637D01*
X188801737Y-116263474D01*
X188915005Y-116093956D01*
X188993026Y-115905598D01*
X189032800Y-115705639D01*
X189032800Y-115501761D01*
X188993026Y-115301802D01*
X188915005Y-115113444D01*
X188801737Y-114943926D01*
X188657574Y-114799763D01*
X188488056Y-114686495D01*
X188299698Y-114608474D01*
X188099739Y-114568700D01*
X187895861Y-114568700D01*
X187695902Y-114608474D01*
X187507544Y-114686495D01*
X187338026Y-114799763D01*
X187193863Y-114943926D01*
X187080595Y-115113444D01*
X187002574Y-115301802D01*
X186962800Y-115501761D01*
X182069690Y-115501761D01*
X182094300Y-115378039D01*
X182094300Y-115174161D01*
X182054526Y-114974202D01*
X181976505Y-114785844D01*
X181863237Y-114616326D01*
X181719074Y-114472163D01*
X181549556Y-114358895D01*
X181361198Y-114280874D01*
X181161239Y-114241100D01*
X180957361Y-114241100D01*
X180757402Y-114280874D01*
X180569044Y-114358895D01*
X180399526Y-114472163D01*
X180255363Y-114616326D01*
X180142095Y-114785844D01*
X180064074Y-114974202D01*
X180024300Y-115174161D01*
X179472796Y-115174161D01*
X179472900Y-115173639D01*
X179472900Y-114969761D01*
X179433126Y-114769802D01*
X179355105Y-114581444D01*
X179241837Y-114411926D01*
X179097674Y-114267763D01*
X178928156Y-114154495D01*
X178739798Y-114076474D01*
X178539839Y-114036700D01*
X178335961Y-114036700D01*
X178136002Y-114076474D01*
X177947644Y-114154495D01*
X177778126Y-114267763D01*
X177633963Y-114411926D01*
X177520695Y-114581444D01*
X177442674Y-114769802D01*
X177402900Y-114969761D01*
X175900672Y-114969761D01*
X175831374Y-114900463D01*
X175661856Y-114787195D01*
X175473498Y-114709174D01*
X175273539Y-114669400D01*
X175069661Y-114669400D01*
X174869702Y-114709174D01*
X174681344Y-114787195D01*
X174511826Y-114900463D01*
X174367663Y-115044626D01*
X174254395Y-115214144D01*
X174176374Y-115402502D01*
X174136600Y-115602461D01*
X166375366Y-115602461D01*
X166388400Y-115536939D01*
X166388400Y-115333061D01*
X166348626Y-115133102D01*
X166270605Y-114944744D01*
X166157337Y-114775226D01*
X166013174Y-114631063D01*
X165843656Y-114517795D01*
X165655298Y-114439774D01*
X165455339Y-114400000D01*
X165251461Y-114400000D01*
X165051502Y-114439774D01*
X164863144Y-114517795D01*
X164693626Y-114631063D01*
X164549463Y-114775226D01*
X164436195Y-114944744D01*
X164358174Y-115133102D01*
X164318400Y-115333061D01*
X162700600Y-115333061D01*
X162697956Y-115331295D01*
X162509598Y-115253274D01*
X162438407Y-115239113D01*
X162416226Y-115127602D01*
X162338205Y-114939244D01*
X162224937Y-114769726D01*
X162080774Y-114625563D01*
X161911256Y-114512295D01*
X161722898Y-114434274D01*
X161522939Y-114394500D01*
X161319061Y-114394500D01*
X161119102Y-114434274D01*
X160930744Y-114512295D01*
X160761226Y-114625563D01*
X160617063Y-114769726D01*
X160503795Y-114939244D01*
X160425774Y-115127602D01*
X160386000Y-115327561D01*
X158351726Y-115327561D01*
X158442898Y-115309426D01*
X158631256Y-115231405D01*
X158800774Y-115118137D01*
X158944937Y-114973974D01*
X159058205Y-114804456D01*
X159136226Y-114616098D01*
X159176000Y-114416139D01*
X159176000Y-114212261D01*
X159136226Y-114012302D01*
X159058205Y-113823944D01*
X158944937Y-113654426D01*
X158800774Y-113510263D01*
X158631256Y-113396995D01*
X158442898Y-113318974D01*
X158242939Y-113279200D01*
X158039061Y-113279200D01*
X157839102Y-113318974D01*
X157650744Y-113396995D01*
X157481226Y-113510263D01*
X157337063Y-113654426D01*
X157223795Y-113823944D01*
X157145774Y-114012302D01*
X157106000Y-114212261D01*
X153644221Y-114212261D01*
X153538339Y-114191200D01*
X153334461Y-114191200D01*
X153134502Y-114230974D01*
X152946144Y-114308995D01*
X152776626Y-114422263D01*
X152632463Y-114566426D01*
X152519195Y-114735944D01*
X152441174Y-114924302D01*
X152401400Y-115124261D01*
X144165947Y-115124261D01*
X144152105Y-115090844D01*
X144038837Y-114921326D01*
X143894674Y-114777163D01*
X143725156Y-114663895D01*
X143536798Y-114585874D01*
X143336839Y-114546100D01*
X143132961Y-114546100D01*
X142933002Y-114585874D01*
X142744644Y-114663895D01*
X142575126Y-114777163D01*
X142430963Y-114921326D01*
X142317695Y-115090844D01*
X142239674Y-115279202D01*
X142199900Y-115479161D01*
X137961236Y-115479161D01*
X138019705Y-115391656D01*
X138097726Y-115203298D01*
X138137500Y-115003339D01*
X138137500Y-114799461D01*
X138097726Y-114599502D01*
X138019705Y-114411144D01*
X137906437Y-114241626D01*
X137762274Y-114097463D01*
X137592756Y-113984195D01*
X137404398Y-113906174D01*
X137204439Y-113866400D01*
X137000561Y-113866400D01*
X136800602Y-113906174D01*
X136612244Y-113984195D01*
X136442726Y-114097463D01*
X136298563Y-114241626D01*
X136185295Y-114411144D01*
X136107274Y-114599502D01*
X136067500Y-114799461D01*
X132728568Y-114799461D01*
X132623556Y-114729295D01*
X132435198Y-114651274D01*
X132235239Y-114611500D01*
X132031361Y-114611500D01*
X131831402Y-114651274D01*
X131643044Y-114729295D01*
X131473526Y-114842563D01*
X131329363Y-114986726D01*
X131216095Y-115156244D01*
X131138074Y-115344602D01*
X131126531Y-115402633D01*
X131124698Y-115401874D01*
X130924739Y-115362100D01*
X130720861Y-115362100D01*
X130720320Y-115362208D01*
X130722800Y-115349739D01*
X130722800Y-115145861D01*
X130683026Y-114945902D01*
X130605005Y-114757544D01*
X130491737Y-114588026D01*
X130347574Y-114443863D01*
X130178056Y-114330595D01*
X129989698Y-114252574D01*
X129789739Y-114212800D01*
X129585861Y-114212800D01*
X129385902Y-114252574D01*
X129197544Y-114330595D01*
X129028026Y-114443863D01*
X128883863Y-114588026D01*
X128770595Y-114757544D01*
X128692574Y-114945902D01*
X128652800Y-115145861D01*
X119195628Y-115145861D01*
X119153729Y-115103962D01*
X118787669Y-114859369D01*
X118380925Y-114690890D01*
X117949128Y-114605000D01*
X117508872Y-114605000D01*
X117077075Y-114690890D01*
X116670331Y-114859369D01*
X116304271Y-115103962D01*
X115992962Y-115415271D01*
X115748369Y-115781331D01*
X115579890Y-116188075D01*
X115494000Y-116619872D01*
X114960000Y-116619872D01*
X114960000Y-111023000D01*
X128200266Y-111023000D01*
X128198774Y-111026602D01*
G37*
%TD.AperFunction*%
%TD*%
M02*
