%TF.GenerationSoftware,KiCad,Pcbnew,(5.1.9)-1*%
%TF.CreationDate,2021-01-13T00:02:16+11:00*%
%TF.ProjectId,1M-30pinsimm,314d2d33-3070-4696-9e73-696d6d2e6b69,rev?*%
%TF.SameCoordinates,Original*%
%TF.FileFunction,Copper,L4,Bot*%
%TF.FilePolarity,Positive*%
%FSLAX46Y46*%
G04 Gerber Fmt 4.6, Leading zero omitted, Abs format (unit mm)*
G04 Created by KiCad (PCBNEW (5.1.9)-1) date 2021-01-13 00:02:16*
%MOMM*%
%LPD*%
G01*
G04 APERTURE LIST*
%TA.AperFunction,ComponentPad*%
%ADD10R,1.780000X3.500000*%
%TD*%
%TA.AperFunction,ViaPad*%
%ADD11C,0.800000*%
%TD*%
%TA.AperFunction,Conductor*%
%ADD12C,0.250000*%
%TD*%
%TA.AperFunction,Conductor*%
%ADD13C,0.254000*%
%TD*%
%TA.AperFunction,Conductor*%
%ADD14C,0.100000*%
%TD*%
G04 APERTURE END LIST*
D10*
%TO.P,B1,21*%
%TO.N,WE*%
X172974000Y-125098000D03*
%TO.P,B1,20*%
%TO.N,DQ5*%
X170434000Y-125098000D03*
%TO.P,B1,29*%
%TO.N,DP*%
X193294000Y-125098000D03*
%TO.P,B1,28*%
%TO.N,CASP*%
X190754000Y-125098000D03*
%TO.P,B1,27*%
%TO.N,RAS*%
X188214000Y-125098000D03*
%TO.P,B1,19*%
%TO.N,Net-(B1-Pad19)*%
X167894000Y-125098000D03*
%TO.P,B1,30*%
%TO.N,+5V*%
X195834000Y-125098000D03*
%TO.P,B1,26*%
%TO.N,QP*%
X185674000Y-125098000D03*
%TO.P,B1,17*%
%TO.N,A8*%
X162814000Y-125098000D03*
%TO.P,B1,25*%
%TO.N,DQ7*%
X183134000Y-125098000D03*
%TO.P,B1,22*%
%TO.N,GND*%
X175514000Y-125098000D03*
%TO.P,B1,18*%
%TO.N,A9*%
X165354000Y-125098000D03*
%TO.P,B1,24*%
%TO.N,Net-(B1-Pad24)*%
X180594000Y-125098000D03*
%TO.P,B1,23*%
%TO.N,DQ6*%
X178054000Y-125098000D03*
%TO.P,B1,12*%
%TO.N,A5*%
X150114000Y-125098000D03*
%TO.P,B1,11*%
%TO.N,A4*%
X147574000Y-125098000D03*
%TO.P,B1,10*%
%TO.N,DQ2*%
X145034000Y-125098000D03*
%TO.P,B1,16*%
%TO.N,DQ4*%
X160274000Y-125098000D03*
%TO.P,B1,13*%
%TO.N,DQ3*%
X152654000Y-125098000D03*
%TO.P,B1,9*%
%TO.N,GND*%
X142494000Y-125098000D03*
%TO.P,B1,15*%
%TO.N,A7*%
X157734000Y-125098000D03*
%TO.P,B1,14*%
%TO.N,A6*%
X155194000Y-125098000D03*
%TO.P,B1,7*%
%TO.N,A2*%
X137414000Y-125098000D03*
%TO.P,B1,8*%
%TO.N,A3*%
X139954000Y-125098000D03*
%TO.P,B1,6*%
%TO.N,DQ1*%
X134874000Y-125098000D03*
%TO.P,B1,5*%
%TO.N,A1*%
X132334000Y-125098000D03*
%TO.P,B1,4*%
%TO.N,A0*%
X129794000Y-125098000D03*
%TO.P,B1,3*%
%TO.N,DQ0*%
X127254000Y-125098000D03*
%TO.P,B1,2*%
%TO.N,CAS*%
X124714000Y-125098000D03*
%TO.P,B1,1*%
%TO.N,+5V*%
X122174000Y-125098000D03*
%TD*%
D11*
%TO.N,GND*%
X123190000Y-111760000D03*
%TO.N,WE*%
X149922800Y-112748300D03*
X160265200Y-112812600D03*
X187997800Y-115603700D03*
%TO.N,DQ5*%
X165353400Y-115435000D03*
%TO.N,CASP*%
X188529500Y-122036800D03*
%TO.N,+5V*%
X124728100Y-118582800D03*
X170180200Y-118142700D03*
X147354500Y-119495400D03*
%TO.N,A8*%
X167402200Y-121348200D03*
X136692400Y-118622800D03*
X157595200Y-121133900D03*
%TO.N,GND*%
X143560500Y-121087900D03*
X190725300Y-122104200D03*
X135955300Y-121373400D03*
X160665000Y-122072300D03*
X166224800Y-118790000D03*
%TO.N,A9*%
X182449000Y-121406200D03*
X173675500Y-121232500D03*
X169309900Y-121117200D03*
X137102500Y-114901400D03*
X153436400Y-115226200D03*
X161421000Y-115429500D03*
%TO.N,A5*%
X173770600Y-117545200D03*
X129718400Y-118279800D03*
X152281400Y-118081800D03*
%TO.N,A4*%
X161418400Y-118339700D03*
X144994700Y-121679700D03*
%TO.N,DQ2*%
X140191700Y-118735600D03*
%TO.N,DQ4*%
X162207700Y-116248500D03*
%TO.N,DQ3*%
X146306300Y-121480400D03*
%TO.N,A7*%
X155398300Y-118414300D03*
X133413800Y-120082000D03*
%TO.N,A6*%
X176549800Y-118258800D03*
X168926600Y-116872700D03*
X132740400Y-118318000D03*
X149329200Y-117830700D03*
%TO.N,A2*%
X175171600Y-115704400D03*
X158141000Y-114314200D03*
X129194000Y-111328500D03*
X128488200Y-122838200D03*
%TO.N,A3*%
X167704900Y-113119300D03*
X146955400Y-112314600D03*
X129687800Y-115247800D03*
X134330500Y-117229600D03*
%TO.N,DQ1*%
X134565300Y-119095300D03*
%TO.N,A1*%
X135178800Y-112265700D03*
X132133300Y-115646500D03*
X153699000Y-111651100D03*
X178437900Y-115071700D03*
%TO.N,A0*%
X132403800Y-111328500D03*
X155565700Y-111454500D03*
X181059300Y-115276100D03*
%TO.N,DQ0*%
X143234900Y-115581100D03*
X130822800Y-116397100D03*
X127286500Y-117637300D03*
%TO.N,CAS*%
X158622000Y-118857300D03*
X135469300Y-117651200D03*
X138180200Y-118077100D03*
%TD*%
D12*
%TO.N,WE*%
X172974000Y-123022700D02*
X172950200Y-122998900D01*
X172950200Y-122998900D02*
X172950200Y-120932100D01*
X172950200Y-120932100D02*
X174898200Y-118984100D01*
X174898200Y-118984100D02*
X176850300Y-118984100D01*
X176850300Y-118984100D02*
X177794200Y-118040200D01*
X177794200Y-118040200D02*
X177794200Y-117141600D01*
X187997800Y-115603700D02*
X186459900Y-117141600D01*
X186459900Y-117141600D02*
X177794200Y-117141600D01*
X177794200Y-117141600D02*
X173046600Y-112394000D01*
X173046600Y-112394000D02*
X160683800Y-112394000D01*
X160683800Y-112394000D02*
X160265200Y-112812600D01*
X160265200Y-112812600D02*
X149987100Y-112812600D01*
X149987100Y-112812600D02*
X149922800Y-112748300D01*
X172974000Y-123698000D02*
X172974000Y-123022700D01*
%TO.N,DQ5*%
X165353400Y-115435000D02*
X170434000Y-120515600D01*
X170434000Y-120515600D02*
X170434000Y-123698000D01*
%TO.N,CASP*%
X190754000Y-123022700D02*
X189515400Y-123022700D01*
X189515400Y-123022700D02*
X188529500Y-122036800D01*
X190754000Y-123698000D02*
X190754000Y-123022700D01*
%TO.N,A8*%
X162814000Y-123698000D02*
X162814000Y-123022700D01*
X162814000Y-123022700D02*
X164488500Y-121348200D01*
X164488500Y-121348200D02*
X167402200Y-121348200D01*
X157595200Y-121133900D02*
X147965700Y-121133900D01*
X147965700Y-121133900D02*
X144827700Y-117995900D01*
X144827700Y-117995900D02*
X139905700Y-117995900D01*
X139905700Y-117995900D02*
X139060100Y-118841500D01*
X139060100Y-118841500D02*
X136911100Y-118841500D01*
X136911100Y-118841500D02*
X136692400Y-118622800D01*
%TO.N,A9*%
X137102500Y-114901400D02*
X137172300Y-114831600D01*
X137172300Y-114831600D02*
X153041800Y-114831600D01*
X153041800Y-114831600D02*
X153436400Y-115226200D01*
X168127500Y-121117200D02*
X168127500Y-121047700D01*
X168127500Y-121047700D02*
X167702700Y-120622900D01*
X167702700Y-120622900D02*
X167032000Y-120622900D01*
X167032000Y-120622900D02*
X165499500Y-119090400D01*
X165499500Y-119090400D02*
X165499500Y-118489400D01*
X165499500Y-118489400D02*
X162439600Y-115429500D01*
X162439600Y-115429500D02*
X161421000Y-115429500D01*
X165354000Y-123022700D02*
X166753500Y-123022700D01*
X166753500Y-123022700D02*
X168127500Y-121648700D01*
X168127500Y-121648700D02*
X168127500Y-121117200D01*
X168127500Y-121117200D02*
X169309900Y-121117200D01*
X173675500Y-121232500D02*
X182275300Y-121232500D01*
X182275300Y-121232500D02*
X182449000Y-121406200D01*
X165354000Y-123698000D02*
X165354000Y-123022700D01*
%TO.N,A5*%
X154252500Y-115090500D02*
X154252500Y-115015700D01*
X154252500Y-115015700D02*
X153408800Y-114172000D01*
X153408800Y-114172000D02*
X131903500Y-114172000D01*
X131903500Y-114172000D02*
X129718400Y-116357100D01*
X129718400Y-116357100D02*
X129718400Y-118279800D01*
X152281400Y-118081800D02*
X154252500Y-116110700D01*
X154252500Y-116110700D02*
X154252500Y-115090500D01*
X154252500Y-115090500D02*
X159462800Y-115090500D01*
X159462800Y-115090500D02*
X159884600Y-114668700D01*
X159884600Y-114668700D02*
X170894100Y-114668700D01*
X170894100Y-114668700D02*
X173770600Y-117545200D01*
%TO.N,A4*%
X145352400Y-121679700D02*
X144994700Y-121679700D01*
X147574000Y-123698000D02*
X147370700Y-123698000D01*
X147370700Y-123698000D02*
X145352400Y-121679700D01*
X145352400Y-121679700D02*
X145352400Y-121408600D01*
X145352400Y-121408600D02*
X146006000Y-120755000D01*
X146006000Y-120755000D02*
X146949900Y-120755000D01*
X146949900Y-120755000D02*
X148100100Y-121905200D01*
X148100100Y-121905200D02*
X157852900Y-121905200D01*
X157852900Y-121905200D02*
X161418400Y-118339700D01*
%TO.N,DQ2*%
X140191700Y-118735600D02*
X140191700Y-118744800D01*
X140191700Y-118744800D02*
X144469600Y-123022700D01*
X144469600Y-123022700D02*
X145034000Y-123022700D01*
X145034000Y-123698000D02*
X145034000Y-123022700D01*
%TO.N,DQ4*%
X160274000Y-123022700D02*
X160780500Y-123022700D01*
X160780500Y-123022700D02*
X162207700Y-121595500D01*
X162207700Y-121595500D02*
X162207700Y-116248500D01*
X160274000Y-123698000D02*
X160274000Y-123022700D01*
%TO.N,DQ3*%
X152654000Y-123698000D02*
X152654000Y-123022700D01*
X152654000Y-123022700D02*
X147848600Y-123022700D01*
X147848600Y-123022700D02*
X146306300Y-121480400D01*
%TO.N,A7*%
X133413800Y-120082000D02*
X133509300Y-119986500D01*
X133509300Y-119986500D02*
X133509300Y-116982000D01*
X133509300Y-116982000D02*
X134012400Y-116478900D01*
X134012400Y-116478900D02*
X135322900Y-116478900D01*
X135322900Y-116478900D02*
X135600700Y-116756700D01*
X135600700Y-116756700D02*
X146605100Y-116756700D01*
X146605100Y-116756700D02*
X148668600Y-118820200D01*
X148668600Y-118820200D02*
X154992400Y-118820200D01*
X154992400Y-118820200D02*
X155398300Y-118414300D01*
%TO.N,A6*%
X168926600Y-116872700D02*
X171872600Y-116872700D01*
X171872600Y-116872700D02*
X173270500Y-118270600D01*
X173270500Y-118270600D02*
X176538000Y-118270600D01*
X176538000Y-118270600D02*
X176549800Y-118258800D01*
X132740400Y-118318000D02*
X132740400Y-117114000D01*
X132740400Y-117114000D02*
X133825900Y-116028500D01*
X133825900Y-116028500D02*
X136525300Y-116028500D01*
X136525300Y-116028500D02*
X136803200Y-116306400D01*
X136803200Y-116306400D02*
X147804900Y-116306400D01*
X147804900Y-116306400D02*
X149329200Y-117830700D01*
%TO.N,A2*%
X158141000Y-114314200D02*
X158236900Y-114218300D01*
X158236900Y-114218300D02*
X173685500Y-114218300D01*
X173685500Y-114218300D02*
X175171600Y-115704400D01*
X128488200Y-122838200D02*
X128488200Y-112034300D01*
X128488200Y-112034300D02*
X129194000Y-111328500D01*
%TO.N,A3*%
X146955400Y-112314600D02*
X145637200Y-113632800D01*
X145637200Y-113632800D02*
X131302800Y-113632800D01*
X131302800Y-113632800D02*
X129687800Y-115247800D01*
X146955400Y-112314600D02*
X148178700Y-113537900D01*
X148178700Y-113537900D02*
X167286300Y-113537900D01*
X167286300Y-113537900D02*
X167704900Y-113119300D01*
X134330500Y-117229600D02*
X134330500Y-117538100D01*
X134330500Y-117538100D02*
X139815100Y-123022700D01*
X139815100Y-123022700D02*
X139954000Y-123022700D01*
X139954000Y-123698000D02*
X139954000Y-123022700D01*
%TO.N,DQ1*%
X134874000Y-123698000D02*
X134874000Y-123022700D01*
X134874000Y-123022700D02*
X134874000Y-119404000D01*
X134874000Y-119404000D02*
X134565300Y-119095300D01*
%TO.N,A1*%
X135178800Y-112265700D02*
X135868900Y-111575600D01*
X135868900Y-111575600D02*
X153623500Y-111575600D01*
X153623500Y-111575600D02*
X153699000Y-111651100D01*
X132334000Y-123698000D02*
X132334000Y-123022700D01*
X132334000Y-123022700D02*
X131996100Y-122684800D01*
X131996100Y-122684800D02*
X131996100Y-115783700D01*
X131996100Y-115783700D02*
X132133300Y-115646500D01*
X178437900Y-115071700D02*
X175279400Y-111913200D01*
X175279400Y-111913200D02*
X157027500Y-111913200D01*
X157027500Y-111913200D02*
X156742300Y-112198400D01*
X156742300Y-112198400D02*
X154246300Y-112198400D01*
X154246300Y-112198400D02*
X153699000Y-111651100D01*
%TO.N,A0*%
X132491300Y-111416000D02*
X133019900Y-110887400D01*
X133019900Y-110887400D02*
X154998600Y-110887400D01*
X154998600Y-110887400D02*
X155565700Y-111454500D01*
X129794000Y-123022700D02*
X128957300Y-122186000D01*
X128957300Y-122186000D02*
X128957300Y-114950000D01*
X128957300Y-114950000D02*
X132491300Y-111416000D01*
X132403800Y-111328500D02*
X132491300Y-111416000D01*
X129794000Y-123698000D02*
X129794000Y-123022700D01*
X181059300Y-115276100D02*
X177237700Y-111454500D01*
X177237700Y-111454500D02*
X155565700Y-111454500D01*
%TO.N,DQ0*%
X143234900Y-115581100D02*
X143140900Y-115675100D01*
X143140900Y-115675100D02*
X136808800Y-115675100D01*
X136808800Y-115675100D02*
X136054900Y-114921200D01*
X136054900Y-114921200D02*
X131832900Y-114921200D01*
X131832900Y-114921200D02*
X130822800Y-115931300D01*
X130822800Y-115931300D02*
X130822800Y-116397100D01*
X127254000Y-123698000D02*
X127254000Y-123022700D01*
X127254000Y-123022700D02*
X127286500Y-122990200D01*
X127286500Y-122990200D02*
X127286500Y-117637300D01*
%TO.N,CAS*%
X138180200Y-118077100D02*
X138731600Y-117525700D01*
X138731600Y-117525700D02*
X146439700Y-117525700D01*
X146439700Y-117525700D02*
X148184600Y-119270600D01*
X148184600Y-119270600D02*
X158208700Y-119270600D01*
X158208700Y-119270600D02*
X158622000Y-118857300D01*
X138180200Y-118077100D02*
X137754300Y-117651200D01*
X137754300Y-117651200D02*
X135469300Y-117651200D01*
%TD*%
D13*
%TO.N,GND*%
X202667000Y-126340000D02*
X197362072Y-126340000D01*
X197362072Y-123348000D01*
X197349812Y-123223518D01*
X197313502Y-123103820D01*
X197254537Y-122993506D01*
X197175185Y-122896815D01*
X197078494Y-122817463D01*
X196968180Y-122758498D01*
X196848482Y-122722188D01*
X196724000Y-122709928D01*
X194944000Y-122709928D01*
X194819518Y-122722188D01*
X194699820Y-122758498D01*
X194589506Y-122817463D01*
X194564000Y-122838395D01*
X194538494Y-122817463D01*
X194428180Y-122758498D01*
X194308482Y-122722188D01*
X194184000Y-122709928D01*
X192404000Y-122709928D01*
X192279518Y-122722188D01*
X192159820Y-122758498D01*
X192049506Y-122817463D01*
X192024000Y-122838395D01*
X191998494Y-122817463D01*
X191888180Y-122758498D01*
X191768482Y-122722188D01*
X191644000Y-122709928D01*
X191448575Y-122709928D01*
X191388974Y-122598424D01*
X191294001Y-122482699D01*
X191178276Y-122387726D01*
X191046247Y-122317154D01*
X190902986Y-122273697D01*
X190791333Y-122262700D01*
X190754000Y-122259023D01*
X190716667Y-122262700D01*
X189830202Y-122262700D01*
X189564500Y-121996998D01*
X189564500Y-121934861D01*
X189524726Y-121734902D01*
X189446705Y-121546544D01*
X189333437Y-121377026D01*
X189189274Y-121232863D01*
X189019756Y-121119595D01*
X188831398Y-121041574D01*
X188631439Y-121001800D01*
X188427561Y-121001800D01*
X188227602Y-121041574D01*
X188039244Y-121119595D01*
X187869726Y-121232863D01*
X187725563Y-121377026D01*
X187612295Y-121546544D01*
X187534274Y-121734902D01*
X187494500Y-121934861D01*
X187494500Y-122138739D01*
X187534274Y-122338698D01*
X187612295Y-122527056D01*
X187725563Y-122696574D01*
X187738917Y-122709928D01*
X187324000Y-122709928D01*
X187199518Y-122722188D01*
X187079820Y-122758498D01*
X186969506Y-122817463D01*
X186944000Y-122838395D01*
X186918494Y-122817463D01*
X186808180Y-122758498D01*
X186688482Y-122722188D01*
X186564000Y-122709928D01*
X184784000Y-122709928D01*
X184659518Y-122722188D01*
X184539820Y-122758498D01*
X184429506Y-122817463D01*
X184404000Y-122838395D01*
X184378494Y-122817463D01*
X184268180Y-122758498D01*
X184148482Y-122722188D01*
X184024000Y-122709928D01*
X182244000Y-122709928D01*
X182119518Y-122722188D01*
X181999820Y-122758498D01*
X181889506Y-122817463D01*
X181864000Y-122838395D01*
X181838494Y-122817463D01*
X181728180Y-122758498D01*
X181608482Y-122722188D01*
X181484000Y-122709928D01*
X179704000Y-122709928D01*
X179579518Y-122722188D01*
X179459820Y-122758498D01*
X179349506Y-122817463D01*
X179324000Y-122838395D01*
X179298494Y-122817463D01*
X179188180Y-122758498D01*
X179068482Y-122722188D01*
X178944000Y-122709928D01*
X177164000Y-122709928D01*
X177039518Y-122722188D01*
X176919820Y-122758498D01*
X176809506Y-122817463D01*
X176784000Y-122838395D01*
X176758494Y-122817463D01*
X176648180Y-122758498D01*
X176528482Y-122722188D01*
X176404000Y-122709928D01*
X175799750Y-122713000D01*
X175641000Y-122871750D01*
X175641000Y-124971000D01*
X175661000Y-124971000D01*
X175661000Y-125225000D01*
X175641000Y-125225000D01*
X175641000Y-125245000D01*
X175387000Y-125245000D01*
X175387000Y-125225000D01*
X175367000Y-125225000D01*
X175367000Y-124971000D01*
X175387000Y-124971000D01*
X175387000Y-122871750D01*
X175228250Y-122713000D01*
X174624000Y-122709928D01*
X174499518Y-122722188D01*
X174379820Y-122758498D01*
X174269506Y-122817463D01*
X174244000Y-122838395D01*
X174218494Y-122817463D01*
X174108180Y-122758498D01*
X173988482Y-122722188D01*
X173864000Y-122709928D01*
X173710200Y-122709928D01*
X173710200Y-122267500D01*
X173777439Y-122267500D01*
X173977398Y-122227726D01*
X174165756Y-122149705D01*
X174335274Y-122036437D01*
X174379211Y-121992500D01*
X181595969Y-121992500D01*
X181645063Y-122065974D01*
X181789226Y-122210137D01*
X181958744Y-122323405D01*
X182147102Y-122401426D01*
X182347061Y-122441200D01*
X182550939Y-122441200D01*
X182750898Y-122401426D01*
X182939256Y-122323405D01*
X183108774Y-122210137D01*
X183252937Y-122065974D01*
X183366205Y-121896456D01*
X183444226Y-121708098D01*
X183484000Y-121508139D01*
X183484000Y-121304261D01*
X183444226Y-121104302D01*
X183366205Y-120915944D01*
X183252937Y-120746426D01*
X183108774Y-120602263D01*
X182939256Y-120488995D01*
X182750898Y-120410974D01*
X182550939Y-120371200D01*
X182347061Y-120371200D01*
X182147102Y-120410974D01*
X181998566Y-120472500D01*
X174484602Y-120472500D01*
X175213002Y-119744100D01*
X176812978Y-119744100D01*
X176850300Y-119747776D01*
X176887622Y-119744100D01*
X176887633Y-119744100D01*
X176999286Y-119733103D01*
X177142547Y-119689646D01*
X177274576Y-119619074D01*
X177390301Y-119524101D01*
X177414104Y-119495098D01*
X178305204Y-118603998D01*
X178334201Y-118580201D01*
X178429174Y-118464476D01*
X178499746Y-118332447D01*
X178543203Y-118189186D01*
X178554200Y-118077533D01*
X178554200Y-118077524D01*
X178557876Y-118040201D01*
X178554200Y-118002878D01*
X178554200Y-117901600D01*
X186422578Y-117901600D01*
X186459900Y-117905276D01*
X186497222Y-117901600D01*
X186497233Y-117901600D01*
X186608886Y-117890603D01*
X186752147Y-117847146D01*
X186884176Y-117776574D01*
X186999901Y-117681601D01*
X187023704Y-117652597D01*
X188037602Y-116638700D01*
X188099739Y-116638700D01*
X188194394Y-116619872D01*
X197663000Y-116619872D01*
X197663000Y-117060128D01*
X197748890Y-117491925D01*
X197917369Y-117898669D01*
X198161962Y-118264729D01*
X198473271Y-118576038D01*
X198839331Y-118820631D01*
X199246075Y-118989110D01*
X199677872Y-119075000D01*
X200118128Y-119075000D01*
X200549925Y-118989110D01*
X200956669Y-118820631D01*
X201322729Y-118576038D01*
X201634038Y-118264729D01*
X201878631Y-117898669D01*
X202047110Y-117491925D01*
X202133000Y-117060128D01*
X202133000Y-116619872D01*
X202047110Y-116188075D01*
X201878631Y-115781331D01*
X201634038Y-115415271D01*
X201322729Y-115103962D01*
X200956669Y-114859369D01*
X200549925Y-114690890D01*
X200118128Y-114605000D01*
X199677872Y-114605000D01*
X199246075Y-114690890D01*
X198839331Y-114859369D01*
X198473271Y-115103962D01*
X198161962Y-115415271D01*
X197917369Y-115781331D01*
X197748890Y-116188075D01*
X197663000Y-116619872D01*
X188194394Y-116619872D01*
X188299698Y-116598926D01*
X188488056Y-116520905D01*
X188657574Y-116407637D01*
X188801737Y-116263474D01*
X188915005Y-116093956D01*
X188993026Y-115905598D01*
X189032800Y-115705639D01*
X189032800Y-115501761D01*
X188993026Y-115301802D01*
X188915005Y-115113444D01*
X188801737Y-114943926D01*
X188657574Y-114799763D01*
X188488056Y-114686495D01*
X188299698Y-114608474D01*
X188099739Y-114568700D01*
X187895861Y-114568700D01*
X187695902Y-114608474D01*
X187507544Y-114686495D01*
X187338026Y-114799763D01*
X187193863Y-114943926D01*
X187080595Y-115113444D01*
X187002574Y-115301802D01*
X186962800Y-115501761D01*
X186962800Y-115563898D01*
X186145099Y-116381600D01*
X178109002Y-116381600D01*
X174400601Y-112673200D01*
X174964599Y-112673200D01*
X177402900Y-115111502D01*
X177402900Y-115173639D01*
X177442674Y-115373598D01*
X177520695Y-115561956D01*
X177633963Y-115731474D01*
X177778126Y-115875637D01*
X177947644Y-115988905D01*
X178136002Y-116066926D01*
X178335961Y-116106700D01*
X178539839Y-116106700D01*
X178739798Y-116066926D01*
X178928156Y-115988905D01*
X179097674Y-115875637D01*
X179241837Y-115731474D01*
X179355105Y-115561956D01*
X179433126Y-115373598D01*
X179472900Y-115173639D01*
X179472900Y-114969761D01*
X179433126Y-114769802D01*
X179401253Y-114692855D01*
X180024300Y-115315902D01*
X180024300Y-115378039D01*
X180064074Y-115577998D01*
X180142095Y-115766356D01*
X180255363Y-115935874D01*
X180399526Y-116080037D01*
X180569044Y-116193305D01*
X180757402Y-116271326D01*
X180957361Y-116311100D01*
X181161239Y-116311100D01*
X181361198Y-116271326D01*
X181549556Y-116193305D01*
X181719074Y-116080037D01*
X181863237Y-115935874D01*
X181976505Y-115766356D01*
X182054526Y-115577998D01*
X182094300Y-115378039D01*
X182094300Y-115174161D01*
X182054526Y-114974202D01*
X181976505Y-114785844D01*
X181863237Y-114616326D01*
X181719074Y-114472163D01*
X181549556Y-114358895D01*
X181361198Y-114280874D01*
X181161239Y-114241100D01*
X181099102Y-114241100D01*
X177881001Y-111023000D01*
X202667001Y-111023000D01*
X202667000Y-126340000D01*
%TA.AperFunction,Conductor*%
D14*
G36*
X202667000Y-126340000D02*
G01*
X197362072Y-126340000D01*
X197362072Y-123348000D01*
X197349812Y-123223518D01*
X197313502Y-123103820D01*
X197254537Y-122993506D01*
X197175185Y-122896815D01*
X197078494Y-122817463D01*
X196968180Y-122758498D01*
X196848482Y-122722188D01*
X196724000Y-122709928D01*
X194944000Y-122709928D01*
X194819518Y-122722188D01*
X194699820Y-122758498D01*
X194589506Y-122817463D01*
X194564000Y-122838395D01*
X194538494Y-122817463D01*
X194428180Y-122758498D01*
X194308482Y-122722188D01*
X194184000Y-122709928D01*
X192404000Y-122709928D01*
X192279518Y-122722188D01*
X192159820Y-122758498D01*
X192049506Y-122817463D01*
X192024000Y-122838395D01*
X191998494Y-122817463D01*
X191888180Y-122758498D01*
X191768482Y-122722188D01*
X191644000Y-122709928D01*
X191448575Y-122709928D01*
X191388974Y-122598424D01*
X191294001Y-122482699D01*
X191178276Y-122387726D01*
X191046247Y-122317154D01*
X190902986Y-122273697D01*
X190791333Y-122262700D01*
X190754000Y-122259023D01*
X190716667Y-122262700D01*
X189830202Y-122262700D01*
X189564500Y-121996998D01*
X189564500Y-121934861D01*
X189524726Y-121734902D01*
X189446705Y-121546544D01*
X189333437Y-121377026D01*
X189189274Y-121232863D01*
X189019756Y-121119595D01*
X188831398Y-121041574D01*
X188631439Y-121001800D01*
X188427561Y-121001800D01*
X188227602Y-121041574D01*
X188039244Y-121119595D01*
X187869726Y-121232863D01*
X187725563Y-121377026D01*
X187612295Y-121546544D01*
X187534274Y-121734902D01*
X187494500Y-121934861D01*
X187494500Y-122138739D01*
X187534274Y-122338698D01*
X187612295Y-122527056D01*
X187725563Y-122696574D01*
X187738917Y-122709928D01*
X187324000Y-122709928D01*
X187199518Y-122722188D01*
X187079820Y-122758498D01*
X186969506Y-122817463D01*
X186944000Y-122838395D01*
X186918494Y-122817463D01*
X186808180Y-122758498D01*
X186688482Y-122722188D01*
X186564000Y-122709928D01*
X184784000Y-122709928D01*
X184659518Y-122722188D01*
X184539820Y-122758498D01*
X184429506Y-122817463D01*
X184404000Y-122838395D01*
X184378494Y-122817463D01*
X184268180Y-122758498D01*
X184148482Y-122722188D01*
X184024000Y-122709928D01*
X182244000Y-122709928D01*
X182119518Y-122722188D01*
X181999820Y-122758498D01*
X181889506Y-122817463D01*
X181864000Y-122838395D01*
X181838494Y-122817463D01*
X181728180Y-122758498D01*
X181608482Y-122722188D01*
X181484000Y-122709928D01*
X179704000Y-122709928D01*
X179579518Y-122722188D01*
X179459820Y-122758498D01*
X179349506Y-122817463D01*
X179324000Y-122838395D01*
X179298494Y-122817463D01*
X179188180Y-122758498D01*
X179068482Y-122722188D01*
X178944000Y-122709928D01*
X177164000Y-122709928D01*
X177039518Y-122722188D01*
X176919820Y-122758498D01*
X176809506Y-122817463D01*
X176784000Y-122838395D01*
X176758494Y-122817463D01*
X176648180Y-122758498D01*
X176528482Y-122722188D01*
X176404000Y-122709928D01*
X175799750Y-122713000D01*
X175641000Y-122871750D01*
X175641000Y-124971000D01*
X175661000Y-124971000D01*
X175661000Y-125225000D01*
X175641000Y-125225000D01*
X175641000Y-125245000D01*
X175387000Y-125245000D01*
X175387000Y-125225000D01*
X175367000Y-125225000D01*
X175367000Y-124971000D01*
X175387000Y-124971000D01*
X175387000Y-122871750D01*
X175228250Y-122713000D01*
X174624000Y-122709928D01*
X174499518Y-122722188D01*
X174379820Y-122758498D01*
X174269506Y-122817463D01*
X174244000Y-122838395D01*
X174218494Y-122817463D01*
X174108180Y-122758498D01*
X173988482Y-122722188D01*
X173864000Y-122709928D01*
X173710200Y-122709928D01*
X173710200Y-122267500D01*
X173777439Y-122267500D01*
X173977398Y-122227726D01*
X174165756Y-122149705D01*
X174335274Y-122036437D01*
X174379211Y-121992500D01*
X181595969Y-121992500D01*
X181645063Y-122065974D01*
X181789226Y-122210137D01*
X181958744Y-122323405D01*
X182147102Y-122401426D01*
X182347061Y-122441200D01*
X182550939Y-122441200D01*
X182750898Y-122401426D01*
X182939256Y-122323405D01*
X183108774Y-122210137D01*
X183252937Y-122065974D01*
X183366205Y-121896456D01*
X183444226Y-121708098D01*
X183484000Y-121508139D01*
X183484000Y-121304261D01*
X183444226Y-121104302D01*
X183366205Y-120915944D01*
X183252937Y-120746426D01*
X183108774Y-120602263D01*
X182939256Y-120488995D01*
X182750898Y-120410974D01*
X182550939Y-120371200D01*
X182347061Y-120371200D01*
X182147102Y-120410974D01*
X181998566Y-120472500D01*
X174484602Y-120472500D01*
X175213002Y-119744100D01*
X176812978Y-119744100D01*
X176850300Y-119747776D01*
X176887622Y-119744100D01*
X176887633Y-119744100D01*
X176999286Y-119733103D01*
X177142547Y-119689646D01*
X177274576Y-119619074D01*
X177390301Y-119524101D01*
X177414104Y-119495098D01*
X178305204Y-118603998D01*
X178334201Y-118580201D01*
X178429174Y-118464476D01*
X178499746Y-118332447D01*
X178543203Y-118189186D01*
X178554200Y-118077533D01*
X178554200Y-118077524D01*
X178557876Y-118040201D01*
X178554200Y-118002878D01*
X178554200Y-117901600D01*
X186422578Y-117901600D01*
X186459900Y-117905276D01*
X186497222Y-117901600D01*
X186497233Y-117901600D01*
X186608886Y-117890603D01*
X186752147Y-117847146D01*
X186884176Y-117776574D01*
X186999901Y-117681601D01*
X187023704Y-117652597D01*
X188037602Y-116638700D01*
X188099739Y-116638700D01*
X188194394Y-116619872D01*
X197663000Y-116619872D01*
X197663000Y-117060128D01*
X197748890Y-117491925D01*
X197917369Y-117898669D01*
X198161962Y-118264729D01*
X198473271Y-118576038D01*
X198839331Y-118820631D01*
X199246075Y-118989110D01*
X199677872Y-119075000D01*
X200118128Y-119075000D01*
X200549925Y-118989110D01*
X200956669Y-118820631D01*
X201322729Y-118576038D01*
X201634038Y-118264729D01*
X201878631Y-117898669D01*
X202047110Y-117491925D01*
X202133000Y-117060128D01*
X202133000Y-116619872D01*
X202047110Y-116188075D01*
X201878631Y-115781331D01*
X201634038Y-115415271D01*
X201322729Y-115103962D01*
X200956669Y-114859369D01*
X200549925Y-114690890D01*
X200118128Y-114605000D01*
X199677872Y-114605000D01*
X199246075Y-114690890D01*
X198839331Y-114859369D01*
X198473271Y-115103962D01*
X198161962Y-115415271D01*
X197917369Y-115781331D01*
X197748890Y-116188075D01*
X197663000Y-116619872D01*
X188194394Y-116619872D01*
X188299698Y-116598926D01*
X188488056Y-116520905D01*
X188657574Y-116407637D01*
X188801737Y-116263474D01*
X188915005Y-116093956D01*
X188993026Y-115905598D01*
X189032800Y-115705639D01*
X189032800Y-115501761D01*
X188993026Y-115301802D01*
X188915005Y-115113444D01*
X188801737Y-114943926D01*
X188657574Y-114799763D01*
X188488056Y-114686495D01*
X188299698Y-114608474D01*
X188099739Y-114568700D01*
X187895861Y-114568700D01*
X187695902Y-114608474D01*
X187507544Y-114686495D01*
X187338026Y-114799763D01*
X187193863Y-114943926D01*
X187080595Y-115113444D01*
X187002574Y-115301802D01*
X186962800Y-115501761D01*
X186962800Y-115563898D01*
X186145099Y-116381600D01*
X178109002Y-116381600D01*
X174400601Y-112673200D01*
X174964599Y-112673200D01*
X177402900Y-115111502D01*
X177402900Y-115173639D01*
X177442674Y-115373598D01*
X177520695Y-115561956D01*
X177633963Y-115731474D01*
X177778126Y-115875637D01*
X177947644Y-115988905D01*
X178136002Y-116066926D01*
X178335961Y-116106700D01*
X178539839Y-116106700D01*
X178739798Y-116066926D01*
X178928156Y-115988905D01*
X179097674Y-115875637D01*
X179241837Y-115731474D01*
X179355105Y-115561956D01*
X179433126Y-115373598D01*
X179472900Y-115173639D01*
X179472900Y-114969761D01*
X179433126Y-114769802D01*
X179401253Y-114692855D01*
X180024300Y-115315902D01*
X180024300Y-115378039D01*
X180064074Y-115577998D01*
X180142095Y-115766356D01*
X180255363Y-115935874D01*
X180399526Y-116080037D01*
X180569044Y-116193305D01*
X180757402Y-116271326D01*
X180957361Y-116311100D01*
X181161239Y-116311100D01*
X181361198Y-116271326D01*
X181549556Y-116193305D01*
X181719074Y-116080037D01*
X181863237Y-115935874D01*
X181976505Y-115766356D01*
X182054526Y-115577998D01*
X182094300Y-115378039D01*
X182094300Y-115174161D01*
X182054526Y-114974202D01*
X181976505Y-114785844D01*
X181863237Y-114616326D01*
X181719074Y-114472163D01*
X181549556Y-114358895D01*
X181361198Y-114280874D01*
X181161239Y-114241100D01*
X181099102Y-114241100D01*
X177881001Y-111023000D01*
X202667001Y-111023000D01*
X202667000Y-126340000D01*
G37*
%TD.AperFunction*%
D13*
X128198774Y-111026602D02*
X128159000Y-111226561D01*
X128159000Y-111288699D01*
X127977198Y-111470501D01*
X127948200Y-111494299D01*
X127924402Y-111523297D01*
X127924401Y-111523298D01*
X127853226Y-111610024D01*
X127782654Y-111742054D01*
X127772782Y-111774599D01*
X127739198Y-111885314D01*
X127735092Y-111927003D01*
X127724524Y-112034300D01*
X127728201Y-112071632D01*
X127728201Y-116699983D01*
X127588398Y-116642074D01*
X127388439Y-116602300D01*
X127184561Y-116602300D01*
X126984602Y-116642074D01*
X126796244Y-116720095D01*
X126626726Y-116833363D01*
X126482563Y-116977526D01*
X126369295Y-117147044D01*
X126291274Y-117335402D01*
X126251500Y-117535361D01*
X126251500Y-117739239D01*
X126291274Y-117939198D01*
X126369295Y-118127556D01*
X126482563Y-118297074D01*
X126526501Y-118341012D01*
X126526500Y-122709928D01*
X126364000Y-122709928D01*
X126239518Y-122722188D01*
X126119820Y-122758498D01*
X126009506Y-122817463D01*
X125984000Y-122838395D01*
X125958494Y-122817463D01*
X125848180Y-122758498D01*
X125728482Y-122722188D01*
X125604000Y-122709928D01*
X123824000Y-122709928D01*
X123699518Y-122722188D01*
X123579820Y-122758498D01*
X123469506Y-122817463D01*
X123444000Y-122838395D01*
X123418494Y-122817463D01*
X123308180Y-122758498D01*
X123188482Y-122722188D01*
X123064000Y-122709928D01*
X121284000Y-122709928D01*
X121159518Y-122722188D01*
X121039820Y-122758498D01*
X120929506Y-122817463D01*
X120832815Y-122896815D01*
X120753463Y-122993506D01*
X120694498Y-123103820D01*
X120658188Y-123223518D01*
X120645928Y-123348000D01*
X120645928Y-126340000D01*
X116992000Y-126340000D01*
X116992000Y-122649581D01*
X116989146Y-122620603D01*
X116989234Y-122607997D01*
X116988334Y-122598826D01*
X116946882Y-122204422D01*
X116934855Y-122145829D01*
X116923645Y-122087065D01*
X116920981Y-122078243D01*
X116803710Y-121699401D01*
X116780526Y-121644250D01*
X116758120Y-121588792D01*
X116753794Y-121580655D01*
X116565172Y-121231807D01*
X116531717Y-121182208D01*
X116498968Y-121132162D01*
X116493144Y-121125021D01*
X116240356Y-120819453D01*
X116197923Y-120777315D01*
X116156057Y-120734562D01*
X116148962Y-120728694D01*
X116148957Y-120728689D01*
X116148952Y-120728685D01*
X115841631Y-120478041D01*
X115791838Y-120444959D01*
X115742449Y-120411141D01*
X115734343Y-120406759D01*
X115384187Y-120220577D01*
X115328867Y-120197776D01*
X115273899Y-120174216D01*
X115265099Y-120171492D01*
X115265093Y-120171490D01*
X114960000Y-120079378D01*
X114960000Y-116619872D01*
X115494000Y-116619872D01*
X115494000Y-117060128D01*
X115579890Y-117491925D01*
X115748369Y-117898669D01*
X115992962Y-118264729D01*
X116304271Y-118576038D01*
X116670331Y-118820631D01*
X117077075Y-118989110D01*
X117508872Y-119075000D01*
X117949128Y-119075000D01*
X118380925Y-118989110D01*
X118787669Y-118820631D01*
X119153729Y-118576038D01*
X119248906Y-118480861D01*
X123693100Y-118480861D01*
X123693100Y-118684739D01*
X123732874Y-118884698D01*
X123810895Y-119073056D01*
X123924163Y-119242574D01*
X124068326Y-119386737D01*
X124237844Y-119500005D01*
X124426202Y-119578026D01*
X124626161Y-119617800D01*
X124830039Y-119617800D01*
X125029998Y-119578026D01*
X125218356Y-119500005D01*
X125387874Y-119386737D01*
X125532037Y-119242574D01*
X125645305Y-119073056D01*
X125723326Y-118884698D01*
X125763100Y-118684739D01*
X125763100Y-118480861D01*
X125723326Y-118280902D01*
X125645305Y-118092544D01*
X125532037Y-117923026D01*
X125387874Y-117778863D01*
X125218356Y-117665595D01*
X125029998Y-117587574D01*
X124830039Y-117547800D01*
X124626161Y-117547800D01*
X124426202Y-117587574D01*
X124237844Y-117665595D01*
X124068326Y-117778863D01*
X123924163Y-117923026D01*
X123810895Y-118092544D01*
X123732874Y-118280902D01*
X123693100Y-118480861D01*
X119248906Y-118480861D01*
X119465038Y-118264729D01*
X119709631Y-117898669D01*
X119878110Y-117491925D01*
X119964000Y-117060128D01*
X119964000Y-116619872D01*
X119878110Y-116188075D01*
X119709631Y-115781331D01*
X119465038Y-115415271D01*
X119153729Y-115103962D01*
X118787669Y-114859369D01*
X118380925Y-114690890D01*
X117949128Y-114605000D01*
X117508872Y-114605000D01*
X117077075Y-114690890D01*
X116670331Y-114859369D01*
X116304271Y-115103962D01*
X115992962Y-115415271D01*
X115748369Y-115781331D01*
X115579890Y-116188075D01*
X115494000Y-116619872D01*
X114960000Y-116619872D01*
X114960000Y-111023000D01*
X128200266Y-111023000D01*
X128198774Y-111026602D01*
%TA.AperFunction,Conductor*%
D14*
G36*
X128198774Y-111026602D02*
G01*
X128159000Y-111226561D01*
X128159000Y-111288699D01*
X127977198Y-111470501D01*
X127948200Y-111494299D01*
X127924402Y-111523297D01*
X127924401Y-111523298D01*
X127853226Y-111610024D01*
X127782654Y-111742054D01*
X127772782Y-111774599D01*
X127739198Y-111885314D01*
X127735092Y-111927003D01*
X127724524Y-112034300D01*
X127728201Y-112071632D01*
X127728201Y-116699983D01*
X127588398Y-116642074D01*
X127388439Y-116602300D01*
X127184561Y-116602300D01*
X126984602Y-116642074D01*
X126796244Y-116720095D01*
X126626726Y-116833363D01*
X126482563Y-116977526D01*
X126369295Y-117147044D01*
X126291274Y-117335402D01*
X126251500Y-117535361D01*
X126251500Y-117739239D01*
X126291274Y-117939198D01*
X126369295Y-118127556D01*
X126482563Y-118297074D01*
X126526501Y-118341012D01*
X126526500Y-122709928D01*
X126364000Y-122709928D01*
X126239518Y-122722188D01*
X126119820Y-122758498D01*
X126009506Y-122817463D01*
X125984000Y-122838395D01*
X125958494Y-122817463D01*
X125848180Y-122758498D01*
X125728482Y-122722188D01*
X125604000Y-122709928D01*
X123824000Y-122709928D01*
X123699518Y-122722188D01*
X123579820Y-122758498D01*
X123469506Y-122817463D01*
X123444000Y-122838395D01*
X123418494Y-122817463D01*
X123308180Y-122758498D01*
X123188482Y-122722188D01*
X123064000Y-122709928D01*
X121284000Y-122709928D01*
X121159518Y-122722188D01*
X121039820Y-122758498D01*
X120929506Y-122817463D01*
X120832815Y-122896815D01*
X120753463Y-122993506D01*
X120694498Y-123103820D01*
X120658188Y-123223518D01*
X120645928Y-123348000D01*
X120645928Y-126340000D01*
X116992000Y-126340000D01*
X116992000Y-122649581D01*
X116989146Y-122620603D01*
X116989234Y-122607997D01*
X116988334Y-122598826D01*
X116946882Y-122204422D01*
X116934855Y-122145829D01*
X116923645Y-122087065D01*
X116920981Y-122078243D01*
X116803710Y-121699401D01*
X116780526Y-121644250D01*
X116758120Y-121588792D01*
X116753794Y-121580655D01*
X116565172Y-121231807D01*
X116531717Y-121182208D01*
X116498968Y-121132162D01*
X116493144Y-121125021D01*
X116240356Y-120819453D01*
X116197923Y-120777315D01*
X116156057Y-120734562D01*
X116148962Y-120728694D01*
X116148957Y-120728689D01*
X116148952Y-120728685D01*
X115841631Y-120478041D01*
X115791838Y-120444959D01*
X115742449Y-120411141D01*
X115734343Y-120406759D01*
X115384187Y-120220577D01*
X115328867Y-120197776D01*
X115273899Y-120174216D01*
X115265099Y-120171492D01*
X115265093Y-120171490D01*
X114960000Y-120079378D01*
X114960000Y-116619872D01*
X115494000Y-116619872D01*
X115494000Y-117060128D01*
X115579890Y-117491925D01*
X115748369Y-117898669D01*
X115992962Y-118264729D01*
X116304271Y-118576038D01*
X116670331Y-118820631D01*
X117077075Y-118989110D01*
X117508872Y-119075000D01*
X117949128Y-119075000D01*
X118380925Y-118989110D01*
X118787669Y-118820631D01*
X119153729Y-118576038D01*
X119248906Y-118480861D01*
X123693100Y-118480861D01*
X123693100Y-118684739D01*
X123732874Y-118884698D01*
X123810895Y-119073056D01*
X123924163Y-119242574D01*
X124068326Y-119386737D01*
X124237844Y-119500005D01*
X124426202Y-119578026D01*
X124626161Y-119617800D01*
X124830039Y-119617800D01*
X125029998Y-119578026D01*
X125218356Y-119500005D01*
X125387874Y-119386737D01*
X125532037Y-119242574D01*
X125645305Y-119073056D01*
X125723326Y-118884698D01*
X125763100Y-118684739D01*
X125763100Y-118480861D01*
X125723326Y-118280902D01*
X125645305Y-118092544D01*
X125532037Y-117923026D01*
X125387874Y-117778863D01*
X125218356Y-117665595D01*
X125029998Y-117587574D01*
X124830039Y-117547800D01*
X124626161Y-117547800D01*
X124426202Y-117587574D01*
X124237844Y-117665595D01*
X124068326Y-117778863D01*
X123924163Y-117923026D01*
X123810895Y-118092544D01*
X123732874Y-118280902D01*
X123693100Y-118480861D01*
X119248906Y-118480861D01*
X119465038Y-118264729D01*
X119709631Y-117898669D01*
X119878110Y-117491925D01*
X119964000Y-117060128D01*
X119964000Y-116619872D01*
X119878110Y-116188075D01*
X119709631Y-115781331D01*
X119465038Y-115415271D01*
X119153729Y-115103962D01*
X118787669Y-114859369D01*
X118380925Y-114690890D01*
X117949128Y-114605000D01*
X117508872Y-114605000D01*
X117077075Y-114690890D01*
X116670331Y-114859369D01*
X116304271Y-115103962D01*
X115992962Y-115415271D01*
X115748369Y-115781331D01*
X115579890Y-116188075D01*
X115494000Y-116619872D01*
X114960000Y-116619872D01*
X114960000Y-111023000D01*
X128200266Y-111023000D01*
X128198774Y-111026602D01*
G37*
%TD.AperFunction*%
D13*
X139531926Y-119539537D02*
X139701444Y-119652805D01*
X139889802Y-119730826D01*
X140089761Y-119770600D01*
X140142699Y-119770600D01*
X143083554Y-122711455D01*
X142779750Y-122713000D01*
X142621000Y-122871750D01*
X142621000Y-124971000D01*
X142641000Y-124971000D01*
X142641000Y-125225000D01*
X142621000Y-125225000D01*
X142621000Y-125245000D01*
X142367000Y-125245000D01*
X142367000Y-125225000D01*
X142347000Y-125225000D01*
X142347000Y-124971000D01*
X142367000Y-124971000D01*
X142367000Y-122871750D01*
X142208250Y-122713000D01*
X141604000Y-122709928D01*
X141479518Y-122722188D01*
X141359820Y-122758498D01*
X141249506Y-122817463D01*
X141224000Y-122838395D01*
X141198494Y-122817463D01*
X141088180Y-122758498D01*
X140968482Y-122722188D01*
X140844000Y-122709928D01*
X140648575Y-122709928D01*
X140588974Y-122598424D01*
X140494001Y-122482699D01*
X140378276Y-122387726D01*
X140246247Y-122317154D01*
X140157407Y-122290205D01*
X137468701Y-119601500D01*
X139022778Y-119601500D01*
X139060100Y-119605176D01*
X139097422Y-119601500D01*
X139097433Y-119601500D01*
X139209086Y-119590503D01*
X139352347Y-119547046D01*
X139474267Y-119481878D01*
X139531926Y-119539537D01*
%TA.AperFunction,Conductor*%
D14*
G36*
X139531926Y-119539537D02*
G01*
X139701444Y-119652805D01*
X139889802Y-119730826D01*
X140089761Y-119770600D01*
X140142699Y-119770600D01*
X143083554Y-122711455D01*
X142779750Y-122713000D01*
X142621000Y-122871750D01*
X142621000Y-124971000D01*
X142641000Y-124971000D01*
X142641000Y-125225000D01*
X142621000Y-125225000D01*
X142621000Y-125245000D01*
X142367000Y-125245000D01*
X142367000Y-125225000D01*
X142347000Y-125225000D01*
X142347000Y-124971000D01*
X142367000Y-124971000D01*
X142367000Y-122871750D01*
X142208250Y-122713000D01*
X141604000Y-122709928D01*
X141479518Y-122722188D01*
X141359820Y-122758498D01*
X141249506Y-122817463D01*
X141224000Y-122838395D01*
X141198494Y-122817463D01*
X141088180Y-122758498D01*
X140968482Y-122722188D01*
X140844000Y-122709928D01*
X140648575Y-122709928D01*
X140588974Y-122598424D01*
X140494001Y-122482699D01*
X140378276Y-122387726D01*
X140246247Y-122317154D01*
X140157407Y-122290205D01*
X137468701Y-119601500D01*
X139022778Y-119601500D01*
X139060100Y-119605176D01*
X139097422Y-119601500D01*
X139097433Y-119601500D01*
X139209086Y-119590503D01*
X139352347Y-119547046D01*
X139474267Y-119481878D01*
X139531926Y-119539537D01*
G37*
%TD.AperFunction*%
D13*
X161447700Y-121280698D02*
X160465699Y-122262700D01*
X160311333Y-122262700D01*
X160274000Y-122259023D01*
X160236667Y-122262700D01*
X160125014Y-122273697D01*
X159981753Y-122317154D01*
X159849724Y-122387726D01*
X159733999Y-122482699D01*
X159639026Y-122598424D01*
X159579425Y-122709928D01*
X159384000Y-122709928D01*
X159259518Y-122722188D01*
X159139820Y-122758498D01*
X159029506Y-122817463D01*
X159004000Y-122838395D01*
X158978494Y-122817463D01*
X158868180Y-122758498D01*
X158748482Y-122722188D01*
X158624000Y-122709928D01*
X156844000Y-122709928D01*
X156719518Y-122722188D01*
X156599820Y-122758498D01*
X156489506Y-122817463D01*
X156464000Y-122838395D01*
X156438494Y-122817463D01*
X156328180Y-122758498D01*
X156208482Y-122722188D01*
X156084000Y-122709928D01*
X154304000Y-122709928D01*
X154179518Y-122722188D01*
X154059820Y-122758498D01*
X153949506Y-122817463D01*
X153924000Y-122838395D01*
X153898494Y-122817463D01*
X153788180Y-122758498D01*
X153668482Y-122722188D01*
X153544000Y-122709928D01*
X153348575Y-122709928D01*
X153324667Y-122665200D01*
X157815578Y-122665200D01*
X157852900Y-122668876D01*
X157890222Y-122665200D01*
X157890233Y-122665200D01*
X158001886Y-122654203D01*
X158145147Y-122610746D01*
X158277176Y-122540174D01*
X158392901Y-122445201D01*
X158416704Y-122416197D01*
X161447700Y-119385202D01*
X161447700Y-121280698D01*
%TA.AperFunction,Conductor*%
D14*
G36*
X161447700Y-121280698D02*
G01*
X160465699Y-122262700D01*
X160311333Y-122262700D01*
X160274000Y-122259023D01*
X160236667Y-122262700D01*
X160125014Y-122273697D01*
X159981753Y-122317154D01*
X159849724Y-122387726D01*
X159733999Y-122482699D01*
X159639026Y-122598424D01*
X159579425Y-122709928D01*
X159384000Y-122709928D01*
X159259518Y-122722188D01*
X159139820Y-122758498D01*
X159029506Y-122817463D01*
X159004000Y-122838395D01*
X158978494Y-122817463D01*
X158868180Y-122758498D01*
X158748482Y-122722188D01*
X158624000Y-122709928D01*
X156844000Y-122709928D01*
X156719518Y-122722188D01*
X156599820Y-122758498D01*
X156489506Y-122817463D01*
X156464000Y-122838395D01*
X156438494Y-122817463D01*
X156328180Y-122758498D01*
X156208482Y-122722188D01*
X156084000Y-122709928D01*
X154304000Y-122709928D01*
X154179518Y-122722188D01*
X154059820Y-122758498D01*
X153949506Y-122817463D01*
X153924000Y-122838395D01*
X153898494Y-122817463D01*
X153788180Y-122758498D01*
X153668482Y-122722188D01*
X153544000Y-122709928D01*
X153348575Y-122709928D01*
X153324667Y-122665200D01*
X157815578Y-122665200D01*
X157852900Y-122668876D01*
X157890222Y-122665200D01*
X157890233Y-122665200D01*
X158001886Y-122654203D01*
X158145147Y-122610746D01*
X158277176Y-122540174D01*
X158392901Y-122445201D01*
X158416704Y-122416197D01*
X161447700Y-119385202D01*
X161447700Y-121280698D01*
G37*
%TD.AperFunction*%
D13*
X138444708Y-122727110D02*
X138428482Y-122722188D01*
X138304000Y-122709928D01*
X136524000Y-122709928D01*
X136399518Y-122722188D01*
X136279820Y-122758498D01*
X136169506Y-122817463D01*
X136144000Y-122838395D01*
X136118494Y-122817463D01*
X136008180Y-122758498D01*
X135888482Y-122722188D01*
X135764000Y-122709928D01*
X135634000Y-122709928D01*
X135634000Y-119916401D01*
X138444708Y-122727110D01*
%TA.AperFunction,Conductor*%
D14*
G36*
X138444708Y-122727110D02*
G01*
X138428482Y-122722188D01*
X138304000Y-122709928D01*
X136524000Y-122709928D01*
X136399518Y-122722188D01*
X136279820Y-122758498D01*
X136169506Y-122817463D01*
X136144000Y-122838395D01*
X136118494Y-122817463D01*
X136008180Y-122758498D01*
X135888482Y-122722188D01*
X135764000Y-122709928D01*
X135634000Y-122709928D01*
X135634000Y-119916401D01*
X138444708Y-122727110D01*
G37*
%TD.AperFunction*%
D13*
X145784878Y-120027879D02*
X145748302Y-120038974D01*
X145713753Y-120049454D01*
X145581723Y-120120026D01*
X145515693Y-120174216D01*
X145465999Y-120214999D01*
X145442200Y-120243998D01*
X145041499Y-120644700D01*
X144892761Y-120644700D01*
X144692802Y-120684474D01*
X144504444Y-120762495D01*
X144334926Y-120875763D01*
X144190763Y-121019926D01*
X144077495Y-121189444D01*
X143999474Y-121377802D01*
X143982888Y-121461186D01*
X141277601Y-118755900D01*
X144512899Y-118755900D01*
X145784878Y-120027879D01*
%TA.AperFunction,Conductor*%
D14*
G36*
X145784878Y-120027879D02*
G01*
X145748302Y-120038974D01*
X145713753Y-120049454D01*
X145581723Y-120120026D01*
X145515693Y-120174216D01*
X145465999Y-120214999D01*
X145442200Y-120243998D01*
X145041499Y-120644700D01*
X144892761Y-120644700D01*
X144692802Y-120684474D01*
X144504444Y-120762495D01*
X144334926Y-120875763D01*
X144190763Y-121019926D01*
X144077495Y-121189444D01*
X143999474Y-121377802D01*
X143982888Y-121461186D01*
X141277601Y-118755900D01*
X144512899Y-118755900D01*
X145784878Y-120027879D01*
G37*
%TD.AperFunction*%
D13*
X164318400Y-115536939D02*
X164358174Y-115736898D01*
X164436195Y-115925256D01*
X164549463Y-116094774D01*
X164693626Y-116238937D01*
X164863144Y-116352205D01*
X165051502Y-116430226D01*
X165251461Y-116470000D01*
X165313599Y-116470000D01*
X168977999Y-120134402D01*
X168819644Y-120199995D01*
X168650126Y-120313263D01*
X168606189Y-120357200D01*
X168511801Y-120357200D01*
X168266504Y-120111903D01*
X168242701Y-120082899D01*
X168126976Y-119987926D01*
X167994947Y-119917354D01*
X167851686Y-119873897D01*
X167740033Y-119862900D01*
X167740022Y-119862900D01*
X167702700Y-119859224D01*
X167665378Y-119862900D01*
X167346802Y-119862900D01*
X166259500Y-118775599D01*
X166259500Y-118526722D01*
X166263176Y-118489399D01*
X166259500Y-118452076D01*
X166259500Y-118452067D01*
X166248503Y-118340414D01*
X166205046Y-118197153D01*
X166200788Y-118189187D01*
X166134474Y-118065123D01*
X166065537Y-117981124D01*
X166039501Y-117949399D01*
X166010503Y-117925601D01*
X163513601Y-115428700D01*
X164318400Y-115428700D01*
X164318400Y-115536939D01*
%TA.AperFunction,Conductor*%
D14*
G36*
X164318400Y-115536939D02*
G01*
X164358174Y-115736898D01*
X164436195Y-115925256D01*
X164549463Y-116094774D01*
X164693626Y-116238937D01*
X164863144Y-116352205D01*
X165051502Y-116430226D01*
X165251461Y-116470000D01*
X165313599Y-116470000D01*
X168977999Y-120134402D01*
X168819644Y-120199995D01*
X168650126Y-120313263D01*
X168606189Y-120357200D01*
X168511801Y-120357200D01*
X168266504Y-120111903D01*
X168242701Y-120082899D01*
X168126976Y-119987926D01*
X167994947Y-119917354D01*
X167851686Y-119873897D01*
X167740033Y-119862900D01*
X167740022Y-119862900D01*
X167702700Y-119859224D01*
X167665378Y-119862900D01*
X167346802Y-119862900D01*
X166259500Y-118775599D01*
X166259500Y-118526722D01*
X166263176Y-118489399D01*
X166259500Y-118452076D01*
X166259500Y-118452067D01*
X166248503Y-118340414D01*
X166205046Y-118197153D01*
X166200788Y-118189187D01*
X166134474Y-118065123D01*
X166065537Y-117981124D01*
X166039501Y-117949399D01*
X166010503Y-117925601D01*
X163513601Y-115428700D01*
X164318400Y-115428700D01*
X164318400Y-115536939D01*
G37*
%TD.AperFunction*%
%TD*%
M02*
