%TF.GenerationSoftware,KiCad,Pcbnew,(5.1.9)-1*%
%TF.CreationDate,2021-01-13T00:02:16+11:00*%
%TF.ProjectId,1M-30pinsimm,314d2d33-3070-4696-9e73-696d6d2e6b69,rev?*%
%TF.SameCoordinates,Original*%
%TF.FileFunction,Copper,L1,Top*%
%TF.FilePolarity,Positive*%
%FSLAX46Y46*%
G04 Gerber Fmt 4.6, Leading zero omitted, Abs format (unit mm)*
G04 Created by KiCad (PCBNEW (5.1.9)-1) date 2021-01-13 00:02:16*
%MOMM*%
%LPD*%
G01*
G04 APERTURE LIST*
%TA.AperFunction,SMDPad,CuDef*%
%ADD10R,0.800000X2.000000*%
%TD*%
%TA.AperFunction,SMDPad,CuDef*%
%ADD11R,1.250000X1.500000*%
%TD*%
%TA.AperFunction,ComponentPad*%
%ADD12R,1.780000X3.500000*%
%TD*%
%TA.AperFunction,ViaPad*%
%ADD13C,0.800000*%
%TD*%
%TA.AperFunction,Conductor*%
%ADD14C,0.250000*%
%TD*%
%TA.AperFunction,NonConductor*%
%ADD15C,0.254000*%
%TD*%
%TA.AperFunction,NonConductor*%
%ADD16C,0.100000*%
%TD*%
G04 APERTURE END LIST*
D10*
%TO.P,U3,14*%
%TO.N,A4*%
X175387000Y-120396000D03*
%TO.P,U3,15*%
%TO.N,A5*%
X176657000Y-120396000D03*
%TO.P,U3,16*%
%TO.N,A6*%
X177927000Y-120396000D03*
%TO.P,U3,17*%
%TO.N,A7*%
X179197000Y-120396000D03*
%TO.P,U3,18*%
%TO.N,A8*%
X180467000Y-120396000D03*
%TO.P,U3,22*%
%TO.N,A9*%
X185547000Y-120396000D03*
%TO.P,U3,23*%
%TO.N,Net-(U3-Pad23)*%
X186817000Y-120396000D03*
%TO.P,U3,24*%
%TO.N,CASP*%
X188087000Y-120396000D03*
%TO.P,U3,25*%
%TO.N,QP*%
X189357000Y-120396000D03*
%TO.P,U3,26*%
%TO.N,GND*%
X190500000Y-120396000D03*
%TO.P,U3,1*%
%TO.N,DP*%
X190500000Y-113284000D03*
%TO.P,U3,2*%
%TO.N,WE*%
X189230000Y-113284000D03*
%TO.P,U3,3*%
%TO.N,RAS*%
X187960000Y-113284000D03*
%TO.P,U3,4*%
%TO.N,Net-(U3-Pad4)*%
X186690000Y-113284000D03*
%TO.P,U3,5*%
%TO.N,Net-(U3-Pad5)*%
X185420000Y-113284000D03*
%TO.P,U3,9*%
%TO.N,A0*%
X180340000Y-113284000D03*
%TO.P,U3,10*%
%TO.N,A1*%
X179070000Y-113284000D03*
%TO.P,U3,11*%
%TO.N,A2*%
X177800000Y-113284000D03*
%TO.P,U3,12*%
%TO.N,A3*%
X176530000Y-113284000D03*
%TO.P,U3,13*%
%TO.N,Net-(C3-Pad1)*%
X175260000Y-113284000D03*
%TD*%
D11*
%TO.P,C3,1*%
%TO.N,Net-(C3-Pad1)*%
X171450000Y-115590000D03*
%TO.P,C3,2*%
%TO.N,+5V*%
X171450000Y-118090000D03*
%TD*%
%TO.P,C2,1*%
%TO.N,Net-(C2-Pad1)*%
X147320000Y-115590000D03*
%TO.P,C2,2*%
%TO.N,+5V*%
X147320000Y-118090000D03*
%TD*%
%TO.P,C1,1*%
%TO.N,Net-(C1-Pad1)*%
X123190000Y-115590000D03*
%TO.P,C1,2*%
%TO.N,+5V*%
X123190000Y-118090000D03*
%TD*%
D10*
%TO.P,U2,14*%
%TO.N,A4*%
X151257000Y-120396000D03*
%TO.P,U2,15*%
%TO.N,A5*%
X152527000Y-120396000D03*
%TO.P,U2,16*%
%TO.N,A6*%
X153797000Y-120396000D03*
%TO.P,U2,17*%
%TO.N,A7*%
X155067000Y-120396000D03*
%TO.P,U2,18*%
%TO.N,A8*%
X156337000Y-120396000D03*
%TO.P,U2,22*%
%TO.N,GND*%
X161417000Y-120396000D03*
%TO.P,U2,23*%
%TO.N,CAS*%
X162687000Y-120396000D03*
%TO.P,U2,24*%
%TO.N,DQ6*%
X163957000Y-120396000D03*
%TO.P,U2,25*%
%TO.N,DQ7*%
X165227000Y-120396000D03*
%TO.P,U2,26*%
%TO.N,GND*%
X166370000Y-120396000D03*
%TO.P,U2,1*%
%TO.N,DQ4*%
X166370000Y-113284000D03*
%TO.P,U2,2*%
%TO.N,DQ5*%
X165100000Y-113284000D03*
%TO.P,U2,3*%
%TO.N,WE*%
X163830000Y-113284000D03*
%TO.P,U2,4*%
%TO.N,RAS*%
X162560000Y-113284000D03*
%TO.P,U2,5*%
%TO.N,A9*%
X161290000Y-113284000D03*
%TO.P,U2,9*%
%TO.N,A0*%
X156210000Y-113284000D03*
%TO.P,U2,10*%
%TO.N,A1*%
X154940000Y-113284000D03*
%TO.P,U2,11*%
%TO.N,A2*%
X153670000Y-113284000D03*
%TO.P,U2,12*%
%TO.N,A3*%
X152400000Y-113284000D03*
%TO.P,U2,13*%
%TO.N,Net-(C2-Pad1)*%
X151130000Y-113284000D03*
%TD*%
%TO.P,U1,14*%
%TO.N,A4*%
X127127000Y-120396000D03*
%TO.P,U1,15*%
%TO.N,A5*%
X128397000Y-120396000D03*
%TO.P,U1,16*%
%TO.N,A6*%
X129667000Y-120396000D03*
%TO.P,U1,17*%
%TO.N,A7*%
X130937000Y-120396000D03*
%TO.P,U1,18*%
%TO.N,A8*%
X132207000Y-120396000D03*
%TO.P,U1,22*%
%TO.N,GND*%
X137287000Y-120396000D03*
%TO.P,U1,23*%
%TO.N,CAS*%
X138557000Y-120396000D03*
%TO.P,U1,24*%
%TO.N,DQ2*%
X139827000Y-120396000D03*
%TO.P,U1,25*%
%TO.N,DQ3*%
X141097000Y-120396000D03*
%TO.P,U1,26*%
%TO.N,GND*%
X142240000Y-120396000D03*
%TO.P,U1,1*%
%TO.N,DQ0*%
X142240000Y-113284000D03*
%TO.P,U1,2*%
%TO.N,DQ1*%
X140970000Y-113284000D03*
%TO.P,U1,3*%
%TO.N,WE*%
X139700000Y-113284000D03*
%TO.P,U1,4*%
%TO.N,RAS*%
X138430000Y-113284000D03*
%TO.P,U1,5*%
%TO.N,A9*%
X137160000Y-113284000D03*
%TO.P,U1,9*%
%TO.N,A0*%
X132080000Y-113284000D03*
%TO.P,U1,10*%
%TO.N,A1*%
X130810000Y-113284000D03*
%TO.P,U1,11*%
%TO.N,A2*%
X129540000Y-113284000D03*
%TO.P,U1,12*%
%TO.N,A3*%
X128270000Y-113284000D03*
%TO.P,U1,13*%
%TO.N,Net-(C1-Pad1)*%
X127000000Y-113284000D03*
%TD*%
D12*
%TO.P,B1,21*%
%TO.N,WE*%
X172974000Y-125098000D03*
%TO.P,B1,20*%
%TO.N,DQ5*%
X170434000Y-125098000D03*
%TO.P,B1,29*%
%TO.N,DP*%
X193294000Y-125098000D03*
%TO.P,B1,28*%
%TO.N,CASP*%
X190754000Y-125098000D03*
%TO.P,B1,27*%
%TO.N,RAS*%
X188214000Y-125098000D03*
%TO.P,B1,19*%
%TO.N,Net-(B1-Pad19)*%
X167894000Y-125098000D03*
%TO.P,B1,30*%
%TO.N,+5V*%
X195834000Y-125098000D03*
%TO.P,B1,26*%
%TO.N,QP*%
X185674000Y-125098000D03*
%TO.P,B1,17*%
%TO.N,A8*%
X162814000Y-125098000D03*
%TO.P,B1,25*%
%TO.N,DQ7*%
X183134000Y-125098000D03*
%TO.P,B1,22*%
%TO.N,GND*%
X175514000Y-125098000D03*
%TO.P,B1,18*%
%TO.N,A9*%
X165354000Y-125098000D03*
%TO.P,B1,24*%
%TO.N,Net-(B1-Pad24)*%
X180594000Y-125098000D03*
%TO.P,B1,23*%
%TO.N,DQ6*%
X178054000Y-125098000D03*
%TO.P,B1,12*%
%TO.N,A5*%
X150114000Y-125098000D03*
%TO.P,B1,11*%
%TO.N,A4*%
X147574000Y-125098000D03*
%TO.P,B1,10*%
%TO.N,DQ2*%
X145034000Y-125098000D03*
%TO.P,B1,16*%
%TO.N,DQ4*%
X160274000Y-125098000D03*
%TO.P,B1,13*%
%TO.N,DQ3*%
X152654000Y-125098000D03*
%TO.P,B1,9*%
%TO.N,GND*%
X142494000Y-125098000D03*
%TO.P,B1,15*%
%TO.N,A7*%
X157734000Y-125098000D03*
%TO.P,B1,14*%
%TO.N,A6*%
X155194000Y-125098000D03*
%TO.P,B1,7*%
%TO.N,A2*%
X137414000Y-125098000D03*
%TO.P,B1,8*%
%TO.N,A3*%
X139954000Y-125098000D03*
%TO.P,B1,6*%
%TO.N,DQ1*%
X134874000Y-125098000D03*
%TO.P,B1,5*%
%TO.N,A1*%
X132334000Y-125098000D03*
%TO.P,B1,4*%
%TO.N,A0*%
X129794000Y-125098000D03*
%TO.P,B1,3*%
%TO.N,DQ0*%
X127254000Y-125098000D03*
%TO.P,B1,2*%
%TO.N,CAS*%
X124714000Y-125098000D03*
%TO.P,B1,1*%
%TO.N,+5V*%
X122174000Y-125098000D03*
%TD*%
D13*
%TO.N,GND*%
X123190000Y-111760000D03*
%TO.N,WE*%
X149922800Y-112748300D03*
X160265200Y-112812600D03*
X187997800Y-115603700D03*
%TO.N,DQ5*%
X165353400Y-115435000D03*
%TO.N,CASP*%
X188529500Y-122036800D03*
%TO.N,+5V*%
X124728100Y-118582800D03*
X170180200Y-118142700D03*
X147354500Y-119495400D03*
%TO.N,A8*%
X167402200Y-121348200D03*
X136692400Y-118622800D03*
X157595200Y-121133900D03*
%TO.N,GND*%
X143560500Y-121087900D03*
X190725300Y-122104200D03*
X135955300Y-121373400D03*
X160665000Y-122072300D03*
X166224800Y-118790000D03*
%TO.N,A9*%
X182449000Y-121406200D03*
X173675500Y-121232500D03*
X169309900Y-121117200D03*
X137102500Y-114901400D03*
X153436400Y-115226200D03*
X161421000Y-115429500D03*
%TO.N,A5*%
X173770600Y-117545200D03*
X129718400Y-118279800D03*
X152281400Y-118081800D03*
%TO.N,A4*%
X161418400Y-118339700D03*
X144994700Y-121679700D03*
%TO.N,DQ2*%
X140191700Y-118735600D03*
%TO.N,DQ4*%
X162207700Y-116248500D03*
%TO.N,DQ3*%
X146306300Y-121480400D03*
%TO.N,A7*%
X155398300Y-118414300D03*
X133413800Y-120082000D03*
%TO.N,A6*%
X176549800Y-118258800D03*
X168926600Y-116872700D03*
X132740400Y-118318000D03*
X149329200Y-117830700D03*
%TO.N,A2*%
X175171600Y-115704400D03*
X158141000Y-114314200D03*
X129194000Y-111328500D03*
X128488200Y-122838200D03*
%TO.N,A3*%
X167704900Y-113119300D03*
X146955400Y-112314600D03*
X129687800Y-115247800D03*
X134330500Y-117229600D03*
%TO.N,DQ1*%
X134565300Y-119095300D03*
%TO.N,A1*%
X135178800Y-112265700D03*
X132133300Y-115646500D03*
X153699000Y-111651100D03*
X178437900Y-115071700D03*
%TO.N,A0*%
X132403800Y-111328500D03*
X155565700Y-111454500D03*
X181059300Y-115276100D03*
%TO.N,DQ0*%
X143234900Y-115581100D03*
X130822800Y-116397100D03*
X127286500Y-117637300D03*
%TO.N,CAS*%
X158622000Y-118857300D03*
X135469300Y-117651200D03*
X138180200Y-118077100D03*
%TD*%
D14*
%TO.N,WE*%
X139700000Y-113284000D02*
X139700000Y-111958700D01*
X149922800Y-112748300D02*
X149625700Y-113045400D01*
X149625700Y-113045400D02*
X145684500Y-113045400D01*
X145684500Y-113045400D02*
X144597800Y-111958700D01*
X144597800Y-111958700D02*
X139700000Y-111958700D01*
X163830000Y-113284000D02*
X163830000Y-114609300D01*
X160265200Y-112812600D02*
X160265200Y-114136700D01*
X160265200Y-114136700D02*
X160737800Y-114609300D01*
X160737800Y-114609300D02*
X163830000Y-114609300D01*
X189230000Y-113284000D02*
X189230000Y-114609300D01*
X187997800Y-115603700D02*
X188992200Y-114609300D01*
X188992200Y-114609300D02*
X189230000Y-114609300D01*
%TO.N,DQ5*%
X165353400Y-115435000D02*
X165100000Y-115181600D01*
X165100000Y-115181600D02*
X165100000Y-113284000D01*
%TO.N,DP*%
X190500000Y-113284000D02*
X190500000Y-114609300D01*
X193294000Y-123698000D02*
X193294000Y-117403300D01*
X193294000Y-117403300D02*
X190500000Y-114609300D01*
%TO.N,CASP*%
X188087000Y-121721300D02*
X188214000Y-121721300D01*
X188214000Y-121721300D02*
X188529500Y-122036800D01*
X188087000Y-120396000D02*
X188087000Y-121721300D01*
%TO.N,RAS*%
X187960000Y-113284000D02*
X187960000Y-114609300D01*
X188214000Y-123698000D02*
X188856200Y-123698000D01*
X188856200Y-123698000D02*
X189628100Y-122926100D01*
X189628100Y-122926100D02*
X190995000Y-122926100D01*
X190995000Y-122926100D02*
X191454500Y-122466600D01*
X191454500Y-122466600D02*
X191454500Y-119454000D01*
X191454500Y-119454000D02*
X188428800Y-116428300D01*
X188428800Y-116428300D02*
X187721500Y-116428300D01*
X187721500Y-116428300D02*
X187232300Y-115939100D01*
X187232300Y-115939100D02*
X187232300Y-115337000D01*
X187232300Y-115337000D02*
X187960000Y-114609300D01*
X138430000Y-111958700D02*
X139690300Y-110698400D01*
X139690300Y-110698400D02*
X161299700Y-110698400D01*
X161299700Y-110698400D02*
X162560000Y-111958700D01*
X138430000Y-113284000D02*
X138430000Y-111958700D01*
X187960000Y-111958700D02*
X187489900Y-111488600D01*
X187489900Y-111488600D02*
X163030100Y-111488600D01*
X163030100Y-111488600D02*
X162560000Y-111958700D01*
X162560000Y-113284000D02*
X162560000Y-111958700D01*
X187960000Y-113284000D02*
X187960000Y-111958700D01*
%TO.N,+5V*%
X123190000Y-118090000D02*
X124140300Y-118090000D01*
X124728100Y-118582800D02*
X124633100Y-118582800D01*
X124633100Y-118582800D02*
X124140300Y-118090000D01*
X171450000Y-118090000D02*
X170499700Y-118090000D01*
X170180200Y-118142700D02*
X170447000Y-118142700D01*
X170447000Y-118142700D02*
X170499700Y-118090000D01*
X147320000Y-119165300D02*
X147320000Y-119460900D01*
X147320000Y-119460900D02*
X147354500Y-119495400D01*
X147320000Y-118090000D02*
X147320000Y-119165300D01*
%TO.N,QP*%
X189357000Y-121721300D02*
X189357000Y-122307500D01*
X189357000Y-122307500D02*
X188641800Y-123022700D01*
X188641800Y-123022700D02*
X185674000Y-123022700D01*
X189357000Y-120396000D02*
X189357000Y-121721300D01*
X185674000Y-123698000D02*
X185674000Y-123022700D01*
%TO.N,A8*%
X180467000Y-120396000D02*
X180467000Y-121721300D01*
X167402200Y-121348200D02*
X168048200Y-121994200D01*
X168048200Y-121994200D02*
X180194100Y-121994200D01*
X180194100Y-121994200D02*
X180467000Y-121721300D01*
X136692400Y-118622800D02*
X135490400Y-119824800D01*
X135490400Y-119824800D02*
X134182400Y-119824800D01*
X134182400Y-119824800D02*
X133428300Y-119070700D01*
X133428300Y-119070700D02*
X132207000Y-119070700D01*
X162814000Y-123698000D02*
X162814000Y-123022700D01*
X162814000Y-123022700D02*
X159484000Y-123022700D01*
X159484000Y-123022700D02*
X157595200Y-121133900D01*
X132207000Y-120396000D02*
X132207000Y-119070700D01*
X156337000Y-121002300D02*
X157463600Y-121002300D01*
X157463600Y-121002300D02*
X157595200Y-121133900D01*
X156337000Y-120396000D02*
X156337000Y-121002300D01*
%TO.N,DQ7*%
X165227000Y-120396000D02*
X165227000Y-121721300D01*
X183134000Y-123698000D02*
X183134000Y-123022700D01*
X183134000Y-123022700D02*
X182683600Y-122572300D01*
X182683600Y-122572300D02*
X166078000Y-122572300D01*
X166078000Y-122572300D02*
X165227000Y-121721300D01*
%TO.N,GND*%
X142240000Y-120396000D02*
X142240000Y-121721300D01*
X143560500Y-121087900D02*
X142927100Y-121721300D01*
X142927100Y-121721300D02*
X142240000Y-121721300D01*
X166370000Y-119070700D02*
X166370000Y-118935200D01*
X166370000Y-118935200D02*
X166224800Y-118790000D01*
X190500000Y-120396000D02*
X190500000Y-121878900D01*
X190500000Y-121878900D02*
X190725300Y-122104200D01*
X137287000Y-120396000D02*
X137287000Y-121721300D01*
X135955300Y-121373400D02*
X136303200Y-121721300D01*
X136303200Y-121721300D02*
X137287000Y-121721300D01*
X161417000Y-121721300D02*
X161016000Y-121721300D01*
X161016000Y-121721300D02*
X160665000Y-122072300D01*
X161417000Y-120396000D02*
X161417000Y-121721300D01*
X166370000Y-120396000D02*
X166370000Y-119070700D01*
%TO.N,A9*%
X159532500Y-115225800D02*
X153436800Y-115225800D01*
X153436800Y-115225800D02*
X153436400Y-115226200D01*
X185547000Y-120396000D02*
X185547000Y-121721300D01*
X182449000Y-121406200D02*
X182764100Y-121721300D01*
X182764100Y-121721300D02*
X185547000Y-121721300D01*
X169309900Y-121117200D02*
X173560200Y-121117200D01*
X173560200Y-121117200D02*
X173675500Y-121232500D01*
X161290000Y-113284000D02*
X161290000Y-111958700D01*
X159532500Y-115225800D02*
X159736200Y-115429500D01*
X159736200Y-115429500D02*
X161421000Y-115429500D01*
X161290000Y-111958700D02*
X160033900Y-111958700D01*
X160033900Y-111958700D02*
X159532500Y-112460100D01*
X159532500Y-112460100D02*
X159532500Y-115225800D01*
X137102500Y-114901400D02*
X137160000Y-114843900D01*
X137160000Y-114843900D02*
X137160000Y-113284000D01*
%TO.N,DQ6*%
X163957000Y-120396000D02*
X163957000Y-121721300D01*
X178054000Y-123698000D02*
X178054000Y-123022700D01*
X178054000Y-123022700D02*
X165258400Y-123022700D01*
X165258400Y-123022700D02*
X163957000Y-121721300D01*
%TO.N,A5*%
X176657000Y-120396000D02*
X176657000Y-119070700D01*
X173770600Y-117545200D02*
X174512200Y-117545200D01*
X174512200Y-117545200D02*
X176037700Y-119070700D01*
X176037700Y-119070700D02*
X176657000Y-119070700D01*
X128397000Y-120396000D02*
X128397000Y-119070700D01*
X129718400Y-118279800D02*
X128927500Y-119070700D01*
X128927500Y-119070700D02*
X128397000Y-119070700D01*
X152527000Y-119070700D02*
X152281400Y-118825100D01*
X152281400Y-118825100D02*
X152281400Y-118081800D01*
X152527000Y-120396000D02*
X152527000Y-121721300D01*
X150114000Y-123698000D02*
X150114000Y-123022700D01*
X150114000Y-123022700D02*
X151225600Y-123022700D01*
X151225600Y-123022700D02*
X152527000Y-121721300D01*
X152527000Y-120396000D02*
X152527000Y-119070700D01*
%TO.N,A4*%
X175387000Y-120396000D02*
X175387000Y-119070700D01*
X161418400Y-118339700D02*
X161696200Y-118061900D01*
X161696200Y-118061900D02*
X167654400Y-118061900D01*
X167654400Y-118061900D02*
X168828900Y-119236400D01*
X168828900Y-119236400D02*
X174496000Y-119236400D01*
X174496000Y-119236400D02*
X174661700Y-119070700D01*
X174661700Y-119070700D02*
X175387000Y-119070700D01*
X147574000Y-123698000D02*
X147574000Y-123022700D01*
X151257000Y-120396000D02*
X151257000Y-121721300D01*
X151257000Y-121721300D02*
X148875400Y-121721300D01*
X148875400Y-121721300D02*
X147574000Y-123022700D01*
X127127000Y-120396000D02*
X127127000Y-121721300D01*
X127127000Y-121721300D02*
X128763200Y-121721300D01*
X128763200Y-121721300D02*
X129213600Y-122171700D01*
X129213600Y-122171700D02*
X144502700Y-122171700D01*
X144502700Y-122171700D02*
X144994700Y-121679700D01*
%TO.N,DQ2*%
X139827000Y-120396000D02*
X139827000Y-119070700D01*
X140191700Y-118735600D02*
X139856600Y-119070700D01*
X139856600Y-119070700D02*
X139827000Y-119070700D01*
%TO.N,DQ4*%
X166370000Y-113284000D02*
X166370000Y-115485800D01*
X166370000Y-115485800D02*
X165607300Y-116248500D01*
X165607300Y-116248500D02*
X162207700Y-116248500D01*
%TO.N,DQ3*%
X141097000Y-120396000D02*
X141097000Y-119070700D01*
X146306300Y-121480400D02*
X143896600Y-119070700D01*
X143896600Y-119070700D02*
X141097000Y-119070700D01*
%TO.N,A7*%
X179197000Y-119070700D02*
X176925900Y-116799600D01*
X176925900Y-116799600D02*
X170025500Y-116799600D01*
X170025500Y-116799600D02*
X169216300Y-117608800D01*
X169216300Y-117608800D02*
X156203800Y-117608800D01*
X156203800Y-117608800D02*
X155398300Y-118414300D01*
X155067000Y-120396000D02*
X155067000Y-121721300D01*
X157734000Y-123698000D02*
X157734000Y-123022700D01*
X157734000Y-123022700D02*
X156368400Y-123022700D01*
X156368400Y-123022700D02*
X155067000Y-121721300D01*
X130937000Y-120396000D02*
X130937000Y-121721300D01*
X155067000Y-120396000D02*
X155067000Y-119070700D01*
X155398300Y-118414300D02*
X155398300Y-118739400D01*
X155398300Y-118739400D02*
X155067000Y-119070700D01*
X130937000Y-121721300D02*
X132787700Y-121721300D01*
X132787700Y-121721300D02*
X133413800Y-121095200D01*
X133413800Y-121095200D02*
X133413800Y-120082000D01*
X179197000Y-120396000D02*
X179197000Y-119070700D01*
%TO.N,A6*%
X153797000Y-118521800D02*
X153797000Y-119070700D01*
X149329200Y-117830700D02*
X149845400Y-117314500D01*
X149845400Y-117314500D02*
X152589700Y-117314500D01*
X152589700Y-117314500D02*
X153797000Y-118521800D01*
X153797000Y-118521800D02*
X155160400Y-117158400D01*
X155160400Y-117158400D02*
X168640900Y-117158400D01*
X168640900Y-117158400D02*
X168926600Y-116872700D01*
X177927000Y-120396000D02*
X177927000Y-119070700D01*
X176549800Y-118258800D02*
X177361700Y-119070700D01*
X177361700Y-119070700D02*
X177927000Y-119070700D01*
X129667000Y-119070700D02*
X129953300Y-119070700D01*
X129953300Y-119070700D02*
X130706000Y-118318000D01*
X130706000Y-118318000D02*
X132740400Y-118318000D01*
X153797000Y-120396000D02*
X153797000Y-121721300D01*
X155194000Y-123698000D02*
X155194000Y-123022700D01*
X155194000Y-123022700D02*
X153892600Y-121721300D01*
X153892600Y-121721300D02*
X153797000Y-121721300D01*
X129667000Y-120396000D02*
X129667000Y-119070700D01*
X153797000Y-120396000D02*
X153797000Y-119070700D01*
%TO.N,A2*%
X177800000Y-113284000D02*
X177800000Y-114609300D01*
X175171600Y-115704400D02*
X176704900Y-115704400D01*
X176704900Y-115704400D02*
X177800000Y-114609300D01*
X153670000Y-114500500D02*
X153737000Y-114500500D01*
X153737000Y-114500500D02*
X153845900Y-114609400D01*
X153845900Y-114609400D02*
X157845800Y-114609400D01*
X157845800Y-114609400D02*
X158141000Y-114314200D01*
X153670000Y-114500500D02*
X153670000Y-114496700D01*
X137414000Y-123022700D02*
X145789800Y-123022700D01*
X145789800Y-123022700D02*
X148270400Y-120542100D01*
X148270400Y-120542100D02*
X148270400Y-117787200D01*
X148270400Y-117787200D02*
X150593500Y-115464100D01*
X150593500Y-115464100D02*
X152172800Y-115464100D01*
X152172800Y-115464100D02*
X153136400Y-114500500D01*
X153136400Y-114500500D02*
X153670000Y-114500500D01*
X153670000Y-113284000D02*
X153670000Y-114496700D01*
X137414000Y-123135300D02*
X137414000Y-123022700D01*
X137414000Y-123698000D02*
X137414000Y-123135300D01*
X129194000Y-111328500D02*
X129540000Y-111674500D01*
X129540000Y-111674500D02*
X129540000Y-113284000D01*
X137414000Y-123022700D02*
X128672700Y-123022700D01*
X128672700Y-123022700D02*
X128488200Y-122838200D01*
%TO.N,A3*%
X129687800Y-115247800D02*
X129049300Y-114609300D01*
X129049300Y-114609300D02*
X128270000Y-114609300D01*
X134330500Y-117229600D02*
X133560000Y-116459100D01*
X133560000Y-116459100D02*
X131920200Y-116459100D01*
X131920200Y-116459100D02*
X130708900Y-115247800D01*
X130708900Y-115247800D02*
X129687800Y-115247800D01*
X176530000Y-113284000D02*
X176530000Y-111958700D01*
X167704900Y-113119300D02*
X168865500Y-111958700D01*
X168865500Y-111958700D02*
X176530000Y-111958700D01*
X152400000Y-113284000D02*
X152400000Y-111958700D01*
X146955400Y-112314600D02*
X147311300Y-111958700D01*
X147311300Y-111958700D02*
X152400000Y-111958700D01*
X128270000Y-113284000D02*
X128270000Y-114609300D01*
%TO.N,DQ1*%
X140970000Y-113284000D02*
X140970000Y-114609300D01*
X134565300Y-119095300D02*
X135122900Y-119095300D01*
X135122900Y-119095300D02*
X139608900Y-114609300D01*
X139608900Y-114609300D02*
X140970000Y-114609300D01*
%TO.N,A1*%
X132133300Y-115165600D02*
X131577000Y-114609300D01*
X131577000Y-114609300D02*
X130810000Y-114609300D01*
X132133300Y-115646500D02*
X132133300Y-115165600D01*
X132133300Y-115165600D02*
X132278900Y-115165600D01*
X132278900Y-115165600D02*
X135178800Y-112265700D01*
X154940000Y-113284000D02*
X154940000Y-111958700D01*
X153699000Y-111651100D02*
X154632400Y-111651100D01*
X154632400Y-111651100D02*
X154940000Y-111958700D01*
X130810000Y-113284000D02*
X130810000Y-114609300D01*
X179070000Y-113284000D02*
X179070000Y-114609300D01*
X178437900Y-115071700D02*
X178900300Y-114609300D01*
X178900300Y-114609300D02*
X179070000Y-114609300D01*
%TO.N,A0*%
X132080000Y-113284000D02*
X132080000Y-111958700D01*
X132080000Y-111958700D02*
X132403800Y-111634900D01*
X132403800Y-111634900D02*
X132403800Y-111328500D01*
X156210000Y-113284000D02*
X156210000Y-111958700D01*
X155565700Y-111454500D02*
X156069900Y-111958700D01*
X156069900Y-111958700D02*
X156210000Y-111958700D01*
X180340000Y-113284000D02*
X180340000Y-114609300D01*
X181059300Y-115276100D02*
X180392500Y-114609300D01*
X180392500Y-114609300D02*
X180340000Y-114609300D01*
%TO.N,DQ0*%
X142240000Y-114609300D02*
X142263100Y-114609300D01*
X142263100Y-114609300D02*
X143234900Y-115581100D01*
X142240000Y-113284000D02*
X142240000Y-114609300D01*
X127286500Y-117637300D02*
X128526700Y-116397100D01*
X128526700Y-116397100D02*
X130822800Y-116397100D01*
%TO.N,CAS*%
X135469300Y-117651200D02*
X135140900Y-117979600D01*
X135140900Y-117979600D02*
X133427800Y-117979600D01*
X133427800Y-117979600D02*
X133002700Y-117554500D01*
X133002700Y-117554500D02*
X128395100Y-117554500D01*
X128395100Y-117554500D02*
X127587000Y-118362600D01*
X127587000Y-118362600D02*
X127228300Y-118362600D01*
X127228300Y-118362600D02*
X124714000Y-120876900D01*
X124714000Y-120876900D02*
X124714000Y-123698000D01*
X162687000Y-120396000D02*
X162687000Y-119070700D01*
X158622000Y-118857300D02*
X158835400Y-119070700D01*
X158835400Y-119070700D02*
X162687000Y-119070700D01*
X138180200Y-118077100D02*
X138180200Y-118693900D01*
X138180200Y-118693900D02*
X138557000Y-119070700D01*
X138557000Y-120396000D02*
X138557000Y-119070700D01*
%TO.N,Net-(C1-Pad1)*%
X123190000Y-115590000D02*
X124140300Y-115590000D01*
X127000000Y-113284000D02*
X127000000Y-114609300D01*
X127000000Y-114609300D02*
X125121000Y-114609300D01*
X125121000Y-114609300D02*
X124140300Y-115590000D01*
%TO.N,Net-(C2-Pad1)*%
X147320000Y-115590000D02*
X148270300Y-115590000D01*
X151130000Y-113284000D02*
X151130000Y-114609300D01*
X151130000Y-114609300D02*
X149251000Y-114609300D01*
X149251000Y-114609300D02*
X148270300Y-115590000D01*
%TO.N,Net-(C3-Pad1)*%
X175260000Y-113284000D02*
X175260000Y-114609300D01*
X171450000Y-115590000D02*
X172400300Y-115590000D01*
X172400300Y-115590000D02*
X173381000Y-114609300D01*
X173381000Y-114609300D02*
X175260000Y-114609300D01*
%TD*%
D15*
X122386063Y-111100226D02*
X122272795Y-111269744D01*
X122194774Y-111458102D01*
X122155000Y-111658061D01*
X122155000Y-111861939D01*
X122194774Y-112061898D01*
X122272795Y-112250256D01*
X122386063Y-112419774D01*
X122530226Y-112563937D01*
X122699744Y-112677205D01*
X122888102Y-112755226D01*
X123088061Y-112795000D01*
X123291939Y-112795000D01*
X123491898Y-112755226D01*
X123680256Y-112677205D01*
X123849774Y-112563937D01*
X123993937Y-112419774D01*
X124107205Y-112250256D01*
X124185226Y-112061898D01*
X124225000Y-111861939D01*
X124225000Y-111658061D01*
X124185226Y-111458102D01*
X124107205Y-111269744D01*
X123993937Y-111100226D01*
X123916711Y-111023000D01*
X128200266Y-111023000D01*
X128198774Y-111026602D01*
X128159000Y-111226561D01*
X128159000Y-111430439D01*
X128198774Y-111630398D01*
X128205207Y-111645928D01*
X127870000Y-111645928D01*
X127745518Y-111658188D01*
X127635000Y-111691713D01*
X127524482Y-111658188D01*
X127400000Y-111645928D01*
X126600000Y-111645928D01*
X126475518Y-111658188D01*
X126355820Y-111694498D01*
X126245506Y-111753463D01*
X126148815Y-111832815D01*
X126069463Y-111929506D01*
X126010498Y-112039820D01*
X125974188Y-112159518D01*
X125961928Y-112284000D01*
X125961928Y-113849300D01*
X125158322Y-113849300D01*
X125120999Y-113845624D01*
X125083676Y-113849300D01*
X125083667Y-113849300D01*
X124972014Y-113860297D01*
X124828753Y-113903754D01*
X124696724Y-113974326D01*
X124580999Y-114069299D01*
X124557201Y-114098297D01*
X124266410Y-114389089D01*
X124266185Y-114388815D01*
X124169494Y-114309463D01*
X124059180Y-114250498D01*
X123939482Y-114214188D01*
X123815000Y-114201928D01*
X122565000Y-114201928D01*
X122440518Y-114214188D01*
X122320820Y-114250498D01*
X122210506Y-114309463D01*
X122113815Y-114388815D01*
X122034463Y-114485506D01*
X121975498Y-114595820D01*
X121939188Y-114715518D01*
X121926928Y-114840000D01*
X121926928Y-116340000D01*
X121939188Y-116464482D01*
X121975498Y-116584180D01*
X122034463Y-116694494D01*
X122113815Y-116791185D01*
X122173296Y-116840000D01*
X122113815Y-116888815D01*
X122034463Y-116985506D01*
X121975498Y-117095820D01*
X121939188Y-117215518D01*
X121926928Y-117340000D01*
X121926928Y-118840000D01*
X121939188Y-118964482D01*
X121975498Y-119084180D01*
X122034463Y-119194494D01*
X122113815Y-119291185D01*
X122210506Y-119370537D01*
X122320820Y-119429502D01*
X122440518Y-119465812D01*
X122565000Y-119478072D01*
X123815000Y-119478072D01*
X123939482Y-119465812D01*
X124059180Y-119429502D01*
X124099819Y-119407780D01*
X124237844Y-119500005D01*
X124426202Y-119578026D01*
X124626161Y-119617800D01*
X124830039Y-119617800D01*
X124915248Y-119600851D01*
X124203003Y-120313096D01*
X124173999Y-120336899D01*
X124130615Y-120389763D01*
X124079026Y-120452624D01*
X124037454Y-120530400D01*
X124008454Y-120584654D01*
X123964997Y-120727915D01*
X123954000Y-120839568D01*
X123954000Y-120839578D01*
X123950324Y-120876900D01*
X123954000Y-120914223D01*
X123954001Y-122709928D01*
X123824000Y-122709928D01*
X123699518Y-122722188D01*
X123579820Y-122758498D01*
X123469506Y-122817463D01*
X123444000Y-122838395D01*
X123418494Y-122817463D01*
X123308180Y-122758498D01*
X123188482Y-122722188D01*
X123064000Y-122709928D01*
X121284000Y-122709928D01*
X121159518Y-122722188D01*
X121039820Y-122758498D01*
X120929506Y-122817463D01*
X120832815Y-122896815D01*
X120753463Y-122993506D01*
X120694498Y-123103820D01*
X120658188Y-123223518D01*
X120645928Y-123348000D01*
X120645928Y-126340000D01*
X116992000Y-126340000D01*
X116992000Y-122649581D01*
X116989146Y-122620603D01*
X116989234Y-122607997D01*
X116988334Y-122598826D01*
X116946882Y-122204422D01*
X116934855Y-122145829D01*
X116923645Y-122087065D01*
X116920981Y-122078243D01*
X116803710Y-121699401D01*
X116780526Y-121644250D01*
X116758120Y-121588792D01*
X116753794Y-121580655D01*
X116565172Y-121231807D01*
X116531717Y-121182208D01*
X116498968Y-121132162D01*
X116493144Y-121125021D01*
X116240356Y-120819453D01*
X116197923Y-120777315D01*
X116156057Y-120734562D01*
X116148962Y-120728694D01*
X116148957Y-120728689D01*
X116148952Y-120728685D01*
X115841631Y-120478041D01*
X115791838Y-120444959D01*
X115742449Y-120411141D01*
X115734343Y-120406759D01*
X115384187Y-120220577D01*
X115328867Y-120197776D01*
X115273899Y-120174216D01*
X115265099Y-120171492D01*
X115265093Y-120171490D01*
X114960000Y-120079378D01*
X114960000Y-116619872D01*
X115494000Y-116619872D01*
X115494000Y-117060128D01*
X115579890Y-117491925D01*
X115748369Y-117898669D01*
X115992962Y-118264729D01*
X116304271Y-118576038D01*
X116670331Y-118820631D01*
X117077075Y-118989110D01*
X117508872Y-119075000D01*
X117949128Y-119075000D01*
X118380925Y-118989110D01*
X118787669Y-118820631D01*
X119153729Y-118576038D01*
X119465038Y-118264729D01*
X119709631Y-117898669D01*
X119878110Y-117491925D01*
X119964000Y-117060128D01*
X119964000Y-116619872D01*
X119878110Y-116188075D01*
X119709631Y-115781331D01*
X119465038Y-115415271D01*
X119153729Y-115103962D01*
X118787669Y-114859369D01*
X118380925Y-114690890D01*
X117949128Y-114605000D01*
X117508872Y-114605000D01*
X117077075Y-114690890D01*
X116670331Y-114859369D01*
X116304271Y-115103962D01*
X115992962Y-115415271D01*
X115748369Y-115781331D01*
X115579890Y-116188075D01*
X115494000Y-116619872D01*
X114960000Y-116619872D01*
X114960000Y-111023000D01*
X122463289Y-111023000D01*
X122386063Y-111100226D01*
%TA.AperFunction,NonConductor*%
D16*
G36*
X122386063Y-111100226D02*
G01*
X122272795Y-111269744D01*
X122194774Y-111458102D01*
X122155000Y-111658061D01*
X122155000Y-111861939D01*
X122194774Y-112061898D01*
X122272795Y-112250256D01*
X122386063Y-112419774D01*
X122530226Y-112563937D01*
X122699744Y-112677205D01*
X122888102Y-112755226D01*
X123088061Y-112795000D01*
X123291939Y-112795000D01*
X123491898Y-112755226D01*
X123680256Y-112677205D01*
X123849774Y-112563937D01*
X123993937Y-112419774D01*
X124107205Y-112250256D01*
X124185226Y-112061898D01*
X124225000Y-111861939D01*
X124225000Y-111658061D01*
X124185226Y-111458102D01*
X124107205Y-111269744D01*
X123993937Y-111100226D01*
X123916711Y-111023000D01*
X128200266Y-111023000D01*
X128198774Y-111026602D01*
X128159000Y-111226561D01*
X128159000Y-111430439D01*
X128198774Y-111630398D01*
X128205207Y-111645928D01*
X127870000Y-111645928D01*
X127745518Y-111658188D01*
X127635000Y-111691713D01*
X127524482Y-111658188D01*
X127400000Y-111645928D01*
X126600000Y-111645928D01*
X126475518Y-111658188D01*
X126355820Y-111694498D01*
X126245506Y-111753463D01*
X126148815Y-111832815D01*
X126069463Y-111929506D01*
X126010498Y-112039820D01*
X125974188Y-112159518D01*
X125961928Y-112284000D01*
X125961928Y-113849300D01*
X125158322Y-113849300D01*
X125120999Y-113845624D01*
X125083676Y-113849300D01*
X125083667Y-113849300D01*
X124972014Y-113860297D01*
X124828753Y-113903754D01*
X124696724Y-113974326D01*
X124580999Y-114069299D01*
X124557201Y-114098297D01*
X124266410Y-114389089D01*
X124266185Y-114388815D01*
X124169494Y-114309463D01*
X124059180Y-114250498D01*
X123939482Y-114214188D01*
X123815000Y-114201928D01*
X122565000Y-114201928D01*
X122440518Y-114214188D01*
X122320820Y-114250498D01*
X122210506Y-114309463D01*
X122113815Y-114388815D01*
X122034463Y-114485506D01*
X121975498Y-114595820D01*
X121939188Y-114715518D01*
X121926928Y-114840000D01*
X121926928Y-116340000D01*
X121939188Y-116464482D01*
X121975498Y-116584180D01*
X122034463Y-116694494D01*
X122113815Y-116791185D01*
X122173296Y-116840000D01*
X122113815Y-116888815D01*
X122034463Y-116985506D01*
X121975498Y-117095820D01*
X121939188Y-117215518D01*
X121926928Y-117340000D01*
X121926928Y-118840000D01*
X121939188Y-118964482D01*
X121975498Y-119084180D01*
X122034463Y-119194494D01*
X122113815Y-119291185D01*
X122210506Y-119370537D01*
X122320820Y-119429502D01*
X122440518Y-119465812D01*
X122565000Y-119478072D01*
X123815000Y-119478072D01*
X123939482Y-119465812D01*
X124059180Y-119429502D01*
X124099819Y-119407780D01*
X124237844Y-119500005D01*
X124426202Y-119578026D01*
X124626161Y-119617800D01*
X124830039Y-119617800D01*
X124915248Y-119600851D01*
X124203003Y-120313096D01*
X124173999Y-120336899D01*
X124130615Y-120389763D01*
X124079026Y-120452624D01*
X124037454Y-120530400D01*
X124008454Y-120584654D01*
X123964997Y-120727915D01*
X123954000Y-120839568D01*
X123954000Y-120839578D01*
X123950324Y-120876900D01*
X123954000Y-120914223D01*
X123954001Y-122709928D01*
X123824000Y-122709928D01*
X123699518Y-122722188D01*
X123579820Y-122758498D01*
X123469506Y-122817463D01*
X123444000Y-122838395D01*
X123418494Y-122817463D01*
X123308180Y-122758498D01*
X123188482Y-122722188D01*
X123064000Y-122709928D01*
X121284000Y-122709928D01*
X121159518Y-122722188D01*
X121039820Y-122758498D01*
X120929506Y-122817463D01*
X120832815Y-122896815D01*
X120753463Y-122993506D01*
X120694498Y-123103820D01*
X120658188Y-123223518D01*
X120645928Y-123348000D01*
X120645928Y-126340000D01*
X116992000Y-126340000D01*
X116992000Y-122649581D01*
X116989146Y-122620603D01*
X116989234Y-122607997D01*
X116988334Y-122598826D01*
X116946882Y-122204422D01*
X116934855Y-122145829D01*
X116923645Y-122087065D01*
X116920981Y-122078243D01*
X116803710Y-121699401D01*
X116780526Y-121644250D01*
X116758120Y-121588792D01*
X116753794Y-121580655D01*
X116565172Y-121231807D01*
X116531717Y-121182208D01*
X116498968Y-121132162D01*
X116493144Y-121125021D01*
X116240356Y-120819453D01*
X116197923Y-120777315D01*
X116156057Y-120734562D01*
X116148962Y-120728694D01*
X116148957Y-120728689D01*
X116148952Y-120728685D01*
X115841631Y-120478041D01*
X115791838Y-120444959D01*
X115742449Y-120411141D01*
X115734343Y-120406759D01*
X115384187Y-120220577D01*
X115328867Y-120197776D01*
X115273899Y-120174216D01*
X115265099Y-120171492D01*
X115265093Y-120171490D01*
X114960000Y-120079378D01*
X114960000Y-116619872D01*
X115494000Y-116619872D01*
X115494000Y-117060128D01*
X115579890Y-117491925D01*
X115748369Y-117898669D01*
X115992962Y-118264729D01*
X116304271Y-118576038D01*
X116670331Y-118820631D01*
X117077075Y-118989110D01*
X117508872Y-119075000D01*
X117949128Y-119075000D01*
X118380925Y-118989110D01*
X118787669Y-118820631D01*
X119153729Y-118576038D01*
X119465038Y-118264729D01*
X119709631Y-117898669D01*
X119878110Y-117491925D01*
X119964000Y-117060128D01*
X119964000Y-116619872D01*
X119878110Y-116188075D01*
X119709631Y-115781331D01*
X119465038Y-115415271D01*
X119153729Y-115103962D01*
X118787669Y-114859369D01*
X118380925Y-114690890D01*
X117949128Y-114605000D01*
X117508872Y-114605000D01*
X117077075Y-114690890D01*
X116670331Y-114859369D01*
X116304271Y-115103962D01*
X115992962Y-115415271D01*
X115748369Y-115781331D01*
X115579890Y-116188075D01*
X115494000Y-116619872D01*
X114960000Y-116619872D01*
X114960000Y-111023000D01*
X122463289Y-111023000D01*
X122386063Y-111100226D01*
G37*
%TD.AperFunction*%
D15*
X202667000Y-126340000D02*
X197362072Y-126340000D01*
X197362072Y-123348000D01*
X197349812Y-123223518D01*
X197313502Y-123103820D01*
X197254537Y-122993506D01*
X197175185Y-122896815D01*
X197078494Y-122817463D01*
X196968180Y-122758498D01*
X196848482Y-122722188D01*
X196724000Y-122709928D01*
X194944000Y-122709928D01*
X194819518Y-122722188D01*
X194699820Y-122758498D01*
X194589506Y-122817463D01*
X194564000Y-122838395D01*
X194538494Y-122817463D01*
X194428180Y-122758498D01*
X194308482Y-122722188D01*
X194184000Y-122709928D01*
X194054000Y-122709928D01*
X194054000Y-117440625D01*
X194057676Y-117403300D01*
X194054000Y-117365975D01*
X194054000Y-117365967D01*
X194043003Y-117254314D01*
X193999546Y-117111053D01*
X193928974Y-116979024D01*
X193834001Y-116863299D01*
X193805003Y-116839501D01*
X193585374Y-116619872D01*
X197663000Y-116619872D01*
X197663000Y-117060128D01*
X197748890Y-117491925D01*
X197917369Y-117898669D01*
X198161962Y-118264729D01*
X198473271Y-118576038D01*
X198839331Y-118820631D01*
X199246075Y-118989110D01*
X199677872Y-119075000D01*
X200118128Y-119075000D01*
X200549925Y-118989110D01*
X200956669Y-118820631D01*
X201322729Y-118576038D01*
X201634038Y-118264729D01*
X201878631Y-117898669D01*
X202047110Y-117491925D01*
X202133000Y-117060128D01*
X202133000Y-116619872D01*
X202047110Y-116188075D01*
X201878631Y-115781331D01*
X201634038Y-115415271D01*
X201322729Y-115103962D01*
X200956669Y-114859369D01*
X200549925Y-114690890D01*
X200118128Y-114605000D01*
X199677872Y-114605000D01*
X199246075Y-114690890D01*
X198839331Y-114859369D01*
X198473271Y-115103962D01*
X198161962Y-115415271D01*
X197917369Y-115781331D01*
X197748890Y-116188075D01*
X197663000Y-116619872D01*
X193585374Y-116619872D01*
X191490475Y-114524974D01*
X191525812Y-114408482D01*
X191538072Y-114284000D01*
X191538072Y-112284000D01*
X191525812Y-112159518D01*
X191489502Y-112039820D01*
X191430537Y-111929506D01*
X191351185Y-111832815D01*
X191254494Y-111753463D01*
X191144180Y-111694498D01*
X191024482Y-111658188D01*
X190900000Y-111645928D01*
X190100000Y-111645928D01*
X189975518Y-111658188D01*
X189865000Y-111691713D01*
X189754482Y-111658188D01*
X189630000Y-111645928D01*
X188830000Y-111645928D01*
X188705518Y-111658188D01*
X188666618Y-111669988D01*
X188665546Y-111666453D01*
X188594974Y-111534424D01*
X188500001Y-111418699D01*
X188470997Y-111394896D01*
X188099101Y-111023000D01*
X202667001Y-111023000D01*
X202667000Y-126340000D01*
%TA.AperFunction,NonConductor*%
D16*
G36*
X202667000Y-126340000D02*
G01*
X197362072Y-126340000D01*
X197362072Y-123348000D01*
X197349812Y-123223518D01*
X197313502Y-123103820D01*
X197254537Y-122993506D01*
X197175185Y-122896815D01*
X197078494Y-122817463D01*
X196968180Y-122758498D01*
X196848482Y-122722188D01*
X196724000Y-122709928D01*
X194944000Y-122709928D01*
X194819518Y-122722188D01*
X194699820Y-122758498D01*
X194589506Y-122817463D01*
X194564000Y-122838395D01*
X194538494Y-122817463D01*
X194428180Y-122758498D01*
X194308482Y-122722188D01*
X194184000Y-122709928D01*
X194054000Y-122709928D01*
X194054000Y-117440625D01*
X194057676Y-117403300D01*
X194054000Y-117365975D01*
X194054000Y-117365967D01*
X194043003Y-117254314D01*
X193999546Y-117111053D01*
X193928974Y-116979024D01*
X193834001Y-116863299D01*
X193805003Y-116839501D01*
X193585374Y-116619872D01*
X197663000Y-116619872D01*
X197663000Y-117060128D01*
X197748890Y-117491925D01*
X197917369Y-117898669D01*
X198161962Y-118264729D01*
X198473271Y-118576038D01*
X198839331Y-118820631D01*
X199246075Y-118989110D01*
X199677872Y-119075000D01*
X200118128Y-119075000D01*
X200549925Y-118989110D01*
X200956669Y-118820631D01*
X201322729Y-118576038D01*
X201634038Y-118264729D01*
X201878631Y-117898669D01*
X202047110Y-117491925D01*
X202133000Y-117060128D01*
X202133000Y-116619872D01*
X202047110Y-116188075D01*
X201878631Y-115781331D01*
X201634038Y-115415271D01*
X201322729Y-115103962D01*
X200956669Y-114859369D01*
X200549925Y-114690890D01*
X200118128Y-114605000D01*
X199677872Y-114605000D01*
X199246075Y-114690890D01*
X198839331Y-114859369D01*
X198473271Y-115103962D01*
X198161962Y-115415271D01*
X197917369Y-115781331D01*
X197748890Y-116188075D01*
X197663000Y-116619872D01*
X193585374Y-116619872D01*
X191490475Y-114524974D01*
X191525812Y-114408482D01*
X191538072Y-114284000D01*
X191538072Y-112284000D01*
X191525812Y-112159518D01*
X191489502Y-112039820D01*
X191430537Y-111929506D01*
X191351185Y-111832815D01*
X191254494Y-111753463D01*
X191144180Y-111694498D01*
X191024482Y-111658188D01*
X190900000Y-111645928D01*
X190100000Y-111645928D01*
X189975518Y-111658188D01*
X189865000Y-111691713D01*
X189754482Y-111658188D01*
X189630000Y-111645928D01*
X188830000Y-111645928D01*
X188705518Y-111658188D01*
X188666618Y-111669988D01*
X188665546Y-111666453D01*
X188594974Y-111534424D01*
X188500001Y-111418699D01*
X188470997Y-111394896D01*
X188099101Y-111023000D01*
X202667001Y-111023000D01*
X202667000Y-126340000D01*
G37*
%TD.AperFunction*%
D15*
X126088928Y-121396000D02*
X126101188Y-121520482D01*
X126137498Y-121640180D01*
X126196463Y-121750494D01*
X126275815Y-121847185D01*
X126372506Y-121926537D01*
X126399425Y-121940926D01*
X126421454Y-122013547D01*
X126492026Y-122145576D01*
X126586999Y-122261301D01*
X126702724Y-122356274D01*
X126834753Y-122426846D01*
X126978014Y-122470303D01*
X127089667Y-122481300D01*
X127127000Y-122484977D01*
X127164333Y-122481300D01*
X127515757Y-122481300D01*
X127492974Y-122536302D01*
X127458438Y-122709928D01*
X126364000Y-122709928D01*
X126239518Y-122722188D01*
X126119820Y-122758498D01*
X126009506Y-122817463D01*
X125984000Y-122838395D01*
X125958494Y-122817463D01*
X125848180Y-122758498D01*
X125728482Y-122722188D01*
X125604000Y-122709928D01*
X125474000Y-122709928D01*
X125474000Y-121191701D01*
X126088928Y-120576773D01*
X126088928Y-121396000D01*
%TA.AperFunction,NonConductor*%
D16*
G36*
X126088928Y-121396000D02*
G01*
X126101188Y-121520482D01*
X126137498Y-121640180D01*
X126196463Y-121750494D01*
X126275815Y-121847185D01*
X126372506Y-121926537D01*
X126399425Y-121940926D01*
X126421454Y-122013547D01*
X126492026Y-122145576D01*
X126586999Y-122261301D01*
X126702724Y-122356274D01*
X126834753Y-122426846D01*
X126978014Y-122470303D01*
X127089667Y-122481300D01*
X127127000Y-122484977D01*
X127164333Y-122481300D01*
X127515757Y-122481300D01*
X127492974Y-122536302D01*
X127458438Y-122709928D01*
X126364000Y-122709928D01*
X126239518Y-122722188D01*
X126119820Y-122758498D01*
X126009506Y-122817463D01*
X125984000Y-122838395D01*
X125958494Y-122817463D01*
X125848180Y-122758498D01*
X125728482Y-122722188D01*
X125604000Y-122709928D01*
X125474000Y-122709928D01*
X125474000Y-121191701D01*
X126088928Y-120576773D01*
X126088928Y-121396000D01*
G37*
%TD.AperFunction*%
D15*
X149573999Y-122482699D02*
X149479026Y-122598424D01*
X149419425Y-122709928D01*
X149224000Y-122709928D01*
X149099518Y-122722188D01*
X148979820Y-122758498D01*
X148869506Y-122817463D01*
X148844000Y-122838395D01*
X148838017Y-122833485D01*
X149190202Y-122481300D01*
X149575704Y-122481300D01*
X149573999Y-122482699D01*
%TA.AperFunction,NonConductor*%
D16*
G36*
X149573999Y-122482699D02*
G01*
X149479026Y-122598424D01*
X149419425Y-122709928D01*
X149224000Y-122709928D01*
X149099518Y-122722188D01*
X148979820Y-122758498D01*
X148869506Y-122817463D01*
X148844000Y-122838395D01*
X148838017Y-122833485D01*
X149190202Y-122481300D01*
X149575704Y-122481300D01*
X149573999Y-122482699D01*
G37*
%TD.AperFunction*%
D15*
X185133999Y-122482699D02*
X185039026Y-122598424D01*
X184979425Y-122709928D01*
X184784000Y-122709928D01*
X184659518Y-122722188D01*
X184539820Y-122758498D01*
X184429506Y-122817463D01*
X184404000Y-122838395D01*
X184378494Y-122817463D01*
X184268180Y-122758498D01*
X184148482Y-122722188D01*
X184024000Y-122709928D01*
X183828575Y-122709928D01*
X183768974Y-122598424D01*
X183674001Y-122482699D01*
X183672296Y-122481300D01*
X185135704Y-122481300D01*
X185133999Y-122482699D01*
%TA.AperFunction,NonConductor*%
D16*
G36*
X185133999Y-122482699D02*
G01*
X185039026Y-122598424D01*
X184979425Y-122709928D01*
X184784000Y-122709928D01*
X184659518Y-122722188D01*
X184539820Y-122758498D01*
X184429506Y-122817463D01*
X184404000Y-122838395D01*
X184378494Y-122817463D01*
X184268180Y-122758498D01*
X184148482Y-122722188D01*
X184024000Y-122709928D01*
X183828575Y-122709928D01*
X183768974Y-122598424D01*
X183674001Y-122482699D01*
X183672296Y-122481300D01*
X185135704Y-122481300D01*
X185133999Y-122482699D01*
G37*
%TD.AperFunction*%
D15*
X153162026Y-122145576D02*
X153256999Y-122261301D01*
X153372724Y-122356274D01*
X153504753Y-122426846D01*
X153531440Y-122434941D01*
X153929983Y-122833485D01*
X153924000Y-122838395D01*
X153898494Y-122817463D01*
X153788180Y-122758498D01*
X153668482Y-122722188D01*
X153544000Y-122709928D01*
X152613174Y-122709928D01*
X153038003Y-122285099D01*
X153067001Y-122261301D01*
X153161974Y-122145576D01*
X153162000Y-122145527D01*
X153162026Y-122145576D01*
%TA.AperFunction,NonConductor*%
D16*
G36*
X153162026Y-122145576D02*
G01*
X153256999Y-122261301D01*
X153372724Y-122356274D01*
X153504753Y-122426846D01*
X153531440Y-122434941D01*
X153929983Y-122833485D01*
X153924000Y-122838395D01*
X153898494Y-122817463D01*
X153788180Y-122758498D01*
X153668482Y-122722188D01*
X153544000Y-122709928D01*
X152613174Y-122709928D01*
X153038003Y-122285099D01*
X153067001Y-122261301D01*
X153161974Y-122145576D01*
X153162000Y-122145527D01*
X153162026Y-122145576D01*
G37*
%TD.AperFunction*%
D15*
X189865026Y-115033576D02*
X189918566Y-115098814D01*
X189960000Y-115149301D01*
X189988998Y-115173099D01*
X192534001Y-117718103D01*
X192534000Y-122709928D01*
X192404000Y-122709928D01*
X192279518Y-122722188D01*
X192160185Y-122758387D01*
X192166014Y-122739173D01*
X192203503Y-122615586D01*
X192214500Y-122503933D01*
X192214500Y-122503924D01*
X192218176Y-122466601D01*
X192214500Y-122429278D01*
X192214500Y-119491323D01*
X192218176Y-119454000D01*
X192214500Y-119416677D01*
X192214500Y-119416667D01*
X192203503Y-119305014D01*
X192160046Y-119161753D01*
X192141083Y-119126276D01*
X192089474Y-119029723D01*
X192018299Y-118942997D01*
X191994501Y-118913999D01*
X191965503Y-118890201D01*
X188992604Y-115917303D01*
X188989662Y-115913719D01*
X188993026Y-115905598D01*
X189032800Y-115705639D01*
X189032800Y-115643502D01*
X189311336Y-115364966D01*
X189378986Y-115358303D01*
X189522247Y-115314846D01*
X189654276Y-115244274D01*
X189770001Y-115149301D01*
X189864974Y-115033576D01*
X189865000Y-115033527D01*
X189865026Y-115033576D01*
%TA.AperFunction,NonConductor*%
D16*
G36*
X189865026Y-115033576D02*
G01*
X189918566Y-115098814D01*
X189960000Y-115149301D01*
X189988998Y-115173099D01*
X192534001Y-117718103D01*
X192534000Y-122709928D01*
X192404000Y-122709928D01*
X192279518Y-122722188D01*
X192160185Y-122758387D01*
X192166014Y-122739173D01*
X192203503Y-122615586D01*
X192214500Y-122503933D01*
X192214500Y-122503924D01*
X192218176Y-122466601D01*
X192214500Y-122429278D01*
X192214500Y-119491323D01*
X192218176Y-119454000D01*
X192214500Y-119416677D01*
X192214500Y-119416667D01*
X192203503Y-119305014D01*
X192160046Y-119161753D01*
X192141083Y-119126276D01*
X192089474Y-119029723D01*
X192018299Y-118942997D01*
X191994501Y-118913999D01*
X191965503Y-118890201D01*
X188992604Y-115917303D01*
X188989662Y-115913719D01*
X188993026Y-115905598D01*
X189032800Y-115705639D01*
X189032800Y-115643502D01*
X189311336Y-115364966D01*
X189378986Y-115358303D01*
X189522247Y-115314846D01*
X189654276Y-115244274D01*
X189770001Y-115149301D01*
X189864974Y-115033576D01*
X189865000Y-115033527D01*
X189865026Y-115033576D01*
G37*
%TD.AperFunction*%
D15*
X163251454Y-122013546D02*
X163322026Y-122145576D01*
X163389446Y-122227726D01*
X163417000Y-122261301D01*
X163445998Y-122285099D01*
X163906863Y-122745965D01*
X163828482Y-122722188D01*
X163704000Y-122709928D01*
X163508575Y-122709928D01*
X163448974Y-122598424D01*
X163354001Y-122482699D01*
X163238276Y-122387726D01*
X163106247Y-122317154D01*
X162962986Y-122273697D01*
X162851333Y-122262700D01*
X162814000Y-122259023D01*
X162776667Y-122262700D01*
X161955296Y-122262700D01*
X161957001Y-122261301D01*
X162051974Y-122145576D01*
X162122546Y-122013547D01*
X162123618Y-122010012D01*
X162162518Y-122021812D01*
X162287000Y-122034072D01*
X163087000Y-122034072D01*
X163211482Y-122021812D01*
X163250382Y-122010012D01*
X163251454Y-122013546D01*
%TA.AperFunction,NonConductor*%
D16*
G36*
X163251454Y-122013546D02*
G01*
X163322026Y-122145576D01*
X163389446Y-122227726D01*
X163417000Y-122261301D01*
X163445998Y-122285099D01*
X163906863Y-122745965D01*
X163828482Y-122722188D01*
X163704000Y-122709928D01*
X163508575Y-122709928D01*
X163448974Y-122598424D01*
X163354001Y-122482699D01*
X163238276Y-122387726D01*
X163106247Y-122317154D01*
X162962986Y-122273697D01*
X162851333Y-122262700D01*
X162814000Y-122259023D01*
X162776667Y-122262700D01*
X161955296Y-122262700D01*
X161957001Y-122261301D01*
X162051974Y-122145576D01*
X162122546Y-122013547D01*
X162123618Y-122010012D01*
X162162518Y-122021812D01*
X162287000Y-122034072D01*
X163087000Y-122034072D01*
X163211482Y-122021812D01*
X163250382Y-122010012D01*
X163251454Y-122013546D01*
G37*
%TD.AperFunction*%
D15*
X187381454Y-122013547D02*
X187452026Y-122145576D01*
X187509883Y-122216075D01*
X187519157Y-122262700D01*
X186085296Y-122262700D01*
X186087001Y-122261301D01*
X186181974Y-122145576D01*
X186252546Y-122013547D01*
X186253618Y-122010012D01*
X186292518Y-122021812D01*
X186417000Y-122034072D01*
X187217000Y-122034072D01*
X187341482Y-122021812D01*
X187380382Y-122010012D01*
X187381454Y-122013547D01*
%TA.AperFunction,NonConductor*%
D16*
G36*
X187381454Y-122013547D02*
G01*
X187452026Y-122145576D01*
X187509883Y-122216075D01*
X187519157Y-122262700D01*
X186085296Y-122262700D01*
X186087001Y-122261301D01*
X186181974Y-122145576D01*
X186252546Y-122013547D01*
X186253618Y-122010012D01*
X186292518Y-122021812D01*
X186417000Y-122034072D01*
X187217000Y-122034072D01*
X187341482Y-122021812D01*
X187380382Y-122010012D01*
X187381454Y-122013547D01*
G37*
%TD.AperFunction*%
D15*
X157104944Y-122051105D02*
X157293302Y-122129126D01*
X157493261Y-122168900D01*
X157555399Y-122168900D01*
X157649199Y-122262700D01*
X156683202Y-122262700D01*
X156454574Y-122034072D01*
X156737000Y-122034072D01*
X156861482Y-122021812D01*
X156981180Y-121985502D01*
X156995392Y-121977905D01*
X157104944Y-122051105D01*
%TA.AperFunction,NonConductor*%
D16*
G36*
X157104944Y-122051105D02*
G01*
X157293302Y-122129126D01*
X157493261Y-122168900D01*
X157555399Y-122168900D01*
X157649199Y-122262700D01*
X156683202Y-122262700D01*
X156454574Y-122034072D01*
X156737000Y-122034072D01*
X156861482Y-122021812D01*
X156981180Y-121985502D01*
X156995392Y-121977905D01*
X157104944Y-122051105D01*
G37*
%TD.AperFunction*%
D15*
X157626774Y-118555402D02*
X157587000Y-118755361D01*
X157587000Y-118959239D01*
X157626774Y-119159198D01*
X157704795Y-119347556D01*
X157818063Y-119517074D01*
X157962226Y-119661237D01*
X158131744Y-119774505D01*
X158320102Y-119852526D01*
X158520061Y-119892300D01*
X158723939Y-119892300D01*
X158923898Y-119852526D01*
X158976590Y-119830700D01*
X160378928Y-119830700D01*
X160378928Y-121073926D01*
X160363102Y-121077074D01*
X160174744Y-121155095D01*
X160005226Y-121268363D01*
X159861063Y-121412526D01*
X159747795Y-121582044D01*
X159669774Y-121770402D01*
X159630000Y-121970361D01*
X159630000Y-122093898D01*
X158630200Y-121094099D01*
X158630200Y-121031961D01*
X158590426Y-120832002D01*
X158512405Y-120643644D01*
X158399137Y-120474126D01*
X158254974Y-120329963D01*
X158085456Y-120216695D01*
X157897098Y-120138674D01*
X157697139Y-120098900D01*
X157493261Y-120098900D01*
X157375072Y-120122409D01*
X157375072Y-119396000D01*
X157362812Y-119271518D01*
X157326502Y-119151820D01*
X157267537Y-119041506D01*
X157188185Y-118944815D01*
X157091494Y-118865463D01*
X156981180Y-118806498D01*
X156861482Y-118770188D01*
X156737000Y-118757928D01*
X156376241Y-118757928D01*
X156393526Y-118716198D01*
X156433300Y-118516239D01*
X156433300Y-118454102D01*
X156518602Y-118368800D01*
X157704068Y-118368800D01*
X157626774Y-118555402D01*
%TA.AperFunction,NonConductor*%
D16*
G36*
X157626774Y-118555402D02*
G01*
X157587000Y-118755361D01*
X157587000Y-118959239D01*
X157626774Y-119159198D01*
X157704795Y-119347556D01*
X157818063Y-119517074D01*
X157962226Y-119661237D01*
X158131744Y-119774505D01*
X158320102Y-119852526D01*
X158520061Y-119892300D01*
X158723939Y-119892300D01*
X158923898Y-119852526D01*
X158976590Y-119830700D01*
X160378928Y-119830700D01*
X160378928Y-121073926D01*
X160363102Y-121077074D01*
X160174744Y-121155095D01*
X160005226Y-121268363D01*
X159861063Y-121412526D01*
X159747795Y-121582044D01*
X159669774Y-121770402D01*
X159630000Y-121970361D01*
X159630000Y-122093898D01*
X158630200Y-121094099D01*
X158630200Y-121031961D01*
X158590426Y-120832002D01*
X158512405Y-120643644D01*
X158399137Y-120474126D01*
X158254974Y-120329963D01*
X158085456Y-120216695D01*
X157897098Y-120138674D01*
X157697139Y-120098900D01*
X157493261Y-120098900D01*
X157375072Y-120122409D01*
X157375072Y-119396000D01*
X157362812Y-119271518D01*
X157326502Y-119151820D01*
X157267537Y-119041506D01*
X157188185Y-118944815D01*
X157091494Y-118865463D01*
X156981180Y-118806498D01*
X156861482Y-118770188D01*
X156737000Y-118757928D01*
X156376241Y-118757928D01*
X156393526Y-118716198D01*
X156433300Y-118516239D01*
X156433300Y-118454102D01*
X156518602Y-118368800D01*
X157704068Y-118368800D01*
X157626774Y-118555402D01*
G37*
%TD.AperFunction*%
D15*
X181453774Y-121708098D02*
X181496936Y-121812300D01*
X181346814Y-121812300D01*
X181397537Y-121750494D01*
X181444668Y-121662319D01*
X181453774Y-121708098D01*
%TA.AperFunction,NonConductor*%
D16*
G36*
X181453774Y-121708098D02*
G01*
X181496936Y-121812300D01*
X181346814Y-121812300D01*
X181397537Y-121750494D01*
X181444668Y-121662319D01*
X181453774Y-121708098D01*
G37*
%TD.AperFunction*%
D15*
X135151363Y-120713626D02*
X135038095Y-120883144D01*
X134960074Y-121071502D01*
X134920300Y-121271461D01*
X134920300Y-121411700D01*
X134106382Y-121411700D01*
X134119346Y-121387447D01*
X134127861Y-121359376D01*
X134162803Y-121244186D01*
X134173800Y-121132533D01*
X134173800Y-121132524D01*
X134177476Y-121095201D01*
X134173800Y-121057878D01*
X134173800Y-120785711D01*
X134217737Y-120741774D01*
X134322623Y-120584800D01*
X135280189Y-120584800D01*
X135151363Y-120713626D01*
%TA.AperFunction,NonConductor*%
D16*
G36*
X135151363Y-120713626D02*
G01*
X135038095Y-120883144D01*
X134960074Y-121071502D01*
X134920300Y-121271461D01*
X134920300Y-121411700D01*
X134106382Y-121411700D01*
X134119346Y-121387447D01*
X134127861Y-121359376D01*
X134162803Y-121244186D01*
X134173800Y-121132533D01*
X134173800Y-121132524D01*
X134177476Y-121095201D01*
X134173800Y-121057878D01*
X134173800Y-120785711D01*
X134217737Y-120741774D01*
X134322623Y-120584800D01*
X135280189Y-120584800D01*
X135151363Y-120713626D01*
G37*
%TD.AperFunction*%
D15*
X184381928Y-112284000D02*
X184381928Y-114284000D01*
X184394188Y-114408482D01*
X184430498Y-114528180D01*
X184489463Y-114638494D01*
X184568815Y-114735185D01*
X184665506Y-114814537D01*
X184775820Y-114873502D01*
X184895518Y-114909812D01*
X185020000Y-114922072D01*
X185820000Y-114922072D01*
X185944482Y-114909812D01*
X186055000Y-114876287D01*
X186165518Y-114909812D01*
X186290000Y-114922072D01*
X186592329Y-114922072D01*
X186557771Y-114986726D01*
X186526754Y-115044753D01*
X186483297Y-115188014D01*
X186472300Y-115299667D01*
X186472300Y-115299678D01*
X186468624Y-115337000D01*
X186472300Y-115374322D01*
X186472300Y-115901778D01*
X186468624Y-115939100D01*
X186472300Y-115976422D01*
X186472300Y-115976432D01*
X186483297Y-116088085D01*
X186521220Y-116213102D01*
X186526754Y-116231346D01*
X186597326Y-116363376D01*
X186635095Y-116409397D01*
X186692299Y-116479101D01*
X186721303Y-116502904D01*
X187157696Y-116939297D01*
X187181499Y-116968301D01*
X187297224Y-117063274D01*
X187429253Y-117133846D01*
X187572514Y-117177303D01*
X187684167Y-117188300D01*
X187684176Y-117188300D01*
X187721499Y-117191976D01*
X187758822Y-117188300D01*
X188113999Y-117188300D01*
X189683626Y-118757928D01*
X188957000Y-118757928D01*
X188832518Y-118770188D01*
X188722000Y-118803713D01*
X188611482Y-118770188D01*
X188487000Y-118757928D01*
X187687000Y-118757928D01*
X187562518Y-118770188D01*
X187452000Y-118803713D01*
X187341482Y-118770188D01*
X187217000Y-118757928D01*
X186417000Y-118757928D01*
X186292518Y-118770188D01*
X186182000Y-118803713D01*
X186071482Y-118770188D01*
X185947000Y-118757928D01*
X185147000Y-118757928D01*
X185022518Y-118770188D01*
X184902820Y-118806498D01*
X184792506Y-118865463D01*
X184695815Y-118944815D01*
X184616463Y-119041506D01*
X184557498Y-119151820D01*
X184521188Y-119271518D01*
X184508928Y-119396000D01*
X184508928Y-120961300D01*
X183384992Y-120961300D01*
X183366205Y-120915944D01*
X183252937Y-120746426D01*
X183108774Y-120602263D01*
X182939256Y-120488995D01*
X182750898Y-120410974D01*
X182550939Y-120371200D01*
X182347061Y-120371200D01*
X182147102Y-120410974D01*
X181958744Y-120488995D01*
X181789226Y-120602263D01*
X181645063Y-120746426D01*
X181531795Y-120915944D01*
X181505072Y-120980459D01*
X181505072Y-119396000D01*
X181492812Y-119271518D01*
X181456502Y-119151820D01*
X181397537Y-119041506D01*
X181318185Y-118944815D01*
X181221494Y-118865463D01*
X181111180Y-118806498D01*
X180991482Y-118770188D01*
X180867000Y-118757928D01*
X180067000Y-118757928D01*
X179942518Y-118770188D01*
X179903618Y-118781988D01*
X179902546Y-118778453D01*
X179831974Y-118646424D01*
X179810205Y-118619898D01*
X179760799Y-118559696D01*
X179760795Y-118559692D01*
X179737001Y-118530699D01*
X179708008Y-118506905D01*
X177489704Y-116288602D01*
X177465901Y-116259599D01*
X177350176Y-116164626D01*
X177330169Y-116153932D01*
X177693295Y-115790806D01*
X177778126Y-115875637D01*
X177947644Y-115988905D01*
X178136002Y-116066926D01*
X178335961Y-116106700D01*
X178539839Y-116106700D01*
X178739798Y-116066926D01*
X178928156Y-115988905D01*
X179097674Y-115875637D01*
X179241837Y-115731474D01*
X179355105Y-115561956D01*
X179433126Y-115373598D01*
X179454635Y-115265463D01*
X179494276Y-115244274D01*
X179610001Y-115149301D01*
X179704974Y-115033576D01*
X179705000Y-115033527D01*
X179705026Y-115033576D01*
X179799999Y-115149301D01*
X179915724Y-115244274D01*
X179995102Y-115286703D01*
X180024300Y-115315901D01*
X180024300Y-115378039D01*
X180064074Y-115577998D01*
X180142095Y-115766356D01*
X180255363Y-115935874D01*
X180399526Y-116080037D01*
X180569044Y-116193305D01*
X180757402Y-116271326D01*
X180957361Y-116311100D01*
X181161239Y-116311100D01*
X181361198Y-116271326D01*
X181549556Y-116193305D01*
X181719074Y-116080037D01*
X181863237Y-115935874D01*
X181976505Y-115766356D01*
X182054526Y-115577998D01*
X182094300Y-115378039D01*
X182094300Y-115174161D01*
X182054526Y-114974202D01*
X181976505Y-114785844D01*
X181863237Y-114616326D01*
X181719074Y-114472163D01*
X181549556Y-114358895D01*
X181377706Y-114287712D01*
X181378072Y-114284000D01*
X181378072Y-112284000D01*
X181374586Y-112248600D01*
X184385414Y-112248600D01*
X184381928Y-112284000D01*
%TA.AperFunction,NonConductor*%
D16*
G36*
X184381928Y-112284000D02*
G01*
X184381928Y-114284000D01*
X184394188Y-114408482D01*
X184430498Y-114528180D01*
X184489463Y-114638494D01*
X184568815Y-114735185D01*
X184665506Y-114814537D01*
X184775820Y-114873502D01*
X184895518Y-114909812D01*
X185020000Y-114922072D01*
X185820000Y-114922072D01*
X185944482Y-114909812D01*
X186055000Y-114876287D01*
X186165518Y-114909812D01*
X186290000Y-114922072D01*
X186592329Y-114922072D01*
X186557771Y-114986726D01*
X186526754Y-115044753D01*
X186483297Y-115188014D01*
X186472300Y-115299667D01*
X186472300Y-115299678D01*
X186468624Y-115337000D01*
X186472300Y-115374322D01*
X186472300Y-115901778D01*
X186468624Y-115939100D01*
X186472300Y-115976422D01*
X186472300Y-115976432D01*
X186483297Y-116088085D01*
X186521220Y-116213102D01*
X186526754Y-116231346D01*
X186597326Y-116363376D01*
X186635095Y-116409397D01*
X186692299Y-116479101D01*
X186721303Y-116502904D01*
X187157696Y-116939297D01*
X187181499Y-116968301D01*
X187297224Y-117063274D01*
X187429253Y-117133846D01*
X187572514Y-117177303D01*
X187684167Y-117188300D01*
X187684176Y-117188300D01*
X187721499Y-117191976D01*
X187758822Y-117188300D01*
X188113999Y-117188300D01*
X189683626Y-118757928D01*
X188957000Y-118757928D01*
X188832518Y-118770188D01*
X188722000Y-118803713D01*
X188611482Y-118770188D01*
X188487000Y-118757928D01*
X187687000Y-118757928D01*
X187562518Y-118770188D01*
X187452000Y-118803713D01*
X187341482Y-118770188D01*
X187217000Y-118757928D01*
X186417000Y-118757928D01*
X186292518Y-118770188D01*
X186182000Y-118803713D01*
X186071482Y-118770188D01*
X185947000Y-118757928D01*
X185147000Y-118757928D01*
X185022518Y-118770188D01*
X184902820Y-118806498D01*
X184792506Y-118865463D01*
X184695815Y-118944815D01*
X184616463Y-119041506D01*
X184557498Y-119151820D01*
X184521188Y-119271518D01*
X184508928Y-119396000D01*
X184508928Y-120961300D01*
X183384992Y-120961300D01*
X183366205Y-120915944D01*
X183252937Y-120746426D01*
X183108774Y-120602263D01*
X182939256Y-120488995D01*
X182750898Y-120410974D01*
X182550939Y-120371200D01*
X182347061Y-120371200D01*
X182147102Y-120410974D01*
X181958744Y-120488995D01*
X181789226Y-120602263D01*
X181645063Y-120746426D01*
X181531795Y-120915944D01*
X181505072Y-120980459D01*
X181505072Y-119396000D01*
X181492812Y-119271518D01*
X181456502Y-119151820D01*
X181397537Y-119041506D01*
X181318185Y-118944815D01*
X181221494Y-118865463D01*
X181111180Y-118806498D01*
X180991482Y-118770188D01*
X180867000Y-118757928D01*
X180067000Y-118757928D01*
X179942518Y-118770188D01*
X179903618Y-118781988D01*
X179902546Y-118778453D01*
X179831974Y-118646424D01*
X179810205Y-118619898D01*
X179760799Y-118559696D01*
X179760795Y-118559692D01*
X179737001Y-118530699D01*
X179708008Y-118506905D01*
X177489704Y-116288602D01*
X177465901Y-116259599D01*
X177350176Y-116164626D01*
X177330169Y-116153932D01*
X177693295Y-115790806D01*
X177778126Y-115875637D01*
X177947644Y-115988905D01*
X178136002Y-116066926D01*
X178335961Y-116106700D01*
X178539839Y-116106700D01*
X178739798Y-116066926D01*
X178928156Y-115988905D01*
X179097674Y-115875637D01*
X179241837Y-115731474D01*
X179355105Y-115561956D01*
X179433126Y-115373598D01*
X179454635Y-115265463D01*
X179494276Y-115244274D01*
X179610001Y-115149301D01*
X179704974Y-115033576D01*
X179705000Y-115033527D01*
X179705026Y-115033576D01*
X179799999Y-115149301D01*
X179915724Y-115244274D01*
X179995102Y-115286703D01*
X180024300Y-115315901D01*
X180024300Y-115378039D01*
X180064074Y-115577998D01*
X180142095Y-115766356D01*
X180255363Y-115935874D01*
X180399526Y-116080037D01*
X180569044Y-116193305D01*
X180757402Y-116271326D01*
X180957361Y-116311100D01*
X181161239Y-116311100D01*
X181361198Y-116271326D01*
X181549556Y-116193305D01*
X181719074Y-116080037D01*
X181863237Y-115935874D01*
X181976505Y-115766356D01*
X182054526Y-115577998D01*
X182094300Y-115378039D01*
X182094300Y-115174161D01*
X182054526Y-114974202D01*
X181976505Y-114785844D01*
X181863237Y-114616326D01*
X181719074Y-114472163D01*
X181549556Y-114358895D01*
X181377706Y-114287712D01*
X181378072Y-114284000D01*
X181378072Y-112284000D01*
X181374586Y-112248600D01*
X184385414Y-112248600D01*
X184381928Y-112284000D01*
G37*
%TD.AperFunction*%
D15*
X151246400Y-118183739D02*
X151286174Y-118383698D01*
X151364195Y-118572056D01*
X151477463Y-118741574D01*
X151493817Y-118757928D01*
X150857000Y-118757928D01*
X150732518Y-118770188D01*
X150612820Y-118806498D01*
X150502506Y-118865463D01*
X150405815Y-118944815D01*
X150326463Y-119041506D01*
X150267498Y-119151820D01*
X150231188Y-119271518D01*
X150218928Y-119396000D01*
X150218928Y-120961300D01*
X148912733Y-120961300D01*
X148908320Y-120960865D01*
X148975946Y-120834347D01*
X149019403Y-120691086D01*
X149030400Y-120579433D01*
X149030400Y-120579424D01*
X149034076Y-120542101D01*
X149030400Y-120504778D01*
X149030400Y-118826542D01*
X149227261Y-118865700D01*
X149431139Y-118865700D01*
X149631098Y-118825926D01*
X149819456Y-118747905D01*
X149988974Y-118634637D01*
X150133137Y-118490474D01*
X150246405Y-118320956D01*
X150324426Y-118132598D01*
X150335982Y-118074500D01*
X151246400Y-118074500D01*
X151246400Y-118183739D01*
%TA.AperFunction,NonConductor*%
D16*
G36*
X151246400Y-118183739D02*
G01*
X151286174Y-118383698D01*
X151364195Y-118572056D01*
X151477463Y-118741574D01*
X151493817Y-118757928D01*
X150857000Y-118757928D01*
X150732518Y-118770188D01*
X150612820Y-118806498D01*
X150502506Y-118865463D01*
X150405815Y-118944815D01*
X150326463Y-119041506D01*
X150267498Y-119151820D01*
X150231188Y-119271518D01*
X150218928Y-119396000D01*
X150218928Y-120961300D01*
X148912733Y-120961300D01*
X148908320Y-120960865D01*
X148975946Y-120834347D01*
X149019403Y-120691086D01*
X149030400Y-120579433D01*
X149030400Y-120579424D01*
X149034076Y-120542101D01*
X149030400Y-120504778D01*
X149030400Y-118826542D01*
X149227261Y-118865700D01*
X149431139Y-118865700D01*
X149631098Y-118825926D01*
X149819456Y-118747905D01*
X149988974Y-118634637D01*
X150133137Y-118490474D01*
X150246405Y-118320956D01*
X150324426Y-118132598D01*
X150335982Y-118074500D01*
X151246400Y-118074500D01*
X151246400Y-118183739D01*
G37*
%TD.AperFunction*%
D15*
X168265101Y-119747403D02*
X168288899Y-119776401D01*
X168404624Y-119871374D01*
X168536653Y-119941946D01*
X168679914Y-119985403D01*
X168791567Y-119996400D01*
X168791577Y-119996400D01*
X168828900Y-120000076D01*
X168866223Y-119996400D01*
X174348928Y-119996400D01*
X174348928Y-120442217D01*
X174335274Y-120428563D01*
X174165756Y-120315295D01*
X173977398Y-120237274D01*
X173777439Y-120197500D01*
X173573561Y-120197500D01*
X173373602Y-120237274D01*
X173185244Y-120315295D01*
X173122529Y-120357200D01*
X170013611Y-120357200D01*
X169969674Y-120313263D01*
X169800156Y-120199995D01*
X169611798Y-120121974D01*
X169411839Y-120082200D01*
X169207961Y-120082200D01*
X169008002Y-120121974D01*
X168819644Y-120199995D01*
X168650126Y-120313263D01*
X168505963Y-120457426D01*
X168392695Y-120626944D01*
X168314674Y-120815302D01*
X168309223Y-120842706D01*
X168206137Y-120688426D01*
X168061974Y-120544263D01*
X167892456Y-120430995D01*
X167704098Y-120352974D01*
X167504139Y-120313200D01*
X167408072Y-120313200D01*
X167408072Y-119396000D01*
X167395812Y-119271518D01*
X167359502Y-119151820D01*
X167300537Y-119041506D01*
X167243801Y-118972373D01*
X167259800Y-118891939D01*
X167259800Y-118821900D01*
X167339599Y-118821900D01*
X168265101Y-119747403D01*
%TA.AperFunction,NonConductor*%
D16*
G36*
X168265101Y-119747403D02*
G01*
X168288899Y-119776401D01*
X168404624Y-119871374D01*
X168536653Y-119941946D01*
X168679914Y-119985403D01*
X168791567Y-119996400D01*
X168791577Y-119996400D01*
X168828900Y-120000076D01*
X168866223Y-119996400D01*
X174348928Y-119996400D01*
X174348928Y-120442217D01*
X174335274Y-120428563D01*
X174165756Y-120315295D01*
X173977398Y-120237274D01*
X173777439Y-120197500D01*
X173573561Y-120197500D01*
X173373602Y-120237274D01*
X173185244Y-120315295D01*
X173122529Y-120357200D01*
X170013611Y-120357200D01*
X169969674Y-120313263D01*
X169800156Y-120199995D01*
X169611798Y-120121974D01*
X169411839Y-120082200D01*
X169207961Y-120082200D01*
X169008002Y-120121974D01*
X168819644Y-120199995D01*
X168650126Y-120313263D01*
X168505963Y-120457426D01*
X168392695Y-120626944D01*
X168314674Y-120815302D01*
X168309223Y-120842706D01*
X168206137Y-120688426D01*
X168061974Y-120544263D01*
X167892456Y-120430995D01*
X167704098Y-120352974D01*
X167504139Y-120313200D01*
X167408072Y-120313200D01*
X167408072Y-119396000D01*
X167395812Y-119271518D01*
X167359502Y-119151820D01*
X167300537Y-119041506D01*
X167243801Y-118972373D01*
X167259800Y-118891939D01*
X167259800Y-118821900D01*
X167339599Y-118821900D01*
X168265101Y-119747403D01*
G37*
%TD.AperFunction*%
D15*
X145120701Y-113556403D02*
X145144499Y-113585401D01*
X145173497Y-113609199D01*
X145260223Y-113680374D01*
X145358722Y-113733023D01*
X145392253Y-113750946D01*
X145535514Y-113794403D01*
X145647167Y-113805400D01*
X145647177Y-113805400D01*
X145684500Y-113809076D01*
X145721823Y-113805400D01*
X149588378Y-113805400D01*
X149625700Y-113809076D01*
X149663022Y-113805400D01*
X149663033Y-113805400D01*
X149774686Y-113794403D01*
X149815079Y-113782150D01*
X149820861Y-113783300D01*
X150024739Y-113783300D01*
X150091928Y-113769935D01*
X150091928Y-113849300D01*
X149288322Y-113849300D01*
X149250999Y-113845624D01*
X149213676Y-113849300D01*
X149213667Y-113849300D01*
X149102014Y-113860297D01*
X148958753Y-113903754D01*
X148826724Y-113974326D01*
X148710999Y-114069299D01*
X148687201Y-114098297D01*
X148396410Y-114389089D01*
X148396185Y-114388815D01*
X148299494Y-114309463D01*
X148189180Y-114250498D01*
X148069482Y-114214188D01*
X147945000Y-114201928D01*
X146695000Y-114201928D01*
X146570518Y-114214188D01*
X146450820Y-114250498D01*
X146340506Y-114309463D01*
X146243815Y-114388815D01*
X146164463Y-114485506D01*
X146105498Y-114595820D01*
X146069188Y-114715518D01*
X146056928Y-114840000D01*
X146056928Y-116340000D01*
X146069188Y-116464482D01*
X146105498Y-116584180D01*
X146164463Y-116694494D01*
X146243815Y-116791185D01*
X146303296Y-116840000D01*
X146243815Y-116888815D01*
X146164463Y-116985506D01*
X146105498Y-117095820D01*
X146069188Y-117215518D01*
X146056928Y-117340000D01*
X146056928Y-118840000D01*
X146069188Y-118964482D01*
X146105498Y-119084180D01*
X146164463Y-119194494D01*
X146243815Y-119291185D01*
X146326368Y-119358934D01*
X146319500Y-119393461D01*
X146319500Y-119597339D01*
X146359274Y-119797298D01*
X146437295Y-119985656D01*
X146550563Y-120155174D01*
X146694726Y-120299337D01*
X146864244Y-120412605D01*
X147052602Y-120490626D01*
X147214808Y-120522890D01*
X147013655Y-120724044D01*
X146966074Y-120676463D01*
X146796556Y-120563195D01*
X146608198Y-120485174D01*
X146408239Y-120445400D01*
X146346103Y-120445400D01*
X144460404Y-118559703D01*
X144436601Y-118530699D01*
X144320876Y-118435726D01*
X144188847Y-118365154D01*
X144045586Y-118321697D01*
X143933933Y-118310700D01*
X143933922Y-118310700D01*
X143896600Y-118307024D01*
X143859278Y-118310700D01*
X141135977Y-118310700D01*
X141108905Y-118245344D01*
X140995637Y-118075826D01*
X140851474Y-117931663D01*
X140681956Y-117818395D01*
X140493598Y-117740374D01*
X140293639Y-117700600D01*
X140089761Y-117700600D01*
X139889802Y-117740374D01*
X139701444Y-117818395D01*
X139531926Y-117931663D01*
X139387763Y-118075826D01*
X139274495Y-118245344D01*
X139196474Y-118433702D01*
X139161538Y-118609338D01*
X139107360Y-118543322D01*
X139175426Y-118378998D01*
X139215200Y-118179039D01*
X139215200Y-117975161D01*
X139175426Y-117775202D01*
X139097405Y-117586844D01*
X138984137Y-117417326D01*
X138839974Y-117273163D01*
X138670456Y-117159895D01*
X138482098Y-117081874D01*
X138282139Y-117042100D01*
X138250902Y-117042100D01*
X139923702Y-115369300D01*
X140932667Y-115369300D01*
X140970000Y-115372977D01*
X141118986Y-115358303D01*
X141262247Y-115314846D01*
X141394276Y-115244274D01*
X141510001Y-115149301D01*
X141604974Y-115033576D01*
X141605000Y-115033527D01*
X141605026Y-115033576D01*
X141699999Y-115149301D01*
X141815724Y-115244274D01*
X141831941Y-115252942D01*
X142199900Y-115620901D01*
X142199900Y-115683039D01*
X142239674Y-115882998D01*
X142317695Y-116071356D01*
X142430963Y-116240874D01*
X142575126Y-116385037D01*
X142744644Y-116498305D01*
X142933002Y-116576326D01*
X143132961Y-116616100D01*
X143336839Y-116616100D01*
X143536798Y-116576326D01*
X143725156Y-116498305D01*
X143894674Y-116385037D01*
X144038837Y-116240874D01*
X144152105Y-116071356D01*
X144230126Y-115882998D01*
X144269900Y-115683039D01*
X144269900Y-115479161D01*
X144230126Y-115279202D01*
X144152105Y-115090844D01*
X144038837Y-114921326D01*
X143894674Y-114777163D01*
X143725156Y-114663895D01*
X143536798Y-114585874D01*
X143336839Y-114546100D01*
X143274701Y-114546100D01*
X143235851Y-114507250D01*
X143265812Y-114408482D01*
X143278072Y-114284000D01*
X143278072Y-112718700D01*
X144282999Y-112718700D01*
X145120701Y-113556403D01*
%TA.AperFunction,NonConductor*%
D16*
G36*
X145120701Y-113556403D02*
G01*
X145144499Y-113585401D01*
X145173497Y-113609199D01*
X145260223Y-113680374D01*
X145358722Y-113733023D01*
X145392253Y-113750946D01*
X145535514Y-113794403D01*
X145647167Y-113805400D01*
X145647177Y-113805400D01*
X145684500Y-113809076D01*
X145721823Y-113805400D01*
X149588378Y-113805400D01*
X149625700Y-113809076D01*
X149663022Y-113805400D01*
X149663033Y-113805400D01*
X149774686Y-113794403D01*
X149815079Y-113782150D01*
X149820861Y-113783300D01*
X150024739Y-113783300D01*
X150091928Y-113769935D01*
X150091928Y-113849300D01*
X149288322Y-113849300D01*
X149250999Y-113845624D01*
X149213676Y-113849300D01*
X149213667Y-113849300D01*
X149102014Y-113860297D01*
X148958753Y-113903754D01*
X148826724Y-113974326D01*
X148710999Y-114069299D01*
X148687201Y-114098297D01*
X148396410Y-114389089D01*
X148396185Y-114388815D01*
X148299494Y-114309463D01*
X148189180Y-114250498D01*
X148069482Y-114214188D01*
X147945000Y-114201928D01*
X146695000Y-114201928D01*
X146570518Y-114214188D01*
X146450820Y-114250498D01*
X146340506Y-114309463D01*
X146243815Y-114388815D01*
X146164463Y-114485506D01*
X146105498Y-114595820D01*
X146069188Y-114715518D01*
X146056928Y-114840000D01*
X146056928Y-116340000D01*
X146069188Y-116464482D01*
X146105498Y-116584180D01*
X146164463Y-116694494D01*
X146243815Y-116791185D01*
X146303296Y-116840000D01*
X146243815Y-116888815D01*
X146164463Y-116985506D01*
X146105498Y-117095820D01*
X146069188Y-117215518D01*
X146056928Y-117340000D01*
X146056928Y-118840000D01*
X146069188Y-118964482D01*
X146105498Y-119084180D01*
X146164463Y-119194494D01*
X146243815Y-119291185D01*
X146326368Y-119358934D01*
X146319500Y-119393461D01*
X146319500Y-119597339D01*
X146359274Y-119797298D01*
X146437295Y-119985656D01*
X146550563Y-120155174D01*
X146694726Y-120299337D01*
X146864244Y-120412605D01*
X147052602Y-120490626D01*
X147214808Y-120522890D01*
X147013655Y-120724044D01*
X146966074Y-120676463D01*
X146796556Y-120563195D01*
X146608198Y-120485174D01*
X146408239Y-120445400D01*
X146346103Y-120445400D01*
X144460404Y-118559703D01*
X144436601Y-118530699D01*
X144320876Y-118435726D01*
X144188847Y-118365154D01*
X144045586Y-118321697D01*
X143933933Y-118310700D01*
X143933922Y-118310700D01*
X143896600Y-118307024D01*
X143859278Y-118310700D01*
X141135977Y-118310700D01*
X141108905Y-118245344D01*
X140995637Y-118075826D01*
X140851474Y-117931663D01*
X140681956Y-117818395D01*
X140493598Y-117740374D01*
X140293639Y-117700600D01*
X140089761Y-117700600D01*
X139889802Y-117740374D01*
X139701444Y-117818395D01*
X139531926Y-117931663D01*
X139387763Y-118075826D01*
X139274495Y-118245344D01*
X139196474Y-118433702D01*
X139161538Y-118609338D01*
X139107360Y-118543322D01*
X139175426Y-118378998D01*
X139215200Y-118179039D01*
X139215200Y-117975161D01*
X139175426Y-117775202D01*
X139097405Y-117586844D01*
X138984137Y-117417326D01*
X138839974Y-117273163D01*
X138670456Y-117159895D01*
X138482098Y-117081874D01*
X138282139Y-117042100D01*
X138250902Y-117042100D01*
X139923702Y-115369300D01*
X140932667Y-115369300D01*
X140970000Y-115372977D01*
X141118986Y-115358303D01*
X141262247Y-115314846D01*
X141394276Y-115244274D01*
X141510001Y-115149301D01*
X141604974Y-115033576D01*
X141605000Y-115033527D01*
X141605026Y-115033576D01*
X141699999Y-115149301D01*
X141815724Y-115244274D01*
X141831941Y-115252942D01*
X142199900Y-115620901D01*
X142199900Y-115683039D01*
X142239674Y-115882998D01*
X142317695Y-116071356D01*
X142430963Y-116240874D01*
X142575126Y-116385037D01*
X142744644Y-116498305D01*
X142933002Y-116576326D01*
X143132961Y-116616100D01*
X143336839Y-116616100D01*
X143536798Y-116576326D01*
X143725156Y-116498305D01*
X143894674Y-116385037D01*
X144038837Y-116240874D01*
X144152105Y-116071356D01*
X144230126Y-115882998D01*
X144269900Y-115683039D01*
X144269900Y-115479161D01*
X144230126Y-115279202D01*
X144152105Y-115090844D01*
X144038837Y-114921326D01*
X143894674Y-114777163D01*
X143725156Y-114663895D01*
X143536798Y-114585874D01*
X143336839Y-114546100D01*
X143274701Y-114546100D01*
X143235851Y-114507250D01*
X143265812Y-114408482D01*
X143278072Y-114284000D01*
X143278072Y-112718700D01*
X144282999Y-112718700D01*
X145120701Y-113556403D01*
G37*
%TD.AperFunction*%
D15*
X136248928Y-120376529D02*
X136057239Y-120338400D01*
X136052068Y-120338400D01*
X136054204Y-120335797D01*
X136248928Y-120141073D01*
X136248928Y-120376529D01*
%TA.AperFunction,NonConductor*%
D16*
G36*
X136248928Y-120376529D02*
G01*
X136057239Y-120338400D01*
X136052068Y-120338400D01*
X136054204Y-120335797D01*
X136248928Y-120141073D01*
X136248928Y-120376529D01*
G37*
%TD.AperFunction*%
D15*
X143839148Y-120088049D02*
X143662439Y-120052900D01*
X143458561Y-120052900D01*
X143278072Y-120088801D01*
X143278072Y-119830700D01*
X143581799Y-119830700D01*
X143839148Y-120088049D01*
%TA.AperFunction,NonConductor*%
D16*
G36*
X143839148Y-120088049D02*
G01*
X143662439Y-120052900D01*
X143458561Y-120052900D01*
X143278072Y-120088801D01*
X143278072Y-119830700D01*
X143581799Y-119830700D01*
X143839148Y-120088049D01*
G37*
%TD.AperFunction*%
D15*
X127635026Y-115033576D02*
X127729999Y-115149301D01*
X127845724Y-115244274D01*
X127977753Y-115314846D01*
X128121014Y-115358303D01*
X128232667Y-115369300D01*
X128270000Y-115372977D01*
X128307333Y-115369300D01*
X128656691Y-115369300D01*
X128692574Y-115549698D01*
X128728777Y-115637100D01*
X128564025Y-115637100D01*
X128526700Y-115633424D01*
X128489375Y-115637100D01*
X128489367Y-115637100D01*
X128377714Y-115648097D01*
X128234453Y-115691554D01*
X128102424Y-115762126D01*
X127986699Y-115857099D01*
X127962901Y-115886097D01*
X127246699Y-116602300D01*
X127184561Y-116602300D01*
X126984602Y-116642074D01*
X126796244Y-116720095D01*
X126626726Y-116833363D01*
X126482563Y-116977526D01*
X126369295Y-117147044D01*
X126291274Y-117335402D01*
X126251500Y-117535361D01*
X126251500Y-117739239D01*
X126291274Y-117939198D01*
X126369295Y-118127556D01*
X126377004Y-118139094D01*
X125746151Y-118769947D01*
X125763100Y-118684739D01*
X125763100Y-118480861D01*
X125723326Y-118280902D01*
X125645305Y-118092544D01*
X125532037Y-117923026D01*
X125387874Y-117778863D01*
X125218356Y-117665595D01*
X125029998Y-117587574D01*
X124830039Y-117547800D01*
X124677622Y-117547800D01*
X124564576Y-117455026D01*
X124453072Y-117395425D01*
X124453072Y-117340000D01*
X124440812Y-117215518D01*
X124404502Y-117095820D01*
X124345537Y-116985506D01*
X124266185Y-116888815D01*
X124206704Y-116840000D01*
X124266185Y-116791185D01*
X124345537Y-116694494D01*
X124404502Y-116584180D01*
X124440812Y-116464482D01*
X124453072Y-116340000D01*
X124453072Y-116284575D01*
X124564576Y-116224974D01*
X124680301Y-116130001D01*
X124704104Y-116100998D01*
X125435802Y-115369300D01*
X126962667Y-115369300D01*
X127000000Y-115372977D01*
X127148986Y-115358303D01*
X127292247Y-115314846D01*
X127424276Y-115244274D01*
X127540001Y-115149301D01*
X127634974Y-115033576D01*
X127635000Y-115033527D01*
X127635026Y-115033576D01*
%TA.AperFunction,NonConductor*%
D16*
G36*
X127635026Y-115033576D02*
G01*
X127729999Y-115149301D01*
X127845724Y-115244274D01*
X127977753Y-115314846D01*
X128121014Y-115358303D01*
X128232667Y-115369300D01*
X128270000Y-115372977D01*
X128307333Y-115369300D01*
X128656691Y-115369300D01*
X128692574Y-115549698D01*
X128728777Y-115637100D01*
X128564025Y-115637100D01*
X128526700Y-115633424D01*
X128489375Y-115637100D01*
X128489367Y-115637100D01*
X128377714Y-115648097D01*
X128234453Y-115691554D01*
X128102424Y-115762126D01*
X127986699Y-115857099D01*
X127962901Y-115886097D01*
X127246699Y-116602300D01*
X127184561Y-116602300D01*
X126984602Y-116642074D01*
X126796244Y-116720095D01*
X126626726Y-116833363D01*
X126482563Y-116977526D01*
X126369295Y-117147044D01*
X126291274Y-117335402D01*
X126251500Y-117535361D01*
X126251500Y-117739239D01*
X126291274Y-117939198D01*
X126369295Y-118127556D01*
X126377004Y-118139094D01*
X125746151Y-118769947D01*
X125763100Y-118684739D01*
X125763100Y-118480861D01*
X125723326Y-118280902D01*
X125645305Y-118092544D01*
X125532037Y-117923026D01*
X125387874Y-117778863D01*
X125218356Y-117665595D01*
X125029998Y-117587574D01*
X124830039Y-117547800D01*
X124677622Y-117547800D01*
X124564576Y-117455026D01*
X124453072Y-117395425D01*
X124453072Y-117340000D01*
X124440812Y-117215518D01*
X124404502Y-117095820D01*
X124345537Y-116985506D01*
X124266185Y-116888815D01*
X124206704Y-116840000D01*
X124266185Y-116791185D01*
X124345537Y-116694494D01*
X124404502Y-116584180D01*
X124440812Y-116464482D01*
X124453072Y-116340000D01*
X124453072Y-116284575D01*
X124564576Y-116224974D01*
X124680301Y-116130001D01*
X124704104Y-116100998D01*
X125435802Y-115369300D01*
X126962667Y-115369300D01*
X127000000Y-115372977D01*
X127148986Y-115358303D01*
X127292247Y-115314846D01*
X127424276Y-115244274D01*
X127540001Y-115149301D01*
X127634974Y-115033576D01*
X127635000Y-115033527D01*
X127635026Y-115033576D01*
G37*
%TD.AperFunction*%
D15*
X172735600Y-117647139D02*
X172775374Y-117847098D01*
X172853395Y-118035456D01*
X172966663Y-118204974D01*
X173110826Y-118349137D01*
X173280344Y-118462405D01*
X173314131Y-118476400D01*
X172713072Y-118476400D01*
X172713072Y-117559600D01*
X172735600Y-117559600D01*
X172735600Y-117647139D01*
%TA.AperFunction,NonConductor*%
D16*
G36*
X172735600Y-117647139D02*
G01*
X172775374Y-117847098D01*
X172853395Y-118035456D01*
X172966663Y-118204974D01*
X173110826Y-118349137D01*
X173280344Y-118462405D01*
X173314131Y-118476400D01*
X172713072Y-118476400D01*
X172713072Y-117559600D01*
X172735600Y-117559600D01*
X172735600Y-117647139D01*
G37*
%TD.AperFunction*%
D15*
X169184974Y-118444598D02*
X169198147Y-118476400D01*
X169143702Y-118476400D01*
X169036102Y-118368800D01*
X169169897Y-118368800D01*
X169184974Y-118444598D01*
%TA.AperFunction,NonConductor*%
D16*
G36*
X169184974Y-118444598D02*
G01*
X169198147Y-118476400D01*
X169143702Y-118476400D01*
X169036102Y-118368800D01*
X169169897Y-118368800D01*
X169184974Y-118444598D01*
G37*
%TD.AperFunction*%
D15*
X175745863Y-117599026D02*
X175703792Y-117661990D01*
X175601401Y-117559600D01*
X175785289Y-117559600D01*
X175745863Y-117599026D01*
%TA.AperFunction,NonConductor*%
D16*
G36*
X175745863Y-117599026D02*
G01*
X175703792Y-117661990D01*
X175601401Y-117559600D01*
X175785289Y-117559600D01*
X175745863Y-117599026D01*
G37*
%TD.AperFunction*%
D15*
X152776626Y-116030137D02*
X152946144Y-116143405D01*
X153134502Y-116221426D01*
X153334461Y-116261200D01*
X153538339Y-116261200D01*
X153738298Y-116221426D01*
X153926656Y-116143405D01*
X154096174Y-116030137D01*
X154140511Y-115985800D01*
X159216059Y-115985800D01*
X159311924Y-116064474D01*
X159443953Y-116135046D01*
X159587214Y-116178503D01*
X159698867Y-116189500D01*
X159698876Y-116189500D01*
X159736199Y-116193176D01*
X159773522Y-116189500D01*
X160717289Y-116189500D01*
X160761226Y-116233437D01*
X160930744Y-116346705D01*
X161055546Y-116398400D01*
X155197725Y-116398400D01*
X155160400Y-116394724D01*
X155123075Y-116398400D01*
X155123067Y-116398400D01*
X155011414Y-116409397D01*
X154868153Y-116452854D01*
X154736124Y-116523426D01*
X154620399Y-116618399D01*
X154596601Y-116647397D01*
X153797000Y-117446999D01*
X153153504Y-116803503D01*
X153129701Y-116774499D01*
X153013976Y-116679526D01*
X152881947Y-116608954D01*
X152738686Y-116565497D01*
X152627033Y-116554500D01*
X152627022Y-116554500D01*
X152589700Y-116550824D01*
X152552378Y-116554500D01*
X150577902Y-116554500D01*
X150908302Y-116224100D01*
X152135478Y-116224100D01*
X152172800Y-116227776D01*
X152210122Y-116224100D01*
X152210133Y-116224100D01*
X152321786Y-116213103D01*
X152465047Y-116169646D01*
X152597076Y-116099074D01*
X152712801Y-116004101D01*
X152729835Y-115983346D01*
X152776626Y-116030137D01*
%TA.AperFunction,NonConductor*%
D16*
G36*
X152776626Y-116030137D02*
G01*
X152946144Y-116143405D01*
X153134502Y-116221426D01*
X153334461Y-116261200D01*
X153538339Y-116261200D01*
X153738298Y-116221426D01*
X153926656Y-116143405D01*
X154096174Y-116030137D01*
X154140511Y-115985800D01*
X159216059Y-115985800D01*
X159311924Y-116064474D01*
X159443953Y-116135046D01*
X159587214Y-116178503D01*
X159698867Y-116189500D01*
X159698876Y-116189500D01*
X159736199Y-116193176D01*
X159773522Y-116189500D01*
X160717289Y-116189500D01*
X160761226Y-116233437D01*
X160930744Y-116346705D01*
X161055546Y-116398400D01*
X155197725Y-116398400D01*
X155160400Y-116394724D01*
X155123075Y-116398400D01*
X155123067Y-116398400D01*
X155011414Y-116409397D01*
X154868153Y-116452854D01*
X154736124Y-116523426D01*
X154620399Y-116618399D01*
X154596601Y-116647397D01*
X153797000Y-117446999D01*
X153153504Y-116803503D01*
X153129701Y-116774499D01*
X153013976Y-116679526D01*
X152881947Y-116608954D01*
X152738686Y-116565497D01*
X152627033Y-116554500D01*
X152627022Y-116554500D01*
X152589700Y-116550824D01*
X152552378Y-116554500D01*
X150577902Y-116554500D01*
X150908302Y-116224100D01*
X152135478Y-116224100D01*
X152172800Y-116227776D01*
X152210122Y-116224100D01*
X152210133Y-116224100D01*
X152321786Y-116213103D01*
X152465047Y-116169646D01*
X152597076Y-116099074D01*
X152712801Y-116004101D01*
X152729835Y-115983346D01*
X152776626Y-116030137D01*
G37*
%TD.AperFunction*%
D15*
X136121928Y-114284000D02*
X136134188Y-114408482D01*
X136156259Y-114481242D01*
X136107274Y-114599502D01*
X136067500Y-114799461D01*
X136067500Y-115003339D01*
X136107274Y-115203298D01*
X136185295Y-115391656D01*
X136298563Y-115561174D01*
X136442726Y-115705337D01*
X136612244Y-115818605D01*
X136800602Y-115896626D01*
X137000561Y-115936400D01*
X137204439Y-115936400D01*
X137207634Y-115935764D01*
X136212605Y-116930794D01*
X136129074Y-116847263D01*
X135959556Y-116733995D01*
X135771198Y-116655974D01*
X135571239Y-116616200D01*
X135367361Y-116616200D01*
X135189113Y-116651655D01*
X135134437Y-116569826D01*
X134990274Y-116425663D01*
X134820756Y-116312395D01*
X134632398Y-116234374D01*
X134432439Y-116194600D01*
X134370301Y-116194600D01*
X134123803Y-115948102D01*
X134100001Y-115919099D01*
X133984276Y-115824126D01*
X133852247Y-115753554D01*
X133708986Y-115710097D01*
X133597333Y-115699100D01*
X133597322Y-115699100D01*
X133560000Y-115695424D01*
X133522678Y-115699100D01*
X133168300Y-115699100D01*
X133168300Y-115544561D01*
X133136187Y-115383115D01*
X135218602Y-113300700D01*
X135280739Y-113300700D01*
X135480698Y-113260926D01*
X135669056Y-113182905D01*
X135838574Y-113069637D01*
X135982737Y-112925474D01*
X136096005Y-112755956D01*
X136121928Y-112693373D01*
X136121928Y-114284000D01*
%TA.AperFunction,NonConductor*%
D16*
G36*
X136121928Y-114284000D02*
G01*
X136134188Y-114408482D01*
X136156259Y-114481242D01*
X136107274Y-114599502D01*
X136067500Y-114799461D01*
X136067500Y-115003339D01*
X136107274Y-115203298D01*
X136185295Y-115391656D01*
X136298563Y-115561174D01*
X136442726Y-115705337D01*
X136612244Y-115818605D01*
X136800602Y-115896626D01*
X137000561Y-115936400D01*
X137204439Y-115936400D01*
X137207634Y-115935764D01*
X136212605Y-116930794D01*
X136129074Y-116847263D01*
X135959556Y-116733995D01*
X135771198Y-116655974D01*
X135571239Y-116616200D01*
X135367361Y-116616200D01*
X135189113Y-116651655D01*
X135134437Y-116569826D01*
X134990274Y-116425663D01*
X134820756Y-116312395D01*
X134632398Y-116234374D01*
X134432439Y-116194600D01*
X134370301Y-116194600D01*
X134123803Y-115948102D01*
X134100001Y-115919099D01*
X133984276Y-115824126D01*
X133852247Y-115753554D01*
X133708986Y-115710097D01*
X133597333Y-115699100D01*
X133597322Y-115699100D01*
X133560000Y-115695424D01*
X133522678Y-115699100D01*
X133168300Y-115699100D01*
X133168300Y-115544561D01*
X133136187Y-115383115D01*
X135218602Y-113300700D01*
X135280739Y-113300700D01*
X135480698Y-113260926D01*
X135669056Y-113182905D01*
X135838574Y-113069637D01*
X135982737Y-112925474D01*
X136096005Y-112755956D01*
X136121928Y-112693373D01*
X136121928Y-114284000D01*
G37*
%TD.AperFunction*%
D15*
X148576547Y-116406252D02*
X148583072Y-116340000D01*
X148583072Y-116284575D01*
X148694576Y-116224974D01*
X148810301Y-116130001D01*
X148834104Y-116100998D01*
X149565802Y-115369300D01*
X149613498Y-115369300D01*
X148576547Y-116406252D01*
%TA.AperFunction,NonConductor*%
D16*
G36*
X148576547Y-116406252D02*
G01*
X148583072Y-116340000D01*
X148583072Y-116284575D01*
X148694576Y-116224974D01*
X148810301Y-116130001D01*
X148834104Y-116100998D01*
X149565802Y-115369300D01*
X149613498Y-115369300D01*
X148576547Y-116406252D01*
G37*
%TD.AperFunction*%
D15*
X174221928Y-113849300D02*
X173418322Y-113849300D01*
X173380999Y-113845624D01*
X173343676Y-113849300D01*
X173343667Y-113849300D01*
X173232014Y-113860297D01*
X173088753Y-113903754D01*
X172956724Y-113974326D01*
X172840999Y-114069299D01*
X172817201Y-114098297D01*
X172526410Y-114389089D01*
X172526185Y-114388815D01*
X172429494Y-114309463D01*
X172319180Y-114250498D01*
X172199482Y-114214188D01*
X172075000Y-114201928D01*
X170825000Y-114201928D01*
X170700518Y-114214188D01*
X170580820Y-114250498D01*
X170470506Y-114309463D01*
X170373815Y-114388815D01*
X170294463Y-114485506D01*
X170235498Y-114595820D01*
X170199188Y-114715518D01*
X170186928Y-114840000D01*
X170186928Y-116039600D01*
X170062833Y-116039600D01*
X170025500Y-116035923D01*
X169988167Y-116039600D01*
X169876514Y-116050597D01*
X169733253Y-116094054D01*
X169654018Y-116136407D01*
X169586374Y-116068763D01*
X169416856Y-115955495D01*
X169228498Y-115877474D01*
X169028539Y-115837700D01*
X168824661Y-115837700D01*
X168624702Y-115877474D01*
X168436344Y-115955495D01*
X168266826Y-116068763D01*
X168122663Y-116212926D01*
X168009395Y-116382444D01*
X168002786Y-116398400D01*
X166532202Y-116398400D01*
X166881002Y-116049599D01*
X166910001Y-116025801D01*
X167004974Y-115910076D01*
X167075546Y-115778047D01*
X167119003Y-115634786D01*
X167130000Y-115523133D01*
X167130000Y-115523125D01*
X167133676Y-115485800D01*
X167130000Y-115448475D01*
X167130000Y-114810018D01*
X167221185Y-114735185D01*
X167300537Y-114638494D01*
X167359502Y-114528180D01*
X167395812Y-114408482D01*
X167408072Y-114284000D01*
X167408072Y-114115534D01*
X167602961Y-114154300D01*
X167806839Y-114154300D01*
X168006798Y-114114526D01*
X168195156Y-114036505D01*
X168364674Y-113923237D01*
X168508837Y-113779074D01*
X168622105Y-113609556D01*
X168700126Y-113421198D01*
X168739900Y-113221239D01*
X168739900Y-113159101D01*
X169180302Y-112718700D01*
X174221928Y-112718700D01*
X174221928Y-113849300D01*
%TA.AperFunction,NonConductor*%
D16*
G36*
X174221928Y-113849300D02*
G01*
X173418322Y-113849300D01*
X173380999Y-113845624D01*
X173343676Y-113849300D01*
X173343667Y-113849300D01*
X173232014Y-113860297D01*
X173088753Y-113903754D01*
X172956724Y-113974326D01*
X172840999Y-114069299D01*
X172817201Y-114098297D01*
X172526410Y-114389089D01*
X172526185Y-114388815D01*
X172429494Y-114309463D01*
X172319180Y-114250498D01*
X172199482Y-114214188D01*
X172075000Y-114201928D01*
X170825000Y-114201928D01*
X170700518Y-114214188D01*
X170580820Y-114250498D01*
X170470506Y-114309463D01*
X170373815Y-114388815D01*
X170294463Y-114485506D01*
X170235498Y-114595820D01*
X170199188Y-114715518D01*
X170186928Y-114840000D01*
X170186928Y-116039600D01*
X170062833Y-116039600D01*
X170025500Y-116035923D01*
X169988167Y-116039600D01*
X169876514Y-116050597D01*
X169733253Y-116094054D01*
X169654018Y-116136407D01*
X169586374Y-116068763D01*
X169416856Y-115955495D01*
X169228498Y-115877474D01*
X169028539Y-115837700D01*
X168824661Y-115837700D01*
X168624702Y-115877474D01*
X168436344Y-115955495D01*
X168266826Y-116068763D01*
X168122663Y-116212926D01*
X168009395Y-116382444D01*
X168002786Y-116398400D01*
X166532202Y-116398400D01*
X166881002Y-116049599D01*
X166910001Y-116025801D01*
X167004974Y-115910076D01*
X167075546Y-115778047D01*
X167119003Y-115634786D01*
X167130000Y-115523133D01*
X167130000Y-115523125D01*
X167133676Y-115485800D01*
X167130000Y-115448475D01*
X167130000Y-114810018D01*
X167221185Y-114735185D01*
X167300537Y-114638494D01*
X167359502Y-114528180D01*
X167395812Y-114408482D01*
X167408072Y-114284000D01*
X167408072Y-114115534D01*
X167602961Y-114154300D01*
X167806839Y-114154300D01*
X168006798Y-114114526D01*
X168195156Y-114036505D01*
X168364674Y-113923237D01*
X168508837Y-113779074D01*
X168622105Y-113609556D01*
X168700126Y-113421198D01*
X168739900Y-113221239D01*
X168739900Y-113159101D01*
X169180302Y-112718700D01*
X174221928Y-112718700D01*
X174221928Y-113849300D01*
G37*
%TD.AperFunction*%
D15*
X174176374Y-115402502D02*
X174136600Y-115602461D01*
X174136600Y-115806339D01*
X174176374Y-116006298D01*
X174190168Y-116039600D01*
X173025501Y-116039600D01*
X173695802Y-115369300D01*
X174190127Y-115369300D01*
X174176374Y-115402502D01*
%TA.AperFunction,NonConductor*%
D16*
G36*
X174176374Y-115402502D02*
G01*
X174136600Y-115602461D01*
X174136600Y-115806339D01*
X174176374Y-116006298D01*
X174190168Y-116039600D01*
X173025501Y-116039600D01*
X173695802Y-115369300D01*
X174190127Y-115369300D01*
X174176374Y-115402502D01*
G37*
%TD.AperFunction*%
D15*
X164336324Y-115181600D02*
X164340000Y-115218922D01*
X164340000Y-115218932D01*
X164340365Y-115222636D01*
X164318400Y-115333061D01*
X164318400Y-115488500D01*
X162911411Y-115488500D01*
X162867474Y-115444563D01*
X162754835Y-115369300D01*
X163792667Y-115369300D01*
X163830000Y-115372977D01*
X163978986Y-115358303D01*
X164122247Y-115314846D01*
X164254276Y-115244274D01*
X164336823Y-115176529D01*
X164336324Y-115181600D01*
%TA.AperFunction,NonConductor*%
D16*
G36*
X164336324Y-115181600D02*
G01*
X164340000Y-115218922D01*
X164340000Y-115218932D01*
X164340365Y-115222636D01*
X164318400Y-115333061D01*
X164318400Y-115488500D01*
X162911411Y-115488500D01*
X162867474Y-115444563D01*
X162754835Y-115369300D01*
X163792667Y-115369300D01*
X163830000Y-115372977D01*
X163978986Y-115358303D01*
X164122247Y-115314846D01*
X164254276Y-115244274D01*
X164336823Y-115176529D01*
X164336324Y-115181600D01*
G37*
%TD.AperFunction*%
D15*
X138136865Y-115006534D02*
X138137500Y-115003339D01*
X138137500Y-114922072D01*
X138221326Y-114922072D01*
X138136865Y-115006534D01*
%TA.AperFunction,NonConductor*%
D16*
G36*
X138136865Y-115006534D02*
G01*
X138137500Y-115003339D01*
X138137500Y-114922072D01*
X138221326Y-114922072D01*
X138136865Y-115006534D01*
G37*
%TD.AperFunction*%
D15*
X176005518Y-114909812D02*
X176130000Y-114922072D01*
X176412427Y-114922072D01*
X176390099Y-114944400D01*
X175942640Y-114944400D01*
X175965546Y-114901547D01*
X175966618Y-114898012D01*
X176005518Y-114909812D01*
%TA.AperFunction,NonConductor*%
D16*
G36*
X176005518Y-114909812D02*
G01*
X176130000Y-114922072D01*
X176412427Y-114922072D01*
X176390099Y-114944400D01*
X175942640Y-114944400D01*
X175965546Y-114901547D01*
X175966618Y-114898012D01*
X176005518Y-114909812D01*
G37*
%TD.AperFunction*%
D15*
X159021503Y-111896296D02*
X158992499Y-111920099D01*
X158955238Y-111965502D01*
X158897526Y-112035824D01*
X158854289Y-112116714D01*
X158826954Y-112167854D01*
X158783497Y-112311115D01*
X158772500Y-112422768D01*
X158772500Y-112422778D01*
X158768824Y-112460100D01*
X158772500Y-112497423D01*
X158772500Y-113491371D01*
X158631256Y-113396995D01*
X158442898Y-113318974D01*
X158242939Y-113279200D01*
X158039061Y-113279200D01*
X157839102Y-113318974D01*
X157650744Y-113396995D01*
X157481226Y-113510263D01*
X157337063Y-113654426D01*
X157248072Y-113787611D01*
X157248072Y-112284000D01*
X157235812Y-112159518D01*
X157199502Y-112039820D01*
X157140537Y-111929506D01*
X157061185Y-111832815D01*
X156964494Y-111753463D01*
X156937575Y-111739074D01*
X156915546Y-111666453D01*
X156844974Y-111534424D01*
X156782583Y-111458400D01*
X159459399Y-111458400D01*
X159021503Y-111896296D01*
%TA.AperFunction,NonConductor*%
D16*
G36*
X159021503Y-111896296D02*
G01*
X158992499Y-111920099D01*
X158955238Y-111965502D01*
X158897526Y-112035824D01*
X158854289Y-112116714D01*
X158826954Y-112167854D01*
X158783497Y-112311115D01*
X158772500Y-112422768D01*
X158772500Y-112422778D01*
X158768824Y-112460100D01*
X158772500Y-112497423D01*
X158772500Y-113491371D01*
X158631256Y-113396995D01*
X158442898Y-113318974D01*
X158242939Y-113279200D01*
X158039061Y-113279200D01*
X157839102Y-113318974D01*
X157650744Y-113396995D01*
X157481226Y-113510263D01*
X157337063Y-113654426D01*
X157248072Y-113787611D01*
X157248072Y-112284000D01*
X157235812Y-112159518D01*
X157199502Y-112039820D01*
X157140537Y-111929506D01*
X157061185Y-111832815D01*
X156964494Y-111753463D01*
X156937575Y-111739074D01*
X156915546Y-111666453D01*
X156844974Y-111534424D01*
X156782583Y-111458400D01*
X159459399Y-111458400D01*
X159021503Y-111896296D01*
G37*
%TD.AperFunction*%
D15*
X137918998Y-111394901D02*
X137890000Y-111418699D01*
X137866202Y-111447697D01*
X137866201Y-111447698D01*
X137795026Y-111534424D01*
X137724454Y-111666454D01*
X137723382Y-111669988D01*
X137684482Y-111658188D01*
X137560000Y-111645928D01*
X136760000Y-111645928D01*
X136635518Y-111658188D01*
X136515820Y-111694498D01*
X136405506Y-111753463D01*
X136308815Y-111832815D01*
X136229463Y-111929506D01*
X136184089Y-112014393D01*
X136174026Y-111963802D01*
X136096005Y-111775444D01*
X135982737Y-111605926D01*
X135838574Y-111461763D01*
X135669056Y-111348495D01*
X135480698Y-111270474D01*
X135280739Y-111230700D01*
X135076861Y-111230700D01*
X134876902Y-111270474D01*
X134688544Y-111348495D01*
X134519026Y-111461763D01*
X134374863Y-111605926D01*
X134261595Y-111775444D01*
X134183574Y-111963802D01*
X134143800Y-112163761D01*
X134143800Y-112225898D01*
X133118072Y-113251627D01*
X133118072Y-112284000D01*
X133105812Y-112159518D01*
X133089678Y-112106333D01*
X133207737Y-111988274D01*
X133321005Y-111818756D01*
X133399026Y-111630398D01*
X133438800Y-111430439D01*
X133438800Y-111226561D01*
X133399026Y-111026602D01*
X133397534Y-111023000D01*
X138290899Y-111023000D01*
X137918998Y-111394901D01*
%TA.AperFunction,NonConductor*%
D16*
G36*
X137918998Y-111394901D02*
G01*
X137890000Y-111418699D01*
X137866202Y-111447697D01*
X137866201Y-111447698D01*
X137795026Y-111534424D01*
X137724454Y-111666454D01*
X137723382Y-111669988D01*
X137684482Y-111658188D01*
X137560000Y-111645928D01*
X136760000Y-111645928D01*
X136635518Y-111658188D01*
X136515820Y-111694498D01*
X136405506Y-111753463D01*
X136308815Y-111832815D01*
X136229463Y-111929506D01*
X136184089Y-112014393D01*
X136174026Y-111963802D01*
X136096005Y-111775444D01*
X135982737Y-111605926D01*
X135838574Y-111461763D01*
X135669056Y-111348495D01*
X135480698Y-111270474D01*
X135280739Y-111230700D01*
X135076861Y-111230700D01*
X134876902Y-111270474D01*
X134688544Y-111348495D01*
X134519026Y-111461763D01*
X134374863Y-111605926D01*
X134261595Y-111775444D01*
X134183574Y-111963802D01*
X134143800Y-112163761D01*
X134143800Y-112225898D01*
X133118072Y-113251627D01*
X133118072Y-112284000D01*
X133105812Y-112159518D01*
X133089678Y-112106333D01*
X133207737Y-111988274D01*
X133321005Y-111818756D01*
X133399026Y-111630398D01*
X133438800Y-111430439D01*
X133438800Y-111226561D01*
X133399026Y-111026602D01*
X133397534Y-111023000D01*
X138290899Y-111023000D01*
X137918998Y-111394901D01*
G37*
%TD.AperFunction*%
D15*
X146295626Y-111510663D02*
X146151463Y-111654826D01*
X146038195Y-111824344D01*
X145960174Y-112012702D01*
X145921422Y-112207521D01*
X145172301Y-111458400D01*
X146373843Y-111458400D01*
X146295626Y-111510663D01*
%TA.AperFunction,NonConductor*%
D16*
G36*
X146295626Y-111510663D02*
G01*
X146151463Y-111654826D01*
X146038195Y-111824344D01*
X145960174Y-112012702D01*
X145921422Y-112207521D01*
X145172301Y-111458400D01*
X146373843Y-111458400D01*
X146295626Y-111510663D01*
G37*
%TD.AperFunction*%
D15*
X131408574Y-111026602D02*
X131368800Y-111226561D01*
X131368800Y-111430439D01*
X131404547Y-111610154D01*
X131374454Y-111666454D01*
X131373382Y-111669988D01*
X131334482Y-111658188D01*
X131210000Y-111645928D01*
X130410000Y-111645928D01*
X130301910Y-111656574D01*
X130300000Y-111637177D01*
X130300000Y-111637167D01*
X130289003Y-111525514D01*
X130245546Y-111382253D01*
X130229000Y-111351298D01*
X130229000Y-111226561D01*
X130189226Y-111026602D01*
X130187734Y-111023000D01*
X131410066Y-111023000D01*
X131408574Y-111026602D01*
%TA.AperFunction,NonConductor*%
D16*
G36*
X131408574Y-111026602D02*
G01*
X131368800Y-111226561D01*
X131368800Y-111430439D01*
X131404547Y-111610154D01*
X131374454Y-111666454D01*
X131373382Y-111669988D01*
X131334482Y-111658188D01*
X131210000Y-111645928D01*
X130410000Y-111645928D01*
X130301910Y-111656574D01*
X130300000Y-111637177D01*
X130300000Y-111637167D01*
X130289003Y-111525514D01*
X130245546Y-111382253D01*
X130229000Y-111351298D01*
X130229000Y-111226561D01*
X130189226Y-111026602D01*
X130187734Y-111023000D01*
X131410066Y-111023000D01*
X131408574Y-111026602D01*
G37*
%TD.AperFunction*%
M02*
