%TF.GenerationSoftware,KiCad,Pcbnew,(5.1.9)-1*%
%TF.CreationDate,2021-01-13T00:43:24+11:00*%
%TF.ProjectId,1M-30pinsimm,314d2d33-3070-4696-9e73-696d6d2e6b69,rev?*%
%TF.SameCoordinates,Original*%
%TF.FileFunction,Legend,Top*%
%TF.FilePolarity,Positive*%
%FSLAX46Y46*%
G04 Gerber Fmt 4.6, Leading zero omitted, Abs format (unit mm)*
G04 Created by KiCad (PCBNEW (5.1.9)-1) date 2021-01-13 00:43:24*
%MOMM*%
%LPD*%
G01*
G04 APERTURE LIST*
%ADD10C,0.200000*%
%ADD11C,0.150000*%
%ADD12C,0.120000*%
G04 APERTURE END LIST*
D10*
X198392857Y-124245714D02*
X198630952Y-124912380D01*
X198869047Y-124245714D01*
X199773809Y-124912380D02*
X199202380Y-124912380D01*
X199488095Y-124912380D02*
X199488095Y-123912380D01*
X199392857Y-124055238D01*
X199297619Y-124150476D01*
X199202380Y-124198095D01*
X200202380Y-124817142D02*
X200250000Y-124864761D01*
X200202380Y-124912380D01*
X200154761Y-124864761D01*
X200202380Y-124817142D01*
X200202380Y-124912380D01*
X200869047Y-123912380D02*
X200964285Y-123912380D01*
X201059523Y-123960000D01*
X201107142Y-124007619D01*
X201154761Y-124102857D01*
X201202380Y-124293333D01*
X201202380Y-124531428D01*
X201154761Y-124721904D01*
X201107142Y-124817142D01*
X201059523Y-124864761D01*
X200964285Y-124912380D01*
X200869047Y-124912380D01*
X200773809Y-124864761D01*
X200726190Y-124817142D01*
X200678571Y-124721904D01*
X200630952Y-124531428D01*
X200630952Y-124293333D01*
X200678571Y-124102857D01*
X200726190Y-124007619D01*
X200773809Y-123960000D01*
X200869047Y-123912380D01*
X119001904Y-121102380D02*
X118430476Y-121102380D01*
X118716190Y-121102380D02*
X118716190Y-120102380D01*
X118620952Y-120245238D01*
X118525714Y-120340476D01*
X118430476Y-120388095D01*
X119430476Y-121102380D02*
X119430476Y-120102380D01*
X119763809Y-120816666D01*
X120097142Y-120102380D01*
X120097142Y-121102380D01*
X120573333Y-121102380D02*
X120573333Y-120102380D01*
X120573333Y-120483333D02*
X120668571Y-120435714D01*
X120859047Y-120435714D01*
X120954285Y-120483333D01*
X121001904Y-120530952D01*
X121049523Y-120626190D01*
X121049523Y-120911904D01*
X121001904Y-121007142D01*
X120954285Y-121054761D01*
X120859047Y-121102380D01*
X120668571Y-121102380D01*
X120573333Y-121054761D01*
X116080952Y-112060952D02*
X115985714Y-112013333D01*
X115938095Y-111965714D01*
X115890476Y-111870476D01*
X115890476Y-111822857D01*
X115938095Y-111727619D01*
X115985714Y-111680000D01*
X116080952Y-111632380D01*
X116271428Y-111632380D01*
X116366666Y-111680000D01*
X116414285Y-111727619D01*
X116461904Y-111822857D01*
X116461904Y-111870476D01*
X116414285Y-111965714D01*
X116366666Y-112013333D01*
X116271428Y-112060952D01*
X116080952Y-112060952D01*
X115985714Y-112108571D01*
X115938095Y-112156190D01*
X115890476Y-112251428D01*
X115890476Y-112441904D01*
X115938095Y-112537142D01*
X115985714Y-112584761D01*
X116080952Y-112632380D01*
X116271428Y-112632380D01*
X116366666Y-112584761D01*
X116414285Y-112537142D01*
X116461904Y-112441904D01*
X116461904Y-112251428D01*
X116414285Y-112156190D01*
X116366666Y-112108571D01*
X116271428Y-112060952D01*
X117604761Y-111584761D02*
X116747619Y-112870476D01*
X117985714Y-112632380D02*
X118176190Y-112632380D01*
X118271428Y-112584761D01*
X118319047Y-112537142D01*
X118414285Y-112394285D01*
X118461904Y-112203809D01*
X118461904Y-111822857D01*
X118414285Y-111727619D01*
X118366666Y-111680000D01*
X118271428Y-111632380D01*
X118080952Y-111632380D01*
X117985714Y-111680000D01*
X117938095Y-111727619D01*
X117890476Y-111822857D01*
X117890476Y-112060952D01*
X117938095Y-112156190D01*
X117985714Y-112203809D01*
X118080952Y-112251428D01*
X118271428Y-112251428D01*
X118366666Y-112203809D01*
X118414285Y-112156190D01*
X118461904Y-112060952D01*
X119985714Y-112108571D02*
X120128571Y-112156190D01*
X120176190Y-112203809D01*
X120223809Y-112299047D01*
X120223809Y-112441904D01*
X120176190Y-112537142D01*
X120128571Y-112584761D01*
X120033333Y-112632380D01*
X119652380Y-112632380D01*
X119652380Y-111632380D01*
X119985714Y-111632380D01*
X120080952Y-111680000D01*
X120128571Y-111727619D01*
X120176190Y-111822857D01*
X120176190Y-111918095D01*
X120128571Y-112013333D01*
X120080952Y-112060952D01*
X119985714Y-112108571D01*
X119652380Y-112108571D01*
X120652380Y-112632380D02*
X120652380Y-111965714D01*
X120652380Y-111632380D02*
X120604761Y-111680000D01*
X120652380Y-111727619D01*
X120700000Y-111680000D01*
X120652380Y-111632380D01*
X120652380Y-111727619D01*
X120985714Y-111965714D02*
X121366666Y-111965714D01*
X121128571Y-111632380D02*
X121128571Y-112489523D01*
X121176190Y-112584761D01*
X121271428Y-112632380D01*
X121366666Y-112632380D01*
X116271428Y-113808571D02*
X115938095Y-113808571D01*
X115938095Y-114332380D02*
X115938095Y-113332380D01*
X116414285Y-113332380D01*
X116795238Y-114332380D02*
X116795238Y-113332380D01*
X117176190Y-113332380D01*
X117271428Y-113380000D01*
X117319047Y-113427619D01*
X117366666Y-113522857D01*
X117366666Y-113665714D01*
X117319047Y-113760952D01*
X117271428Y-113808571D01*
X117176190Y-113856190D01*
X116795238Y-113856190D01*
X117795238Y-114332380D02*
X117795238Y-113332380D01*
X118128571Y-114046666D01*
X118461904Y-113332380D01*
X118461904Y-114332380D01*
X119700000Y-114332380D02*
X119700000Y-113332380D01*
X119938095Y-113332380D01*
X120080952Y-113380000D01*
X120176190Y-113475238D01*
X120223809Y-113570476D01*
X120271428Y-113760952D01*
X120271428Y-113903809D01*
X120223809Y-114094285D01*
X120176190Y-114189523D01*
X120080952Y-114284761D01*
X119938095Y-114332380D01*
X119700000Y-114332380D01*
X121271428Y-114332380D02*
X120938095Y-113856190D01*
X120700000Y-114332380D02*
X120700000Y-113332380D01*
X121080952Y-113332380D01*
X121176190Y-113380000D01*
X121223809Y-113427619D01*
X121271428Y-113522857D01*
X121271428Y-113665714D01*
X121223809Y-113760952D01*
X121176190Y-113808571D01*
X121080952Y-113856190D01*
X120700000Y-113856190D01*
X121652380Y-114046666D02*
X122128571Y-114046666D01*
X121557142Y-114332380D02*
X121890476Y-113332380D01*
X122223809Y-114332380D01*
X122557142Y-114332380D02*
X122557142Y-113332380D01*
X122890476Y-114046666D01*
X123223809Y-113332380D01*
X123223809Y-114332380D01*
D11*
%TO.C,U3*%
X191389000Y-117856000D02*
X191389000Y-119253000D01*
X191389000Y-114427000D02*
X191389000Y-115824000D01*
X191389000Y-119253000D02*
X174371000Y-119253000D01*
X174371000Y-119253000D02*
X174371000Y-114427000D01*
X174371000Y-114427000D02*
X191389000Y-114427000D01*
D12*
X191389000Y-117856000D02*
G75*
G02*
X191389000Y-115824000I0J1016000D01*
G01*
%TO.C,C3*%
X172300000Y-117340000D02*
X172300000Y-116340000D01*
X170600000Y-116340000D02*
X170600000Y-117340000D01*
%TO.C,C2*%
X146470000Y-116340000D02*
X146470000Y-117340000D01*
X148170000Y-117340000D02*
X148170000Y-116340000D01*
%TO.C,C1*%
X122340000Y-116340000D02*
X122340000Y-117340000D01*
X124040000Y-117340000D02*
X124040000Y-116340000D01*
D11*
%TO.C,U2*%
X150241000Y-114427000D02*
X167259000Y-114427000D01*
X150241000Y-119253000D02*
X150241000Y-114427000D01*
X167259000Y-119253000D02*
X150241000Y-119253000D01*
X167259000Y-114427000D02*
X167259000Y-115824000D01*
X167259000Y-117856000D02*
X167259000Y-119253000D01*
D12*
X167259000Y-117856000D02*
G75*
G02*
X167259000Y-115824000I0J1016000D01*
G01*
D11*
%TO.C,U1*%
X126111000Y-114427000D02*
X143129000Y-114427000D01*
X126111000Y-119253000D02*
X126111000Y-114427000D01*
X143129000Y-119253000D02*
X126111000Y-119253000D01*
X143129000Y-114427000D02*
X143129000Y-115824000D01*
X143129000Y-117856000D02*
X143129000Y-119253000D01*
D12*
X143129000Y-117856000D02*
G75*
G02*
X143129000Y-115824000I0J1016000D01*
G01*
%TO.C,U3*%
D11*
X182118095Y-116292380D02*
X182118095Y-117101904D01*
X182165714Y-117197142D01*
X182213333Y-117244761D01*
X182308571Y-117292380D01*
X182499047Y-117292380D01*
X182594285Y-117244761D01*
X182641904Y-117197142D01*
X182689523Y-117101904D01*
X182689523Y-116292380D01*
X183070476Y-116292380D02*
X183689523Y-116292380D01*
X183356190Y-116673333D01*
X183499047Y-116673333D01*
X183594285Y-116720952D01*
X183641904Y-116768571D01*
X183689523Y-116863809D01*
X183689523Y-117101904D01*
X183641904Y-117197142D01*
X183594285Y-117244761D01*
X183499047Y-117292380D01*
X183213333Y-117292380D01*
X183118095Y-117244761D01*
X183070476Y-117197142D01*
%TO.C,C3*%
X173557142Y-117006666D02*
X173604761Y-117054285D01*
X173652380Y-117197142D01*
X173652380Y-117292380D01*
X173604761Y-117435238D01*
X173509523Y-117530476D01*
X173414285Y-117578095D01*
X173223809Y-117625714D01*
X173080952Y-117625714D01*
X172890476Y-117578095D01*
X172795238Y-117530476D01*
X172700000Y-117435238D01*
X172652380Y-117292380D01*
X172652380Y-117197142D01*
X172700000Y-117054285D01*
X172747619Y-117006666D01*
X172652380Y-116673333D02*
X172652380Y-116054285D01*
X173033333Y-116387619D01*
X173033333Y-116244761D01*
X173080952Y-116149523D01*
X173128571Y-116101904D01*
X173223809Y-116054285D01*
X173461904Y-116054285D01*
X173557142Y-116101904D01*
X173604761Y-116149523D01*
X173652380Y-116244761D01*
X173652380Y-116530476D01*
X173604761Y-116625714D01*
X173557142Y-116673333D01*
%TO.C,C2*%
X149427142Y-117006666D02*
X149474761Y-117054285D01*
X149522380Y-117197142D01*
X149522380Y-117292380D01*
X149474761Y-117435238D01*
X149379523Y-117530476D01*
X149284285Y-117578095D01*
X149093809Y-117625714D01*
X148950952Y-117625714D01*
X148760476Y-117578095D01*
X148665238Y-117530476D01*
X148570000Y-117435238D01*
X148522380Y-117292380D01*
X148522380Y-117197142D01*
X148570000Y-117054285D01*
X148617619Y-117006666D01*
X148617619Y-116625714D02*
X148570000Y-116578095D01*
X148522380Y-116482857D01*
X148522380Y-116244761D01*
X148570000Y-116149523D01*
X148617619Y-116101904D01*
X148712857Y-116054285D01*
X148808095Y-116054285D01*
X148950952Y-116101904D01*
X149522380Y-116673333D01*
X149522380Y-116054285D01*
%TO.C,C1*%
X125297142Y-117006666D02*
X125344761Y-117054285D01*
X125392380Y-117197142D01*
X125392380Y-117292380D01*
X125344761Y-117435238D01*
X125249523Y-117530476D01*
X125154285Y-117578095D01*
X124963809Y-117625714D01*
X124820952Y-117625714D01*
X124630476Y-117578095D01*
X124535238Y-117530476D01*
X124440000Y-117435238D01*
X124392380Y-117292380D01*
X124392380Y-117197142D01*
X124440000Y-117054285D01*
X124487619Y-117006666D01*
X125392380Y-116054285D02*
X125392380Y-116625714D01*
X125392380Y-116340000D02*
X124392380Y-116340000D01*
X124535238Y-116435238D01*
X124630476Y-116530476D01*
X124678095Y-116625714D01*
%TO.C,U2*%
X157988095Y-116292380D02*
X157988095Y-117101904D01*
X158035714Y-117197142D01*
X158083333Y-117244761D01*
X158178571Y-117292380D01*
X158369047Y-117292380D01*
X158464285Y-117244761D01*
X158511904Y-117197142D01*
X158559523Y-117101904D01*
X158559523Y-116292380D01*
X158988095Y-116387619D02*
X159035714Y-116340000D01*
X159130952Y-116292380D01*
X159369047Y-116292380D01*
X159464285Y-116340000D01*
X159511904Y-116387619D01*
X159559523Y-116482857D01*
X159559523Y-116578095D01*
X159511904Y-116720952D01*
X158940476Y-117292380D01*
X159559523Y-117292380D01*
%TO.C,U1*%
X133858095Y-116292380D02*
X133858095Y-117101904D01*
X133905714Y-117197142D01*
X133953333Y-117244761D01*
X134048571Y-117292380D01*
X134239047Y-117292380D01*
X134334285Y-117244761D01*
X134381904Y-117197142D01*
X134429523Y-117101904D01*
X134429523Y-116292380D01*
X135429523Y-117292380D02*
X134858095Y-117292380D01*
X135143809Y-117292380D02*
X135143809Y-116292380D01*
X135048571Y-116435238D01*
X134953333Y-116530476D01*
X134858095Y-116578095D01*
%TO.C,B1*%
X195024476Y-121372380D02*
X195643523Y-121372380D01*
X195310190Y-121753333D01*
X195453047Y-121753333D01*
X195548285Y-121800952D01*
X195595904Y-121848571D01*
X195643523Y-121943809D01*
X195643523Y-122181904D01*
X195595904Y-122277142D01*
X195548285Y-122324761D01*
X195453047Y-122372380D01*
X195167333Y-122372380D01*
X195072095Y-122324761D01*
X195024476Y-122277142D01*
X196262571Y-121372380D02*
X196357809Y-121372380D01*
X196453047Y-121420000D01*
X196500666Y-121467619D01*
X196548285Y-121562857D01*
X196595904Y-121753333D01*
X196595904Y-121991428D01*
X196548285Y-122181904D01*
X196500666Y-122277142D01*
X196453047Y-122324761D01*
X196357809Y-122372380D01*
X196262571Y-122372380D01*
X196167333Y-122324761D01*
X196119714Y-122277142D01*
X196072095Y-122181904D01*
X196024476Y-121991428D01*
X196024476Y-121753333D01*
X196072095Y-121562857D01*
X196119714Y-121467619D01*
X196167333Y-121420000D01*
X196262571Y-121372380D01*
X122459714Y-122499380D02*
X121888285Y-122499380D01*
X122174000Y-122499380D02*
X122174000Y-121499380D01*
X122078761Y-121642238D01*
X121983523Y-121737476D01*
X121888285Y-121785095D01*
%TD*%
M02*
