%TF.GenerationSoftware,KiCad,Pcbnew,(5.1.9)-1*%
%TF.CreationDate,2021-01-13T00:13:40+11:00*%
%TF.ProjectId,1M-30pinsimm,314d2d33-3070-4696-9e73-696d6d2e6b69,rev?*%
%TF.SameCoordinates,Original*%
%TF.FileFunction,Paste,Top*%
%TF.FilePolarity,Positive*%
%FSLAX46Y46*%
G04 Gerber Fmt 4.6, Leading zero omitted, Abs format (unit mm)*
G04 Created by KiCad (PCBNEW (5.1.9)-1) date 2021-01-13 00:13:40*
%MOMM*%
%LPD*%
G01*
G04 APERTURE LIST*
%ADD10R,0.800000X2.000000*%
%ADD11R,1.250000X1.500000*%
G04 APERTURE END LIST*
D10*
%TO.C,U3*%
X175387000Y-120396000D03*
X176657000Y-120396000D03*
X177927000Y-120396000D03*
X179197000Y-120396000D03*
X180467000Y-120396000D03*
X185547000Y-120396000D03*
X186817000Y-120396000D03*
X188087000Y-120396000D03*
X189357000Y-120396000D03*
X190500000Y-120396000D03*
X190500000Y-113284000D03*
X189230000Y-113284000D03*
X187960000Y-113284000D03*
X186690000Y-113284000D03*
X185420000Y-113284000D03*
X180340000Y-113284000D03*
X179070000Y-113284000D03*
X177800000Y-113284000D03*
X176530000Y-113284000D03*
X175260000Y-113284000D03*
%TD*%
D11*
%TO.C,C3*%
X171450000Y-115590000D03*
X171450000Y-118090000D03*
%TD*%
%TO.C,C2*%
X147320000Y-115590000D03*
X147320000Y-118090000D03*
%TD*%
%TO.C,C1*%
X123190000Y-115590000D03*
X123190000Y-118090000D03*
%TD*%
D10*
%TO.C,U2*%
X151257000Y-120396000D03*
X152527000Y-120396000D03*
X153797000Y-120396000D03*
X155067000Y-120396000D03*
X156337000Y-120396000D03*
X161417000Y-120396000D03*
X162687000Y-120396000D03*
X163957000Y-120396000D03*
X165227000Y-120396000D03*
X166370000Y-120396000D03*
X166370000Y-113284000D03*
X165100000Y-113284000D03*
X163830000Y-113284000D03*
X162560000Y-113284000D03*
X161290000Y-113284000D03*
X156210000Y-113284000D03*
X154940000Y-113284000D03*
X153670000Y-113284000D03*
X152400000Y-113284000D03*
X151130000Y-113284000D03*
%TD*%
%TO.C,U1*%
X127127000Y-120396000D03*
X128397000Y-120396000D03*
X129667000Y-120396000D03*
X130937000Y-120396000D03*
X132207000Y-120396000D03*
X137287000Y-120396000D03*
X138557000Y-120396000D03*
X139827000Y-120396000D03*
X141097000Y-120396000D03*
X142240000Y-120396000D03*
X142240000Y-113284000D03*
X140970000Y-113284000D03*
X139700000Y-113284000D03*
X138430000Y-113284000D03*
X137160000Y-113284000D03*
X132080000Y-113284000D03*
X130810000Y-113284000D03*
X129540000Y-113284000D03*
X128270000Y-113284000D03*
X127000000Y-113284000D03*
%TD*%
M02*
